%TF.GenerationSoftware,KiCad,Pcbnew,(7.0.0)*%
%TF.CreationDate,2023-10-09T18:08:34-02:30*%
%TF.ProjectId,PCB_Flashlight,5043425f-466c-4617-9368-6c696768742e,0*%
%TF.SameCoordinates,Original*%
%TF.FileFunction,Legend,Bot*%
%TF.FilePolarity,Positive*%
%FSLAX46Y46*%
G04 Gerber Fmt 4.6, Leading zero omitted, Abs format (unit mm)*
G04 Created by KiCad (PCBNEW (7.0.0)) date 2023-10-09 18:08:34*
%MOMM*%
%LPD*%
G01*
G04 APERTURE LIST*
%ADD10C,0.150000*%
%ADD11C,0.120000*%
%TA.AperFunction,Profile*%
%ADD12C,0.100000*%
%TD*%
G04 APERTURE END LIST*
D10*
%TO.C,U2*%
X159761904Y-122767380D02*
X159761904Y-123576904D01*
X159761904Y-123576904D02*
X159714285Y-123672142D01*
X159714285Y-123672142D02*
X159666666Y-123719761D01*
X159666666Y-123719761D02*
X159571428Y-123767380D01*
X159571428Y-123767380D02*
X159380952Y-123767380D01*
X159380952Y-123767380D02*
X159285714Y-123719761D01*
X159285714Y-123719761D02*
X159238095Y-123672142D01*
X159238095Y-123672142D02*
X159190476Y-123576904D01*
X159190476Y-123576904D02*
X159190476Y-122767380D01*
X158761904Y-122862619D02*
X158714285Y-122815000D01*
X158714285Y-122815000D02*
X158619047Y-122767380D01*
X158619047Y-122767380D02*
X158380952Y-122767380D01*
X158380952Y-122767380D02*
X158285714Y-122815000D01*
X158285714Y-122815000D02*
X158238095Y-122862619D01*
X158238095Y-122862619D02*
X158190476Y-122957857D01*
X158190476Y-122957857D02*
X158190476Y-123053095D01*
X158190476Y-123053095D02*
X158238095Y-123195952D01*
X158238095Y-123195952D02*
X158809523Y-123767380D01*
X158809523Y-123767380D02*
X158190476Y-123767380D01*
%TO.C,U1*%
X184561904Y-120767380D02*
X184561904Y-121576904D01*
X184561904Y-121576904D02*
X184514285Y-121672142D01*
X184514285Y-121672142D02*
X184466666Y-121719761D01*
X184466666Y-121719761D02*
X184371428Y-121767380D01*
X184371428Y-121767380D02*
X184180952Y-121767380D01*
X184180952Y-121767380D02*
X184085714Y-121719761D01*
X184085714Y-121719761D02*
X184038095Y-121672142D01*
X184038095Y-121672142D02*
X183990476Y-121576904D01*
X183990476Y-121576904D02*
X183990476Y-120767380D01*
X182990476Y-121767380D02*
X183561904Y-121767380D01*
X183276190Y-121767380D02*
X183276190Y-120767380D01*
X183276190Y-120767380D02*
X183371428Y-120910238D01*
X183371428Y-120910238D02*
X183466666Y-121005476D01*
X183466666Y-121005476D02*
X183561904Y-121053095D01*
%TO.C,R5*%
X175217380Y-119833333D02*
X174741190Y-119500000D01*
X175217380Y-119261905D02*
X174217380Y-119261905D01*
X174217380Y-119261905D02*
X174217380Y-119642857D01*
X174217380Y-119642857D02*
X174265000Y-119738095D01*
X174265000Y-119738095D02*
X174312619Y-119785714D01*
X174312619Y-119785714D02*
X174407857Y-119833333D01*
X174407857Y-119833333D02*
X174550714Y-119833333D01*
X174550714Y-119833333D02*
X174645952Y-119785714D01*
X174645952Y-119785714D02*
X174693571Y-119738095D01*
X174693571Y-119738095D02*
X174741190Y-119642857D01*
X174741190Y-119642857D02*
X174741190Y-119261905D01*
X174217380Y-120738095D02*
X174217380Y-120261905D01*
X174217380Y-120261905D02*
X174693571Y-120214286D01*
X174693571Y-120214286D02*
X174645952Y-120261905D01*
X174645952Y-120261905D02*
X174598333Y-120357143D01*
X174598333Y-120357143D02*
X174598333Y-120595238D01*
X174598333Y-120595238D02*
X174645952Y-120690476D01*
X174645952Y-120690476D02*
X174693571Y-120738095D01*
X174693571Y-120738095D02*
X174788809Y-120785714D01*
X174788809Y-120785714D02*
X175026904Y-120785714D01*
X175026904Y-120785714D02*
X175122142Y-120738095D01*
X175122142Y-120738095D02*
X175169761Y-120690476D01*
X175169761Y-120690476D02*
X175217380Y-120595238D01*
X175217380Y-120595238D02*
X175217380Y-120357143D01*
X175217380Y-120357143D02*
X175169761Y-120261905D01*
X175169761Y-120261905D02*
X175122142Y-120214286D01*
%TO.C,R4*%
X178367380Y-116233333D02*
X177891190Y-115900000D01*
X178367380Y-115661905D02*
X177367380Y-115661905D01*
X177367380Y-115661905D02*
X177367380Y-116042857D01*
X177367380Y-116042857D02*
X177415000Y-116138095D01*
X177415000Y-116138095D02*
X177462619Y-116185714D01*
X177462619Y-116185714D02*
X177557857Y-116233333D01*
X177557857Y-116233333D02*
X177700714Y-116233333D01*
X177700714Y-116233333D02*
X177795952Y-116185714D01*
X177795952Y-116185714D02*
X177843571Y-116138095D01*
X177843571Y-116138095D02*
X177891190Y-116042857D01*
X177891190Y-116042857D02*
X177891190Y-115661905D01*
X177700714Y-117090476D02*
X178367380Y-117090476D01*
X177319761Y-116852381D02*
X178034047Y-116614286D01*
X178034047Y-116614286D02*
X178034047Y-117233333D01*
%TO.C,R3*%
X186766666Y-118967380D02*
X187099999Y-118491190D01*
X187338094Y-118967380D02*
X187338094Y-117967380D01*
X187338094Y-117967380D02*
X186957142Y-117967380D01*
X186957142Y-117967380D02*
X186861904Y-118015000D01*
X186861904Y-118015000D02*
X186814285Y-118062619D01*
X186814285Y-118062619D02*
X186766666Y-118157857D01*
X186766666Y-118157857D02*
X186766666Y-118300714D01*
X186766666Y-118300714D02*
X186814285Y-118395952D01*
X186814285Y-118395952D02*
X186861904Y-118443571D01*
X186861904Y-118443571D02*
X186957142Y-118491190D01*
X186957142Y-118491190D02*
X187338094Y-118491190D01*
X186433332Y-117967380D02*
X185814285Y-117967380D01*
X185814285Y-117967380D02*
X186147618Y-118348333D01*
X186147618Y-118348333D02*
X186004761Y-118348333D01*
X186004761Y-118348333D02*
X185909523Y-118395952D01*
X185909523Y-118395952D02*
X185861904Y-118443571D01*
X185861904Y-118443571D02*
X185814285Y-118538809D01*
X185814285Y-118538809D02*
X185814285Y-118776904D01*
X185814285Y-118776904D02*
X185861904Y-118872142D01*
X185861904Y-118872142D02*
X185909523Y-118919761D01*
X185909523Y-118919761D02*
X186004761Y-118967380D01*
X186004761Y-118967380D02*
X186290475Y-118967380D01*
X186290475Y-118967380D02*
X186385713Y-118919761D01*
X186385713Y-118919761D02*
X186433332Y-118872142D01*
%TO.C,C3*%
X156166666Y-123472142D02*
X156214285Y-123519761D01*
X156214285Y-123519761D02*
X156357142Y-123567380D01*
X156357142Y-123567380D02*
X156452380Y-123567380D01*
X156452380Y-123567380D02*
X156595237Y-123519761D01*
X156595237Y-123519761D02*
X156690475Y-123424523D01*
X156690475Y-123424523D02*
X156738094Y-123329285D01*
X156738094Y-123329285D02*
X156785713Y-123138809D01*
X156785713Y-123138809D02*
X156785713Y-122995952D01*
X156785713Y-122995952D02*
X156738094Y-122805476D01*
X156738094Y-122805476D02*
X156690475Y-122710238D01*
X156690475Y-122710238D02*
X156595237Y-122615000D01*
X156595237Y-122615000D02*
X156452380Y-122567380D01*
X156452380Y-122567380D02*
X156357142Y-122567380D01*
X156357142Y-122567380D02*
X156214285Y-122615000D01*
X156214285Y-122615000D02*
X156166666Y-122662619D01*
X155833332Y-122567380D02*
X155214285Y-122567380D01*
X155214285Y-122567380D02*
X155547618Y-122948333D01*
X155547618Y-122948333D02*
X155404761Y-122948333D01*
X155404761Y-122948333D02*
X155309523Y-122995952D01*
X155309523Y-122995952D02*
X155261904Y-123043571D01*
X155261904Y-123043571D02*
X155214285Y-123138809D01*
X155214285Y-123138809D02*
X155214285Y-123376904D01*
X155214285Y-123376904D02*
X155261904Y-123472142D01*
X155261904Y-123472142D02*
X155309523Y-123519761D01*
X155309523Y-123519761D02*
X155404761Y-123567380D01*
X155404761Y-123567380D02*
X155690475Y-123567380D01*
X155690475Y-123567380D02*
X155785713Y-123519761D01*
X155785713Y-123519761D02*
X155833332Y-123472142D01*
%TO.C,C2*%
X156166666Y-117672142D02*
X156214285Y-117719761D01*
X156214285Y-117719761D02*
X156357142Y-117767380D01*
X156357142Y-117767380D02*
X156452380Y-117767380D01*
X156452380Y-117767380D02*
X156595237Y-117719761D01*
X156595237Y-117719761D02*
X156690475Y-117624523D01*
X156690475Y-117624523D02*
X156738094Y-117529285D01*
X156738094Y-117529285D02*
X156785713Y-117338809D01*
X156785713Y-117338809D02*
X156785713Y-117195952D01*
X156785713Y-117195952D02*
X156738094Y-117005476D01*
X156738094Y-117005476D02*
X156690475Y-116910238D01*
X156690475Y-116910238D02*
X156595237Y-116815000D01*
X156595237Y-116815000D02*
X156452380Y-116767380D01*
X156452380Y-116767380D02*
X156357142Y-116767380D01*
X156357142Y-116767380D02*
X156214285Y-116815000D01*
X156214285Y-116815000D02*
X156166666Y-116862619D01*
X155785713Y-116862619D02*
X155738094Y-116815000D01*
X155738094Y-116815000D02*
X155642856Y-116767380D01*
X155642856Y-116767380D02*
X155404761Y-116767380D01*
X155404761Y-116767380D02*
X155309523Y-116815000D01*
X155309523Y-116815000D02*
X155261904Y-116862619D01*
X155261904Y-116862619D02*
X155214285Y-116957857D01*
X155214285Y-116957857D02*
X155214285Y-117053095D01*
X155214285Y-117053095D02*
X155261904Y-117195952D01*
X155261904Y-117195952D02*
X155833332Y-117767380D01*
X155833332Y-117767380D02*
X155214285Y-117767380D01*
%TO.C,C1*%
X183566666Y-123072142D02*
X183614285Y-123119761D01*
X183614285Y-123119761D02*
X183757142Y-123167380D01*
X183757142Y-123167380D02*
X183852380Y-123167380D01*
X183852380Y-123167380D02*
X183995237Y-123119761D01*
X183995237Y-123119761D02*
X184090475Y-123024523D01*
X184090475Y-123024523D02*
X184138094Y-122929285D01*
X184138094Y-122929285D02*
X184185713Y-122738809D01*
X184185713Y-122738809D02*
X184185713Y-122595952D01*
X184185713Y-122595952D02*
X184138094Y-122405476D01*
X184138094Y-122405476D02*
X184090475Y-122310238D01*
X184090475Y-122310238D02*
X183995237Y-122215000D01*
X183995237Y-122215000D02*
X183852380Y-122167380D01*
X183852380Y-122167380D02*
X183757142Y-122167380D01*
X183757142Y-122167380D02*
X183614285Y-122215000D01*
X183614285Y-122215000D02*
X183566666Y-122262619D01*
X182614285Y-123167380D02*
X183185713Y-123167380D01*
X182899999Y-123167380D02*
X182899999Y-122167380D01*
X182899999Y-122167380D02*
X182995237Y-122310238D01*
X182995237Y-122310238D02*
X183090475Y-122405476D01*
X183090475Y-122405476D02*
X183185713Y-122453095D01*
D11*
%TO.C,U2*%
X157477500Y-120562500D02*
X157477500Y-121212500D01*
X160597500Y-120562500D02*
X160597500Y-121212500D01*
X157477500Y-120562500D02*
X157477500Y-118887500D01*
X160597500Y-120562500D02*
X160597500Y-119912500D01*
%TO.C,U1*%
X179600000Y-118140000D02*
X181400000Y-118140000D01*
X181400000Y-121360000D02*
X178450000Y-121360000D01*
%TO.C,R5*%
X175765000Y-119772936D02*
X175765000Y-120227064D01*
X177235000Y-119772936D02*
X177235000Y-120227064D01*
%TO.C,R4*%
X180727064Y-115765000D02*
X180272936Y-115765000D01*
X180727064Y-117235000D02*
X180272936Y-117235000D01*
%TO.C,R3*%
X185235000Y-118727064D02*
X185235000Y-118272936D01*
X183765000Y-118727064D02*
X183765000Y-118272936D01*
%TO.C,C3*%
X156735000Y-120761252D02*
X156735000Y-120238748D01*
X155265000Y-120761252D02*
X155265000Y-120238748D01*
%TO.C,C2*%
X159261252Y-116515000D02*
X158738748Y-116515000D01*
X159261252Y-117985000D02*
X158738748Y-117985000D01*
%TO.C,C1*%
X180761252Y-122015000D02*
X180238748Y-122015000D01*
X180761252Y-123485000D02*
X180238748Y-123485000D01*
%TD*%
D12*
X150000000Y-115000000D02*
X150000000Y-125000000D01*
X200000000Y-115000000D02*
X150000000Y-115000000D01*
X200000000Y-125000000D02*
X200000000Y-115000000D01*
X150000000Y-125000000D02*
X200000000Y-125000000D01*
M02*
