%TF.GenerationSoftware,KiCad,Pcbnew,(7.0.0)*%
%TF.CreationDate,2023-10-10T00:17:12-02:30*%
%TF.ProjectId,PCB_Flashlight,5043425f-466c-4617-9368-6c696768742e,0*%
%TF.SameCoordinates,Original*%
%TF.FileFunction,Legend,Bot*%
%TF.FilePolarity,Positive*%
%FSLAX46Y46*%
G04 Gerber Fmt 4.6, Leading zero omitted, Abs format (unit mm)*
G04 Created by KiCad (PCBNEW (7.0.0)) date 2023-10-10 00:17:12*
%MOMM*%
%LPD*%
G01*
G04 APERTURE LIST*
%ADD10C,0.150000*%
%ADD11C,0.120000*%
%TA.AperFunction,Profile*%
%ADD12C,0.100000*%
%TD*%
G04 APERTURE END LIST*
D10*
X58457619Y-149252380D02*
X59457619Y-149252380D01*
X59457619Y-149252380D02*
X59457619Y-149014285D01*
X59457619Y-149014285D02*
X59410000Y-148871428D01*
X59410000Y-148871428D02*
X59314761Y-148776190D01*
X59314761Y-148776190D02*
X59219523Y-148728571D01*
X59219523Y-148728571D02*
X59029047Y-148680952D01*
X59029047Y-148680952D02*
X58886190Y-148680952D01*
X58886190Y-148680952D02*
X58695714Y-148728571D01*
X58695714Y-148728571D02*
X58600476Y-148776190D01*
X58600476Y-148776190D02*
X58505238Y-148871428D01*
X58505238Y-148871428D02*
X58457619Y-149014285D01*
X58457619Y-149014285D02*
X58457619Y-149252380D01*
X58505238Y-147871428D02*
X58457619Y-147966666D01*
X58457619Y-147966666D02*
X58457619Y-148157142D01*
X58457619Y-148157142D02*
X58505238Y-148252380D01*
X58505238Y-148252380D02*
X58600476Y-148299999D01*
X58600476Y-148299999D02*
X58981428Y-148299999D01*
X58981428Y-148299999D02*
X59076666Y-148252380D01*
X59076666Y-148252380D02*
X59124285Y-148157142D01*
X59124285Y-148157142D02*
X59124285Y-147966666D01*
X59124285Y-147966666D02*
X59076666Y-147871428D01*
X59076666Y-147871428D02*
X58981428Y-147823809D01*
X58981428Y-147823809D02*
X58886190Y-147823809D01*
X58886190Y-147823809D02*
X58790952Y-148299999D01*
X58505238Y-147442856D02*
X58457619Y-147347618D01*
X58457619Y-147347618D02*
X58457619Y-147157142D01*
X58457619Y-147157142D02*
X58505238Y-147061904D01*
X58505238Y-147061904D02*
X58600476Y-147014285D01*
X58600476Y-147014285D02*
X58648095Y-147014285D01*
X58648095Y-147014285D02*
X58743333Y-147061904D01*
X58743333Y-147061904D02*
X58790952Y-147157142D01*
X58790952Y-147157142D02*
X58790952Y-147299999D01*
X58790952Y-147299999D02*
X58838571Y-147395237D01*
X58838571Y-147395237D02*
X58933809Y-147442856D01*
X58933809Y-147442856D02*
X58981428Y-147442856D01*
X58981428Y-147442856D02*
X59076666Y-147395237D01*
X59076666Y-147395237D02*
X59124285Y-147299999D01*
X59124285Y-147299999D02*
X59124285Y-147157142D01*
X59124285Y-147157142D02*
X59076666Y-147061904D01*
X58457619Y-146585713D02*
X59124285Y-146585713D01*
X59457619Y-146585713D02*
X59410000Y-146633332D01*
X59410000Y-146633332D02*
X59362380Y-146585713D01*
X59362380Y-146585713D02*
X59410000Y-146538094D01*
X59410000Y-146538094D02*
X59457619Y-146585713D01*
X59457619Y-146585713D02*
X59362380Y-146585713D01*
X59124285Y-145680952D02*
X58314761Y-145680952D01*
X58314761Y-145680952D02*
X58219523Y-145728571D01*
X58219523Y-145728571D02*
X58171904Y-145776190D01*
X58171904Y-145776190D02*
X58124285Y-145871428D01*
X58124285Y-145871428D02*
X58124285Y-146014285D01*
X58124285Y-146014285D02*
X58171904Y-146109523D01*
X58505238Y-145680952D02*
X58457619Y-145776190D01*
X58457619Y-145776190D02*
X58457619Y-145966666D01*
X58457619Y-145966666D02*
X58505238Y-146061904D01*
X58505238Y-146061904D02*
X58552857Y-146109523D01*
X58552857Y-146109523D02*
X58648095Y-146157142D01*
X58648095Y-146157142D02*
X58933809Y-146157142D01*
X58933809Y-146157142D02*
X59029047Y-146109523D01*
X59029047Y-146109523D02*
X59076666Y-146061904D01*
X59076666Y-146061904D02*
X59124285Y-145966666D01*
X59124285Y-145966666D02*
X59124285Y-145776190D01*
X59124285Y-145776190D02*
X59076666Y-145680952D01*
X59124285Y-145204761D02*
X58457619Y-145204761D01*
X59029047Y-145204761D02*
X59076666Y-145157142D01*
X59076666Y-145157142D02*
X59124285Y-145061904D01*
X59124285Y-145061904D02*
X59124285Y-144919047D01*
X59124285Y-144919047D02*
X59076666Y-144823809D01*
X59076666Y-144823809D02*
X58981428Y-144776190D01*
X58981428Y-144776190D02*
X58457619Y-144776190D01*
X58505238Y-143919047D02*
X58457619Y-144014285D01*
X58457619Y-144014285D02*
X58457619Y-144204761D01*
X58457619Y-144204761D02*
X58505238Y-144299999D01*
X58505238Y-144299999D02*
X58600476Y-144347618D01*
X58600476Y-144347618D02*
X58981428Y-144347618D01*
X58981428Y-144347618D02*
X59076666Y-144299999D01*
X59076666Y-144299999D02*
X59124285Y-144204761D01*
X59124285Y-144204761D02*
X59124285Y-144014285D01*
X59124285Y-144014285D02*
X59076666Y-143919047D01*
X59076666Y-143919047D02*
X58981428Y-143871428D01*
X58981428Y-143871428D02*
X58886190Y-143871428D01*
X58886190Y-143871428D02*
X58790952Y-144347618D01*
X58457619Y-143014285D02*
X59457619Y-143014285D01*
X58505238Y-143014285D02*
X58457619Y-143109523D01*
X58457619Y-143109523D02*
X58457619Y-143299999D01*
X58457619Y-143299999D02*
X58505238Y-143395237D01*
X58505238Y-143395237D02*
X58552857Y-143442856D01*
X58552857Y-143442856D02*
X58648095Y-143490475D01*
X58648095Y-143490475D02*
X58933809Y-143490475D01*
X58933809Y-143490475D02*
X59029047Y-143442856D01*
X59029047Y-143442856D02*
X59076666Y-143395237D01*
X59076666Y-143395237D02*
X59124285Y-143299999D01*
X59124285Y-143299999D02*
X59124285Y-143109523D01*
X59124285Y-143109523D02*
X59076666Y-143014285D01*
X58457619Y-141938094D02*
X59457619Y-141938094D01*
X59076666Y-141938094D02*
X59124285Y-141842856D01*
X59124285Y-141842856D02*
X59124285Y-141652380D01*
X59124285Y-141652380D02*
X59076666Y-141557142D01*
X59076666Y-141557142D02*
X59029047Y-141509523D01*
X59029047Y-141509523D02*
X58933809Y-141461904D01*
X58933809Y-141461904D02*
X58648095Y-141461904D01*
X58648095Y-141461904D02*
X58552857Y-141509523D01*
X58552857Y-141509523D02*
X58505238Y-141557142D01*
X58505238Y-141557142D02*
X58457619Y-141652380D01*
X58457619Y-141652380D02*
X58457619Y-141842856D01*
X58457619Y-141842856D02*
X58505238Y-141938094D01*
X59124285Y-141128570D02*
X58457619Y-140890475D01*
X59124285Y-140652380D02*
X58457619Y-140890475D01*
X58457619Y-140890475D02*
X58219523Y-140985713D01*
X58219523Y-140985713D02*
X58171904Y-141033332D01*
X58171904Y-141033332D02*
X58124285Y-141128570D01*
X57837619Y-149300000D02*
X57123333Y-149300000D01*
X57123333Y-149300000D02*
X56980476Y-149347619D01*
X56980476Y-149347619D02*
X56885238Y-149442857D01*
X56885238Y-149442857D02*
X56837619Y-149585714D01*
X56837619Y-149585714D02*
X56837619Y-149680952D01*
X56837619Y-148395238D02*
X57361428Y-148395238D01*
X57361428Y-148395238D02*
X57456666Y-148442857D01*
X57456666Y-148442857D02*
X57504285Y-148538095D01*
X57504285Y-148538095D02*
X57504285Y-148728571D01*
X57504285Y-148728571D02*
X57456666Y-148823809D01*
X56885238Y-148395238D02*
X56837619Y-148490476D01*
X56837619Y-148490476D02*
X56837619Y-148728571D01*
X56837619Y-148728571D02*
X56885238Y-148823809D01*
X56885238Y-148823809D02*
X56980476Y-148871428D01*
X56980476Y-148871428D02*
X57075714Y-148871428D01*
X57075714Y-148871428D02*
X57170952Y-148823809D01*
X57170952Y-148823809D02*
X57218571Y-148728571D01*
X57218571Y-148728571D02*
X57218571Y-148490476D01*
X57218571Y-148490476D02*
X57266190Y-148395238D01*
X56885238Y-147966666D02*
X56837619Y-147871428D01*
X56837619Y-147871428D02*
X56837619Y-147680952D01*
X56837619Y-147680952D02*
X56885238Y-147585714D01*
X56885238Y-147585714D02*
X56980476Y-147538095D01*
X56980476Y-147538095D02*
X57028095Y-147538095D01*
X57028095Y-147538095D02*
X57123333Y-147585714D01*
X57123333Y-147585714D02*
X57170952Y-147680952D01*
X57170952Y-147680952D02*
X57170952Y-147823809D01*
X57170952Y-147823809D02*
X57218571Y-147919047D01*
X57218571Y-147919047D02*
X57313809Y-147966666D01*
X57313809Y-147966666D02*
X57361428Y-147966666D01*
X57361428Y-147966666D02*
X57456666Y-147919047D01*
X57456666Y-147919047D02*
X57504285Y-147823809D01*
X57504285Y-147823809D02*
X57504285Y-147680952D01*
X57504285Y-147680952D02*
X57456666Y-147585714D01*
X57504285Y-147109523D02*
X56504285Y-147109523D01*
X57456666Y-147109523D02*
X57504285Y-147014285D01*
X57504285Y-147014285D02*
X57504285Y-146823809D01*
X57504285Y-146823809D02*
X57456666Y-146728571D01*
X57456666Y-146728571D02*
X57409047Y-146680952D01*
X57409047Y-146680952D02*
X57313809Y-146633333D01*
X57313809Y-146633333D02*
X57028095Y-146633333D01*
X57028095Y-146633333D02*
X56932857Y-146680952D01*
X56932857Y-146680952D02*
X56885238Y-146728571D01*
X56885238Y-146728571D02*
X56837619Y-146823809D01*
X56837619Y-146823809D02*
X56837619Y-147014285D01*
X56837619Y-147014285D02*
X56885238Y-147109523D01*
X56885238Y-145823809D02*
X56837619Y-145919047D01*
X56837619Y-145919047D02*
X56837619Y-146109523D01*
X56837619Y-146109523D02*
X56885238Y-146204761D01*
X56885238Y-146204761D02*
X56980476Y-146252380D01*
X56980476Y-146252380D02*
X57361428Y-146252380D01*
X57361428Y-146252380D02*
X57456666Y-146204761D01*
X57456666Y-146204761D02*
X57504285Y-146109523D01*
X57504285Y-146109523D02*
X57504285Y-145919047D01*
X57504285Y-145919047D02*
X57456666Y-145823809D01*
X57456666Y-145823809D02*
X57361428Y-145776190D01*
X57361428Y-145776190D02*
X57266190Y-145776190D01*
X57266190Y-145776190D02*
X57170952Y-146252380D01*
X56837619Y-145347618D02*
X57504285Y-145347618D01*
X57313809Y-145347618D02*
X57409047Y-145299999D01*
X57409047Y-145299999D02*
X57456666Y-145252380D01*
X57456666Y-145252380D02*
X57504285Y-145157142D01*
X57504285Y-145157142D02*
X57504285Y-145061904D01*
X56837619Y-143557142D02*
X57313809Y-143890475D01*
X56837619Y-144128570D02*
X57837619Y-144128570D01*
X57837619Y-144128570D02*
X57837619Y-143747618D01*
X57837619Y-143747618D02*
X57790000Y-143652380D01*
X57790000Y-143652380D02*
X57742380Y-143604761D01*
X57742380Y-143604761D02*
X57647142Y-143557142D01*
X57647142Y-143557142D02*
X57504285Y-143557142D01*
X57504285Y-143557142D02*
X57409047Y-143604761D01*
X57409047Y-143604761D02*
X57361428Y-143652380D01*
X57361428Y-143652380D02*
X57313809Y-143747618D01*
X57313809Y-143747618D02*
X57313809Y-144128570D01*
X57504285Y-142699999D02*
X56837619Y-142699999D01*
X57504285Y-143128570D02*
X56980476Y-143128570D01*
X56980476Y-143128570D02*
X56885238Y-143080951D01*
X56885238Y-143080951D02*
X56837619Y-142985713D01*
X56837619Y-142985713D02*
X56837619Y-142842856D01*
X56837619Y-142842856D02*
X56885238Y-142747618D01*
X56885238Y-142747618D02*
X56932857Y-142699999D01*
X56837619Y-142223808D02*
X57837619Y-142223808D01*
X57456666Y-142223808D02*
X57504285Y-142128570D01*
X57504285Y-142128570D02*
X57504285Y-141938094D01*
X57504285Y-141938094D02*
X57456666Y-141842856D01*
X57456666Y-141842856D02*
X57409047Y-141795237D01*
X57409047Y-141795237D02*
X57313809Y-141747618D01*
X57313809Y-141747618D02*
X57028095Y-141747618D01*
X57028095Y-141747618D02*
X56932857Y-141795237D01*
X56932857Y-141795237D02*
X56885238Y-141842856D01*
X56885238Y-141842856D02*
X56837619Y-141938094D01*
X56837619Y-141938094D02*
X56837619Y-142128570D01*
X56837619Y-142128570D02*
X56885238Y-142223808D01*
X56837619Y-141319046D02*
X57504285Y-141319046D01*
X57837619Y-141319046D02*
X57790000Y-141366665D01*
X57790000Y-141366665D02*
X57742380Y-141319046D01*
X57742380Y-141319046D02*
X57790000Y-141271427D01*
X57790000Y-141271427D02*
X57837619Y-141319046D01*
X57837619Y-141319046D02*
X57742380Y-141319046D01*
X57504285Y-140842856D02*
X56837619Y-140842856D01*
X57409047Y-140842856D02*
X57456666Y-140795237D01*
X57456666Y-140795237D02*
X57504285Y-140699999D01*
X57504285Y-140699999D02*
X57504285Y-140557142D01*
X57504285Y-140557142D02*
X57456666Y-140461904D01*
X57456666Y-140461904D02*
X57361428Y-140414285D01*
X57361428Y-140414285D02*
X56837619Y-140414285D01*
X55217619Y-147657142D02*
X55884285Y-147657142D01*
X56217619Y-147657142D02*
X56170000Y-147704761D01*
X56170000Y-147704761D02*
X56122380Y-147657142D01*
X56122380Y-147657142D02*
X56170000Y-147609523D01*
X56170000Y-147609523D02*
X56217619Y-147657142D01*
X56217619Y-147657142D02*
X56122380Y-147657142D01*
X55884285Y-147180952D02*
X55217619Y-147180952D01*
X55789047Y-147180952D02*
X55836666Y-147133333D01*
X55836666Y-147133333D02*
X55884285Y-147038095D01*
X55884285Y-147038095D02*
X55884285Y-146895238D01*
X55884285Y-146895238D02*
X55836666Y-146800000D01*
X55836666Y-146800000D02*
X55741428Y-146752381D01*
X55741428Y-146752381D02*
X55217619Y-146752381D01*
X56122380Y-145723809D02*
X56170000Y-145676190D01*
X56170000Y-145676190D02*
X56217619Y-145580952D01*
X56217619Y-145580952D02*
X56217619Y-145342857D01*
X56217619Y-145342857D02*
X56170000Y-145247619D01*
X56170000Y-145247619D02*
X56122380Y-145200000D01*
X56122380Y-145200000D02*
X56027142Y-145152381D01*
X56027142Y-145152381D02*
X55931904Y-145152381D01*
X55931904Y-145152381D02*
X55789047Y-145200000D01*
X55789047Y-145200000D02*
X55217619Y-145771428D01*
X55217619Y-145771428D02*
X55217619Y-145152381D01*
X56217619Y-144533333D02*
X56217619Y-144438095D01*
X56217619Y-144438095D02*
X56170000Y-144342857D01*
X56170000Y-144342857D02*
X56122380Y-144295238D01*
X56122380Y-144295238D02*
X56027142Y-144247619D01*
X56027142Y-144247619D02*
X55836666Y-144200000D01*
X55836666Y-144200000D02*
X55598571Y-144200000D01*
X55598571Y-144200000D02*
X55408095Y-144247619D01*
X55408095Y-144247619D02*
X55312857Y-144295238D01*
X55312857Y-144295238D02*
X55265238Y-144342857D01*
X55265238Y-144342857D02*
X55217619Y-144438095D01*
X55217619Y-144438095D02*
X55217619Y-144533333D01*
X55217619Y-144533333D02*
X55265238Y-144628571D01*
X55265238Y-144628571D02*
X55312857Y-144676190D01*
X55312857Y-144676190D02*
X55408095Y-144723809D01*
X55408095Y-144723809D02*
X55598571Y-144771428D01*
X55598571Y-144771428D02*
X55836666Y-144771428D01*
X55836666Y-144771428D02*
X56027142Y-144723809D01*
X56027142Y-144723809D02*
X56122380Y-144676190D01*
X56122380Y-144676190D02*
X56170000Y-144628571D01*
X56170000Y-144628571D02*
X56217619Y-144533333D01*
X56122380Y-143819047D02*
X56170000Y-143771428D01*
X56170000Y-143771428D02*
X56217619Y-143676190D01*
X56217619Y-143676190D02*
X56217619Y-143438095D01*
X56217619Y-143438095D02*
X56170000Y-143342857D01*
X56170000Y-143342857D02*
X56122380Y-143295238D01*
X56122380Y-143295238D02*
X56027142Y-143247619D01*
X56027142Y-143247619D02*
X55931904Y-143247619D01*
X55931904Y-143247619D02*
X55789047Y-143295238D01*
X55789047Y-143295238D02*
X55217619Y-143866666D01*
X55217619Y-143866666D02*
X55217619Y-143247619D01*
X56217619Y-142914285D02*
X56217619Y-142295238D01*
X56217619Y-142295238D02*
X55836666Y-142628571D01*
X55836666Y-142628571D02*
X55836666Y-142485714D01*
X55836666Y-142485714D02*
X55789047Y-142390476D01*
X55789047Y-142390476D02*
X55741428Y-142342857D01*
X55741428Y-142342857D02*
X55646190Y-142295238D01*
X55646190Y-142295238D02*
X55408095Y-142295238D01*
X55408095Y-142295238D02*
X55312857Y-142342857D01*
X55312857Y-142342857D02*
X55265238Y-142390476D01*
X55265238Y-142390476D02*
X55217619Y-142485714D01*
X55217619Y-142485714D02*
X55217619Y-142771428D01*
X55217619Y-142771428D02*
X55265238Y-142866666D01*
X55265238Y-142866666D02*
X55312857Y-142914285D01*
G36*
X86205951Y-148731190D02*
G01*
X86049711Y-148731190D01*
X86034798Y-148728440D01*
X86028086Y-148731190D01*
X85917705Y-148731190D01*
X85849187Y-148696931D01*
X85818780Y-148666524D01*
X85784523Y-148598009D01*
X85784523Y-148490563D01*
X85818782Y-148422045D01*
X85849188Y-148391638D01*
X85917704Y-148357380D01*
X86205951Y-148357380D01*
X86205951Y-148731190D01*
G37*
G36*
X93776894Y-148921666D02*
G01*
X93508818Y-148921666D01*
X93642856Y-148519551D01*
X93776894Y-148921666D01*
G37*
G36*
X97186904Y-149207380D02*
G01*
X96898658Y-149207380D01*
X96830140Y-149173121D01*
X96799733Y-149142714D01*
X96765476Y-149074199D01*
X96765476Y-148966753D01*
X96799735Y-148898235D01*
X96826227Y-148871742D01*
X96934129Y-148835775D01*
X96936962Y-148836285D01*
X96943506Y-148833571D01*
X97186904Y-148833571D01*
X97186904Y-149207380D01*
G37*
G36*
X97186904Y-148683571D02*
G01*
X96946277Y-148683571D01*
X96877759Y-148649312D01*
X96847352Y-148618905D01*
X96813095Y-148550390D01*
X96813095Y-148490563D01*
X96847354Y-148422045D01*
X96877760Y-148391638D01*
X96946276Y-148357380D01*
X97186904Y-148357380D01*
X97186904Y-148683571D01*
G37*
G36*
X83379381Y-148391639D02*
G01*
X83409787Y-148422045D01*
X83448281Y-148499031D01*
X83491665Y-148672567D01*
X83491665Y-148892194D01*
X83448281Y-149065726D01*
X83409787Y-149142715D01*
X83379380Y-149173122D01*
X83310865Y-149207380D01*
X83251038Y-149207380D01*
X83182520Y-149173121D01*
X83152113Y-149142714D01*
X83113620Y-149065728D01*
X83070237Y-148892194D01*
X83070237Y-148672568D01*
X83113620Y-148499034D01*
X83152115Y-148422045D01*
X83182521Y-148391638D01*
X83251037Y-148357380D01*
X83310864Y-148357380D01*
X83379381Y-148391639D01*
G37*
G36*
X99186904Y-148731190D02*
G01*
X98898658Y-148731190D01*
X98830140Y-148696931D01*
X98799733Y-148666524D01*
X98765476Y-148598009D01*
X98765476Y-148490563D01*
X98799735Y-148422045D01*
X98830141Y-148391638D01*
X98898657Y-148357380D01*
X99186904Y-148357380D01*
X99186904Y-148731190D01*
G37*
G36*
X99867857Y-149867857D02*
G01*
X82261904Y-149867857D01*
X82261904Y-149388743D01*
X95660725Y-149388743D01*
X95679021Y-149428807D01*
X95716073Y-149452619D01*
X96510782Y-149452619D01*
X96542260Y-149443376D01*
X96571102Y-149410090D01*
X96577370Y-149366495D01*
X96559074Y-149326431D01*
X96522022Y-149302619D01*
X95727313Y-149302619D01*
X95695835Y-149311862D01*
X95666993Y-149345148D01*
X95660725Y-149388743D01*
X82261904Y-149388743D01*
X82261904Y-148898254D01*
X82917135Y-148898254D01*
X82920237Y-148910662D01*
X82920237Y-148912210D01*
X82922841Y-148921079D01*
X82966855Y-149097134D01*
X82965925Y-149105748D01*
X82972091Y-149118081D01*
X82972710Y-149120554D01*
X82976892Y-149127681D01*
X83019187Y-149212271D01*
X83021870Y-149224603D01*
X83036497Y-149239230D01*
X83050559Y-149254348D01*
X83051977Y-149254710D01*
X83078412Y-149281145D01*
X83084856Y-149291995D01*
X83103365Y-149301249D01*
X83121479Y-149311140D01*
X83122937Y-149311035D01*
X83196183Y-149347658D01*
X83211310Y-149357380D01*
X83226640Y-149357380D01*
X83241723Y-149360094D01*
X83248267Y-149357380D01*
X83324530Y-149357380D01*
X83342414Y-149359311D01*
X83356127Y-149352454D01*
X83370830Y-149348137D01*
X83375468Y-149342783D01*
X83448937Y-149306048D01*
X83461269Y-149303366D01*
X83475896Y-149288738D01*
X83491014Y-149274677D01*
X83491376Y-149273258D01*
X83517811Y-149246823D01*
X83528661Y-149240380D01*
X83537915Y-149221870D01*
X83547806Y-149203757D01*
X83547701Y-149202298D01*
X83580154Y-149137393D01*
X83586466Y-149131459D01*
X83589810Y-149118081D01*
X83590950Y-149115802D01*
X83592413Y-149107669D01*
X83636432Y-148931591D01*
X83641665Y-148923450D01*
X83641665Y-148910662D01*
X83642041Y-148909158D01*
X83641665Y-148899912D01*
X83641665Y-148675676D01*
X83644767Y-148666507D01*
X83641665Y-148654099D01*
X83641665Y-148652551D01*
X83639060Y-148643681D01*
X83595046Y-148467624D01*
X83595976Y-148459013D01*
X83589810Y-148446682D01*
X83589192Y-148444207D01*
X83585004Y-148437068D01*
X83542714Y-148352488D01*
X83540032Y-148340158D01*
X83525412Y-148325538D01*
X83511343Y-148310413D01*
X83509924Y-148310050D01*
X83485079Y-148285205D01*
X83774265Y-148285205D01*
X84110272Y-149293229D01*
X84109967Y-149301677D01*
X84117099Y-149313710D01*
X84117971Y-149316325D01*
X84122579Y-149322956D01*
X84132424Y-149339565D01*
X84135030Y-149340871D01*
X84136694Y-149343265D01*
X84154536Y-149350645D01*
X84171800Y-149359297D01*
X84174699Y-149358986D01*
X84177393Y-149360101D01*
X84196380Y-149356666D01*
X84215593Y-149354610D01*
X84217866Y-149352779D01*
X84220733Y-149352261D01*
X84234851Y-149339104D01*
X84249900Y-149326989D01*
X84250822Y-149324222D01*
X84252955Y-149322235D01*
X84257721Y-149303524D01*
X84261061Y-149293504D01*
X84727391Y-149293504D01*
X84745687Y-149333568D01*
X84782739Y-149357380D01*
X85275591Y-149357380D01*
X85292075Y-149359750D01*
X85307227Y-149352830D01*
X85323211Y-149348137D01*
X85326947Y-149343824D01*
X85332139Y-149341454D01*
X85341146Y-149327437D01*
X85352053Y-149314851D01*
X85352864Y-149309204D01*
X85355951Y-149304402D01*
X85355951Y-149287740D01*
X85357166Y-149279292D01*
X85631418Y-149279292D01*
X85642147Y-149322008D01*
X85674267Y-149352143D01*
X85717581Y-149360130D01*
X85758337Y-149343431D01*
X86081905Y-148881190D01*
X86205951Y-148881190D01*
X86205951Y-149293162D01*
X86215194Y-149324640D01*
X86248480Y-149353482D01*
X86292075Y-149359750D01*
X86332139Y-149341454D01*
X86355951Y-149304402D01*
X86355951Y-148811549D01*
X86358321Y-148795066D01*
X86355951Y-148789876D01*
X86355951Y-148293504D01*
X87136915Y-148293504D01*
X87155211Y-148333568D01*
X87192263Y-148357380D01*
X87424999Y-148357380D01*
X87424999Y-149293162D01*
X87434242Y-149324640D01*
X87467528Y-149353482D01*
X87511123Y-149359750D01*
X87551187Y-149341454D01*
X87574999Y-149304402D01*
X87574999Y-148769695D01*
X88041677Y-148769695D01*
X88044047Y-148774885D01*
X88044047Y-149293162D01*
X88053290Y-149324640D01*
X88086576Y-149353482D01*
X88130171Y-149359750D01*
X88170235Y-149341454D01*
X88194047Y-149304402D01*
X88194047Y-148833571D01*
X88615475Y-148833571D01*
X88615475Y-149293162D01*
X88624718Y-149324640D01*
X88658004Y-149353482D01*
X88701599Y-149359750D01*
X88741663Y-149341454D01*
X88765475Y-149304402D01*
X88765475Y-149181566D01*
X89041080Y-149181566D01*
X89044047Y-149195205D01*
X89044047Y-149197924D01*
X89046328Y-149205695D01*
X89050442Y-149224603D01*
X89052478Y-149226639D01*
X89053290Y-149229402D01*
X89067903Y-149242064D01*
X89110778Y-149284939D01*
X89122057Y-149298948D01*
X89136600Y-149303796D01*
X89150051Y-149311140D01*
X89157116Y-149310634D01*
X89276886Y-149350558D01*
X89287501Y-149357380D01*
X89308180Y-149357380D01*
X89328820Y-149358126D01*
X89330079Y-149357380D01*
X89395359Y-149357380D01*
X89407586Y-149360495D01*
X89427198Y-149353957D01*
X89447021Y-149348137D01*
X89447979Y-149347030D01*
X89567505Y-149307188D01*
X89585079Y-149303366D01*
X89595282Y-149293162D01*
X90091665Y-149293162D01*
X90100908Y-149324640D01*
X90134194Y-149353482D01*
X90177789Y-149359750D01*
X90217853Y-149341454D01*
X90241665Y-149304402D01*
X90241665Y-149293504D01*
X90422629Y-149293504D01*
X90440925Y-149333568D01*
X90477977Y-149357380D01*
X90970829Y-149357380D01*
X90987313Y-149359750D01*
X91002465Y-149352830D01*
X91018449Y-149348137D01*
X91022185Y-149343824D01*
X91027377Y-149341454D01*
X91036384Y-149327437D01*
X91047291Y-149314851D01*
X91048102Y-149309204D01*
X91051189Y-149304402D01*
X91051189Y-149287740D01*
X91053559Y-149271256D01*
X91051189Y-149266066D01*
X91051189Y-148769695D01*
X91375010Y-148769695D01*
X91377380Y-148774885D01*
X91377380Y-149293162D01*
X91386623Y-149324640D01*
X91419909Y-149353482D01*
X91463504Y-149359750D01*
X91503568Y-149341454D01*
X91527380Y-149304402D01*
X91527380Y-148833571D01*
X91948808Y-148833571D01*
X91948808Y-149293162D01*
X91958051Y-149324640D01*
X91991337Y-149353482D01*
X92034932Y-149359750D01*
X92074996Y-149341454D01*
X92098808Y-149304402D01*
X92098808Y-148763931D01*
X92101178Y-148747447D01*
X92098808Y-148742257D01*
X92098808Y-148321680D01*
X92374658Y-148321680D01*
X92382498Y-148365020D01*
X92412525Y-148397242D01*
X92455206Y-148408115D01*
X92607407Y-148357380D01*
X92815626Y-148357380D01*
X92884143Y-148391639D01*
X92914549Y-148422045D01*
X92948808Y-148490561D01*
X92948808Y-148550389D01*
X92914549Y-148618906D01*
X92884142Y-148649313D01*
X92807156Y-148687806D01*
X92637623Y-148730189D01*
X92629012Y-148729260D01*
X92616681Y-148735425D01*
X92614206Y-148736044D01*
X92607067Y-148740231D01*
X92522487Y-148782521D01*
X92510157Y-148785204D01*
X92495537Y-148799823D01*
X92480412Y-148813893D01*
X92480049Y-148815311D01*
X92453614Y-148841746D01*
X92442765Y-148848190D01*
X92433514Y-148866690D01*
X92423619Y-148884813D01*
X92423723Y-148886273D01*
X92387103Y-148959514D01*
X92377380Y-148974644D01*
X92377380Y-148989974D01*
X92374666Y-149005057D01*
X92377380Y-149011601D01*
X92377380Y-149087864D01*
X92375449Y-149105748D01*
X92382305Y-149119461D01*
X92386623Y-149134164D01*
X92391976Y-149138802D01*
X92428711Y-149212271D01*
X92431394Y-149224603D01*
X92446021Y-149239230D01*
X92460083Y-149254348D01*
X92461501Y-149254710D01*
X92487936Y-149281145D01*
X92494380Y-149291995D01*
X92512889Y-149301249D01*
X92531003Y-149311140D01*
X92532461Y-149311035D01*
X92605707Y-149347658D01*
X92620834Y-149357380D01*
X92636164Y-149357380D01*
X92651247Y-149360094D01*
X92657791Y-149357380D01*
X92871549Y-149357380D01*
X92883776Y-149360495D01*
X92903388Y-149353957D01*
X92923211Y-149348137D01*
X92924169Y-149347030D01*
X93057753Y-149302503D01*
X93058942Y-149301677D01*
X93233777Y-149301677D01*
X93256234Y-149339565D01*
X93295610Y-149359297D01*
X93339403Y-149354610D01*
X93373710Y-149326989D01*
X93458818Y-149071666D01*
X93826894Y-149071666D01*
X93908447Y-149316325D01*
X93927170Y-149343265D01*
X93967869Y-149360101D01*
X94011209Y-149352261D01*
X94043431Y-149322235D01*
X94050750Y-149293504D01*
X94089296Y-149293504D01*
X94107592Y-149333568D01*
X94144644Y-149357380D01*
X94637496Y-149357380D01*
X94653980Y-149359750D01*
X94669132Y-149352830D01*
X94685116Y-149348137D01*
X94688852Y-149343824D01*
X94694044Y-149341454D01*
X94703051Y-149327437D01*
X94713958Y-149314851D01*
X94714769Y-149309204D01*
X94717856Y-149304402D01*
X94717856Y-149287740D01*
X94720226Y-149271256D01*
X94717856Y-149266066D01*
X94717856Y-148293504D01*
X94946439Y-148293504D01*
X94964735Y-148333568D01*
X95001787Y-148357380D01*
X95424999Y-148357380D01*
X95424999Y-148683571D01*
X95155884Y-148683571D01*
X95124406Y-148692814D01*
X95095564Y-148726100D01*
X95089296Y-148769695D01*
X95107592Y-148809759D01*
X95144644Y-148833571D01*
X95424999Y-148833571D01*
X95424999Y-149293162D01*
X95434242Y-149324640D01*
X95467528Y-149353482D01*
X95511123Y-149359750D01*
X95551187Y-149341454D01*
X95574999Y-149304402D01*
X95574999Y-148957438D01*
X96612762Y-148957438D01*
X96615476Y-148963982D01*
X96615476Y-149087864D01*
X96613545Y-149105748D01*
X96620401Y-149119461D01*
X96624719Y-149134164D01*
X96630072Y-149138802D01*
X96666807Y-149212271D01*
X96669490Y-149224603D01*
X96684117Y-149239230D01*
X96698179Y-149254348D01*
X96699597Y-149254710D01*
X96726032Y-149281145D01*
X96732476Y-149291995D01*
X96750985Y-149301249D01*
X96769099Y-149311140D01*
X96770557Y-149311035D01*
X96843803Y-149347658D01*
X96858930Y-149357380D01*
X96874260Y-149357380D01*
X96889343Y-149360094D01*
X96895887Y-149357380D01*
X97256544Y-149357380D01*
X97273028Y-149359750D01*
X97288180Y-149352830D01*
X97304164Y-149348137D01*
X97307900Y-149343824D01*
X97313092Y-149341454D01*
X97322099Y-149327437D01*
X97333006Y-149314851D01*
X97333817Y-149309204D01*
X97336904Y-149304402D01*
X97336904Y-149287740D01*
X97339274Y-149271256D01*
X97336904Y-149266066D01*
X97336904Y-149181566D01*
X97612509Y-149181566D01*
X97621871Y-149224603D01*
X97682207Y-149284939D01*
X97693486Y-149298948D01*
X97708029Y-149303796D01*
X97721480Y-149311140D01*
X97728545Y-149310634D01*
X97848315Y-149350558D01*
X97858930Y-149357380D01*
X97879609Y-149357380D01*
X97900249Y-149358126D01*
X97901508Y-149357380D01*
X97966788Y-149357380D01*
X97979015Y-149360495D01*
X97998627Y-149353957D01*
X98018450Y-149348137D01*
X98019408Y-149347030D01*
X98138934Y-149307188D01*
X98156508Y-149303366D01*
X98167348Y-149292525D01*
X98179932Y-149283780D01*
X98182639Y-149277234D01*
X98260669Y-149199204D01*
X98271519Y-149192761D01*
X98280769Y-149174259D01*
X98290665Y-149156138D01*
X98290560Y-149154677D01*
X98323012Y-149089774D01*
X98329324Y-149083840D01*
X98332668Y-149070462D01*
X98333808Y-149068183D01*
X98335271Y-149060050D01*
X98379290Y-148883972D01*
X98384523Y-148875831D01*
X98384523Y-148863043D01*
X98384899Y-148861539D01*
X98384523Y-148852293D01*
X98384523Y-148723295D01*
X98387625Y-148714126D01*
X98384523Y-148701718D01*
X98384523Y-148700170D01*
X98381918Y-148691300D01*
X98337904Y-148515243D01*
X98338834Y-148506632D01*
X98332668Y-148494301D01*
X98332050Y-148491826D01*
X98327862Y-148484687D01*
X98326142Y-148481248D01*
X98612762Y-148481248D01*
X98615476Y-148487792D01*
X98615476Y-148611674D01*
X98613545Y-148629558D01*
X98620401Y-148643271D01*
X98624719Y-148657974D01*
X98630072Y-148662612D01*
X98666807Y-148736081D01*
X98669490Y-148748413D01*
X98684117Y-148763040D01*
X98698179Y-148778158D01*
X98699597Y-148778520D01*
X98726032Y-148804955D01*
X98732476Y-148815805D01*
X98750985Y-148825059D01*
X98769099Y-148834950D01*
X98770557Y-148834845D01*
X98843803Y-148871468D01*
X98858930Y-148881190D01*
X98874260Y-148881190D01*
X98889343Y-148883904D01*
X98895887Y-148881190D01*
X99186904Y-148881190D01*
X99186904Y-149293162D01*
X99196147Y-149324640D01*
X99229433Y-149353482D01*
X99273028Y-149359750D01*
X99313092Y-149341454D01*
X99336904Y-149304402D01*
X99336904Y-148811549D01*
X99339274Y-148795066D01*
X99336904Y-148789876D01*
X99336904Y-148287740D01*
X99339274Y-148271256D01*
X99332354Y-148256103D01*
X99327661Y-148240120D01*
X99323348Y-148236383D01*
X99320978Y-148231192D01*
X99306961Y-148222184D01*
X99294375Y-148211278D01*
X99288728Y-148210466D01*
X99283926Y-148207380D01*
X99267264Y-148207380D01*
X99250780Y-148205010D01*
X99245590Y-148207380D01*
X98884992Y-148207380D01*
X98867108Y-148205449D01*
X98853394Y-148212305D01*
X98838692Y-148216623D01*
X98834052Y-148221976D01*
X98760582Y-148258712D01*
X98748253Y-148261395D01*
X98733628Y-148276019D01*
X98718508Y-148290085D01*
X98718145Y-148291502D01*
X98691710Y-148317937D01*
X98680861Y-148324381D01*
X98671610Y-148342881D01*
X98661715Y-148361004D01*
X98661819Y-148362464D01*
X98625199Y-148435705D01*
X98615476Y-148450835D01*
X98615476Y-148466165D01*
X98612762Y-148481248D01*
X98326142Y-148481248D01*
X98285572Y-148400107D01*
X98282890Y-148387777D01*
X98268270Y-148373157D01*
X98254201Y-148358032D01*
X98252782Y-148357669D01*
X98174937Y-148279824D01*
X98163657Y-148265813D01*
X98149112Y-148260964D01*
X98135662Y-148253620D01*
X98128595Y-148254125D01*
X98008826Y-148214201D01*
X97998212Y-148207380D01*
X97977533Y-148207380D01*
X97956893Y-148206634D01*
X97955634Y-148207380D01*
X97890354Y-148207380D01*
X97878127Y-148204265D01*
X97858519Y-148210800D01*
X97838692Y-148216623D01*
X97837732Y-148217730D01*
X97718212Y-148257571D01*
X97700634Y-148261395D01*
X97689792Y-148272236D01*
X97677209Y-148280982D01*
X97674501Y-148287527D01*
X97629819Y-148332210D01*
X97614096Y-148361004D01*
X97617239Y-148404935D01*
X97643633Y-148440194D01*
X97684900Y-148455586D01*
X97727937Y-148446224D01*
X97778609Y-148395551D01*
X97893122Y-148357380D01*
X97964019Y-148357380D01*
X98078533Y-148395552D01*
X98152645Y-148469664D01*
X98191139Y-148546650D01*
X98234523Y-148720186D01*
X98234523Y-148844575D01*
X98191139Y-149018107D01*
X98152645Y-149095096D01*
X98078533Y-149169208D01*
X97964018Y-149207380D01*
X97893122Y-149207380D01*
X97778608Y-149169208D01*
X97735885Y-149126485D01*
X97707091Y-149110762D01*
X97663160Y-149113905D01*
X97627901Y-149140299D01*
X97612509Y-149181566D01*
X97336904Y-149181566D01*
X97336904Y-148763931D01*
X97339274Y-148747447D01*
X97336904Y-148742257D01*
X97336904Y-148287740D01*
X97339274Y-148271256D01*
X97332354Y-148256103D01*
X97327661Y-148240120D01*
X97323348Y-148236383D01*
X97320978Y-148231192D01*
X97306961Y-148222184D01*
X97294375Y-148211278D01*
X97288728Y-148210466D01*
X97283926Y-148207380D01*
X97267264Y-148207380D01*
X97250780Y-148205010D01*
X97245590Y-148207380D01*
X96932611Y-148207380D01*
X96914727Y-148205449D01*
X96901013Y-148212305D01*
X96886311Y-148216623D01*
X96881671Y-148221976D01*
X96808201Y-148258712D01*
X96795872Y-148261395D01*
X96781247Y-148276019D01*
X96766127Y-148290085D01*
X96765764Y-148291502D01*
X96739329Y-148317937D01*
X96728480Y-148324381D01*
X96719229Y-148342881D01*
X96709334Y-148361004D01*
X96709438Y-148362464D01*
X96672818Y-148435705D01*
X96663095Y-148450835D01*
X96663095Y-148466165D01*
X96660381Y-148481248D01*
X96663095Y-148487792D01*
X96663095Y-148564055D01*
X96661164Y-148581939D01*
X96668020Y-148595652D01*
X96672338Y-148610355D01*
X96677691Y-148614993D01*
X96714426Y-148688462D01*
X96717109Y-148700794D01*
X96731736Y-148715421D01*
X96745798Y-148730539D01*
X96747216Y-148730901D01*
X96752891Y-148736576D01*
X96748253Y-148737585D01*
X96737414Y-148748423D01*
X96724828Y-148757171D01*
X96722119Y-148763718D01*
X96691710Y-148794127D01*
X96680861Y-148800571D01*
X96671610Y-148819071D01*
X96661715Y-148837194D01*
X96661819Y-148838654D01*
X96625199Y-148911895D01*
X96615476Y-148927025D01*
X96615476Y-148942355D01*
X96612762Y-148957438D01*
X95574999Y-148957438D01*
X95574999Y-148763931D01*
X95577369Y-148747447D01*
X95574999Y-148742257D01*
X95574999Y-148287740D01*
X95577369Y-148271256D01*
X95570449Y-148256103D01*
X95565756Y-148240120D01*
X95561443Y-148236383D01*
X95559073Y-148231192D01*
X95545056Y-148222184D01*
X95532470Y-148211278D01*
X95526823Y-148210466D01*
X95522021Y-148207380D01*
X95505359Y-148207380D01*
X95488875Y-148205010D01*
X95483685Y-148207380D01*
X95013027Y-148207380D01*
X94981549Y-148216623D01*
X94952707Y-148249909D01*
X94946439Y-148293504D01*
X94717856Y-148293504D01*
X94717856Y-148271598D01*
X94708613Y-148240120D01*
X94675327Y-148211278D01*
X94631732Y-148205010D01*
X94591668Y-148223306D01*
X94567856Y-148260358D01*
X94567856Y-149207380D01*
X94155884Y-149207380D01*
X94124406Y-149216623D01*
X94095564Y-149249909D01*
X94089296Y-149293504D01*
X94050750Y-149293504D01*
X94054304Y-149279554D01*
X93957712Y-148989777D01*
X93958321Y-148985542D01*
X93950838Y-148969157D01*
X93718296Y-148271530D01*
X93718602Y-148263083D01*
X93711470Y-148251050D01*
X93710598Y-148248434D01*
X93705985Y-148241796D01*
X93696145Y-148225195D01*
X93693539Y-148223889D01*
X93691875Y-148221494D01*
X93674021Y-148214108D01*
X93656769Y-148205463D01*
X93653871Y-148205773D01*
X93651176Y-148204658D01*
X93632168Y-148208096D01*
X93612975Y-148210151D01*
X93610704Y-148211979D01*
X93607836Y-148212498D01*
X93593712Y-148225659D01*
X93578669Y-148237771D01*
X93577746Y-148240537D01*
X93575614Y-148242525D01*
X93570846Y-148261237D01*
X93338321Y-148958814D01*
X93333659Y-148964195D01*
X93331483Y-148979328D01*
X93234962Y-149268892D01*
X93233777Y-149301677D01*
X93058942Y-149301677D01*
X93084693Y-149283780D01*
X93101529Y-149243081D01*
X93093689Y-149199741D01*
X93063663Y-149167519D01*
X93020982Y-149156646D01*
X92868779Y-149207380D01*
X92660562Y-149207380D01*
X92592044Y-149173121D01*
X92561637Y-149142714D01*
X92527380Y-149074199D01*
X92527380Y-149014372D01*
X92561639Y-148945854D01*
X92592044Y-148915448D01*
X92669030Y-148876954D01*
X92838562Y-148834571D01*
X92847176Y-148835502D01*
X92859509Y-148829335D01*
X92861982Y-148828717D01*
X92869109Y-148824534D01*
X92953699Y-148782239D01*
X92966031Y-148779557D01*
X92980658Y-148764929D01*
X92995776Y-148750868D01*
X92996138Y-148749449D01*
X93022573Y-148723014D01*
X93033423Y-148716571D01*
X93042677Y-148698061D01*
X93052568Y-148679948D01*
X93052463Y-148678489D01*
X93089086Y-148605243D01*
X93098808Y-148590117D01*
X93098808Y-148574787D01*
X93101522Y-148559704D01*
X93098808Y-148553160D01*
X93098808Y-148476888D01*
X93100738Y-148459013D01*
X93093883Y-148445303D01*
X93089565Y-148430597D01*
X93084210Y-148425957D01*
X93047476Y-148352488D01*
X93044794Y-148340158D01*
X93030174Y-148325538D01*
X93016105Y-148310413D01*
X93014686Y-148310050D01*
X92988253Y-148283617D01*
X92981809Y-148272767D01*
X92963312Y-148263518D01*
X92945185Y-148253620D01*
X92943724Y-148253724D01*
X92870481Y-148217101D01*
X92855354Y-148207380D01*
X92840025Y-148207380D01*
X92824942Y-148204666D01*
X92818398Y-148207380D01*
X92604639Y-148207380D01*
X92592412Y-148204265D01*
X92572804Y-148210800D01*
X92552977Y-148216623D01*
X92552017Y-148217730D01*
X92418434Y-148262259D01*
X92391494Y-148280982D01*
X92374658Y-148321680D01*
X92098808Y-148321680D01*
X92098808Y-148271598D01*
X92089565Y-148240120D01*
X92056279Y-148211278D01*
X92012684Y-148205010D01*
X91972620Y-148223306D01*
X91948808Y-148260358D01*
X91948808Y-148683571D01*
X91527380Y-148683571D01*
X91527380Y-148271598D01*
X91518137Y-148240120D01*
X91484851Y-148211278D01*
X91441256Y-148205010D01*
X91401192Y-148223306D01*
X91377380Y-148260358D01*
X91377380Y-148753211D01*
X91375010Y-148769695D01*
X91051189Y-148769695D01*
X91051189Y-148271598D01*
X91041946Y-148240120D01*
X91008660Y-148211278D01*
X90965065Y-148205010D01*
X90925001Y-148223306D01*
X90901189Y-148260358D01*
X90901189Y-149207380D01*
X90489217Y-149207380D01*
X90457739Y-149216623D01*
X90428897Y-149249909D01*
X90422629Y-149293504D01*
X90241665Y-149293504D01*
X90241665Y-148271598D01*
X90232422Y-148240120D01*
X90199136Y-148211278D01*
X90155541Y-148205010D01*
X90115477Y-148223306D01*
X90091665Y-148260358D01*
X90091665Y-149293162D01*
X89595282Y-149293162D01*
X89595919Y-149292525D01*
X89608503Y-149283780D01*
X89611210Y-149277234D01*
X89689240Y-149199204D01*
X89700090Y-149192761D01*
X89709340Y-149174259D01*
X89719236Y-149156138D01*
X89719131Y-149154677D01*
X89751583Y-149089774D01*
X89757895Y-149083840D01*
X89761239Y-149070462D01*
X89762379Y-149068183D01*
X89763842Y-149060050D01*
X89807861Y-148883972D01*
X89813094Y-148875831D01*
X89813094Y-148863043D01*
X89813470Y-148861539D01*
X89813094Y-148852293D01*
X89813094Y-148723295D01*
X89816196Y-148714126D01*
X89813094Y-148701718D01*
X89813094Y-148700170D01*
X89810489Y-148691300D01*
X89766475Y-148515243D01*
X89767405Y-148506632D01*
X89761239Y-148494301D01*
X89760621Y-148491826D01*
X89756433Y-148484687D01*
X89714143Y-148400107D01*
X89711461Y-148387777D01*
X89696841Y-148373157D01*
X89682772Y-148358032D01*
X89681353Y-148357669D01*
X89603508Y-148279824D01*
X89592228Y-148265813D01*
X89577683Y-148260964D01*
X89564233Y-148253620D01*
X89557166Y-148254125D01*
X89437397Y-148214201D01*
X89426783Y-148207380D01*
X89406104Y-148207380D01*
X89385464Y-148206634D01*
X89384205Y-148207380D01*
X89265944Y-148207380D01*
X89248060Y-148205449D01*
X89234346Y-148212305D01*
X89219644Y-148216623D01*
X89215004Y-148221976D01*
X89123481Y-148267740D01*
X89099460Y-148290085D01*
X89088549Y-148332755D01*
X89102439Y-148374551D01*
X89136721Y-148402203D01*
X89180511Y-148406930D01*
X89279609Y-148357380D01*
X89392590Y-148357380D01*
X89507104Y-148395552D01*
X89581216Y-148469664D01*
X89619710Y-148546650D01*
X89663094Y-148720186D01*
X89663094Y-148844575D01*
X89619710Y-149018107D01*
X89581216Y-149095096D01*
X89507104Y-149169208D01*
X89392589Y-149207380D01*
X89321693Y-149207380D01*
X89207179Y-149169208D01*
X89194047Y-149156076D01*
X89194047Y-148928809D01*
X89320305Y-148928809D01*
X89351783Y-148919566D01*
X89380625Y-148886280D01*
X89386893Y-148842685D01*
X89368597Y-148802621D01*
X89331545Y-148778809D01*
X89124407Y-148778809D01*
X89107923Y-148776439D01*
X89092770Y-148783358D01*
X89076787Y-148788052D01*
X89073050Y-148792364D01*
X89067859Y-148794735D01*
X89058851Y-148808751D01*
X89047945Y-148821338D01*
X89047133Y-148826984D01*
X89044047Y-148831787D01*
X89044047Y-148848449D01*
X89041677Y-148864933D01*
X89044047Y-148870123D01*
X89044047Y-149173611D01*
X89041080Y-149181566D01*
X88765475Y-149181566D01*
X88765475Y-148763931D01*
X88767845Y-148747447D01*
X88765475Y-148742257D01*
X88765475Y-148271598D01*
X88756232Y-148240120D01*
X88722946Y-148211278D01*
X88679351Y-148205010D01*
X88639287Y-148223306D01*
X88615475Y-148260358D01*
X88615475Y-148683571D01*
X88194047Y-148683571D01*
X88194047Y-148271598D01*
X88184804Y-148240120D01*
X88151518Y-148211278D01*
X88107923Y-148205010D01*
X88067859Y-148223306D01*
X88044047Y-148260358D01*
X88044047Y-148753211D01*
X88041677Y-148769695D01*
X87574999Y-148769695D01*
X87574999Y-148357380D01*
X87796495Y-148357380D01*
X87827973Y-148348137D01*
X87856815Y-148314851D01*
X87863083Y-148271256D01*
X87844787Y-148231192D01*
X87807735Y-148207380D01*
X87505359Y-148207380D01*
X87488875Y-148205010D01*
X87483685Y-148207380D01*
X87203503Y-148207380D01*
X87172025Y-148216623D01*
X87143183Y-148249909D01*
X87136915Y-148293504D01*
X86355951Y-148293504D01*
X86355951Y-148287740D01*
X86358321Y-148271256D01*
X86351401Y-148256103D01*
X86346708Y-148240120D01*
X86342395Y-148236383D01*
X86340025Y-148231192D01*
X86326008Y-148222184D01*
X86313422Y-148211278D01*
X86307775Y-148210466D01*
X86302973Y-148207380D01*
X86286311Y-148207380D01*
X86269827Y-148205010D01*
X86264637Y-148207380D01*
X85904039Y-148207380D01*
X85886155Y-148205449D01*
X85872441Y-148212305D01*
X85857739Y-148216623D01*
X85853099Y-148221976D01*
X85779629Y-148258712D01*
X85767300Y-148261395D01*
X85752675Y-148276019D01*
X85737555Y-148290085D01*
X85737192Y-148291502D01*
X85710757Y-148317937D01*
X85699908Y-148324381D01*
X85690657Y-148342881D01*
X85680762Y-148361004D01*
X85680866Y-148362464D01*
X85644246Y-148435705D01*
X85634523Y-148450835D01*
X85634523Y-148466165D01*
X85631809Y-148481248D01*
X85634523Y-148487792D01*
X85634523Y-148611674D01*
X85632592Y-148629558D01*
X85639448Y-148643271D01*
X85643766Y-148657974D01*
X85649119Y-148662612D01*
X85685854Y-148736081D01*
X85688537Y-148748413D01*
X85703164Y-148763040D01*
X85717226Y-148778158D01*
X85718644Y-148778520D01*
X85745079Y-148804955D01*
X85751523Y-148815805D01*
X85770032Y-148825059D01*
X85788146Y-148834950D01*
X85789604Y-148834845D01*
X85862850Y-148871468D01*
X85877977Y-148881190D01*
X85893307Y-148881190D01*
X85898191Y-148882068D01*
X85641898Y-149248203D01*
X85631418Y-149279292D01*
X85357166Y-149279292D01*
X85358321Y-149271256D01*
X85355951Y-149266066D01*
X85355951Y-148763931D01*
X85358321Y-148747447D01*
X85355951Y-148742257D01*
X85355951Y-148287740D01*
X85358321Y-148271256D01*
X85351401Y-148256103D01*
X85346708Y-148240120D01*
X85342395Y-148236383D01*
X85340025Y-148231192D01*
X85326008Y-148222184D01*
X85313422Y-148211278D01*
X85307775Y-148210466D01*
X85302973Y-148207380D01*
X85286311Y-148207380D01*
X85269827Y-148205010D01*
X85264637Y-148207380D01*
X84793979Y-148207380D01*
X84762501Y-148216623D01*
X84733659Y-148249909D01*
X84727391Y-148293504D01*
X84745687Y-148333568D01*
X84782739Y-148357380D01*
X85205951Y-148357380D01*
X85205951Y-148683571D01*
X84936836Y-148683571D01*
X84905358Y-148692814D01*
X84876516Y-148726100D01*
X84870248Y-148769695D01*
X84888544Y-148809759D01*
X84925596Y-148833571D01*
X85205951Y-148833571D01*
X85205951Y-149207380D01*
X84793979Y-149207380D01*
X84762501Y-149216623D01*
X84733659Y-149249909D01*
X84727391Y-149293504D01*
X84261061Y-149293504D01*
X84593607Y-148295869D01*
X84594792Y-148263083D01*
X84572335Y-148225195D01*
X84532959Y-148205463D01*
X84489165Y-148210151D01*
X84454859Y-148237771D01*
X84185713Y-149045208D01*
X83920122Y-148248434D01*
X83901399Y-148221494D01*
X83860700Y-148204658D01*
X83817360Y-148212498D01*
X83785138Y-148242525D01*
X83774265Y-148285205D01*
X83485079Y-148285205D01*
X83483491Y-148283617D01*
X83477047Y-148272767D01*
X83458550Y-148263518D01*
X83440423Y-148253620D01*
X83438962Y-148253724D01*
X83365719Y-148217101D01*
X83350592Y-148207380D01*
X83335263Y-148207380D01*
X83320180Y-148204666D01*
X83313636Y-148207380D01*
X83237372Y-148207380D01*
X83219488Y-148205449D01*
X83205774Y-148212305D01*
X83191072Y-148216623D01*
X83186432Y-148221976D01*
X83112962Y-148258712D01*
X83100633Y-148261395D01*
X83086008Y-148276019D01*
X83070888Y-148290085D01*
X83070525Y-148291502D01*
X83044090Y-148317937D01*
X83033241Y-148324381D01*
X83023990Y-148342881D01*
X83014095Y-148361004D01*
X83014199Y-148362464D01*
X82981747Y-148427368D01*
X82975436Y-148433303D01*
X82972091Y-148446680D01*
X82970952Y-148448960D01*
X82969488Y-148457092D01*
X82925469Y-148633169D01*
X82920237Y-148641311D01*
X82920237Y-148654099D01*
X82919861Y-148655603D01*
X82920237Y-148664849D01*
X82920237Y-148889085D01*
X82917135Y-148898254D01*
X82261904Y-148898254D01*
X82261904Y-147757143D01*
X99867857Y-147757143D01*
X99867857Y-149867857D01*
G37*
%TO.C,R4*%
X85867380Y-142833333D02*
X85391190Y-142500000D01*
X85867380Y-142261905D02*
X84867380Y-142261905D01*
X84867380Y-142261905D02*
X84867380Y-142642857D01*
X84867380Y-142642857D02*
X84915000Y-142738095D01*
X84915000Y-142738095D02*
X84962619Y-142785714D01*
X84962619Y-142785714D02*
X85057857Y-142833333D01*
X85057857Y-142833333D02*
X85200714Y-142833333D01*
X85200714Y-142833333D02*
X85295952Y-142785714D01*
X85295952Y-142785714D02*
X85343571Y-142738095D01*
X85343571Y-142738095D02*
X85391190Y-142642857D01*
X85391190Y-142642857D02*
X85391190Y-142261905D01*
X85200714Y-143690476D02*
X85867380Y-143690476D01*
X84819761Y-143452381D02*
X85534047Y-143214286D01*
X85534047Y-143214286D02*
X85534047Y-143833333D01*
%TO.C,R3*%
X91367380Y-142833333D02*
X90891190Y-142500000D01*
X91367380Y-142261905D02*
X90367380Y-142261905D01*
X90367380Y-142261905D02*
X90367380Y-142642857D01*
X90367380Y-142642857D02*
X90415000Y-142738095D01*
X90415000Y-142738095D02*
X90462619Y-142785714D01*
X90462619Y-142785714D02*
X90557857Y-142833333D01*
X90557857Y-142833333D02*
X90700714Y-142833333D01*
X90700714Y-142833333D02*
X90795952Y-142785714D01*
X90795952Y-142785714D02*
X90843571Y-142738095D01*
X90843571Y-142738095D02*
X90891190Y-142642857D01*
X90891190Y-142642857D02*
X90891190Y-142261905D01*
X90367380Y-143166667D02*
X90367380Y-143785714D01*
X90367380Y-143785714D02*
X90748333Y-143452381D01*
X90748333Y-143452381D02*
X90748333Y-143595238D01*
X90748333Y-143595238D02*
X90795952Y-143690476D01*
X90795952Y-143690476D02*
X90843571Y-143738095D01*
X90843571Y-143738095D02*
X90938809Y-143785714D01*
X90938809Y-143785714D02*
X91176904Y-143785714D01*
X91176904Y-143785714D02*
X91272142Y-143738095D01*
X91272142Y-143738095D02*
X91319761Y-143690476D01*
X91319761Y-143690476D02*
X91367380Y-143595238D01*
X91367380Y-143595238D02*
X91367380Y-143309524D01*
X91367380Y-143309524D02*
X91319761Y-143214286D01*
X91319761Y-143214286D02*
X91272142Y-143166667D01*
D11*
%TO.C,R4*%
X86265000Y-143227064D02*
X86265000Y-142772936D01*
X87735000Y-143227064D02*
X87735000Y-142772936D01*
%TO.C,R3*%
X89985000Y-142772936D02*
X89985000Y-143227064D01*
X88515000Y-142772936D02*
X88515000Y-143227064D01*
%TD*%
D12*
X50000000Y-140000000D02*
X50000000Y-150000000D01*
X100000000Y-140000000D02*
X50000000Y-140000000D01*
X100000000Y-150000000D02*
X100000000Y-140000000D01*
X50000000Y-150000000D02*
X100000000Y-150000000D01*
M02*
