%TF.GenerationSoftware,KiCad,Pcbnew,(7.0.0)*%
%TF.CreationDate,2023-10-09T18:08:34-02:30*%
%TF.ProjectId,PCB_Flashlight,5043425f-466c-4617-9368-6c696768742e,0*%
%TF.SameCoordinates,Original*%
%TF.FileFunction,Copper,L1,Top*%
%TF.FilePolarity,Positive*%
%FSLAX46Y46*%
G04 Gerber Fmt 4.6, Leading zero omitted, Abs format (unit mm)*
G04 Created by KiCad (PCBNEW (7.0.0)) date 2023-10-09 18:08:34*
%MOMM*%
%LPD*%
G01*
G04 APERTURE LIST*
G04 Aperture macros list*
%AMRoundRect*
0 Rectangle with rounded corners*
0 $1 Rounding radius*
0 $2 $3 $4 $5 $6 $7 $8 $9 X,Y pos of 4 corners*
0 Add a 4 corners polygon primitive as box body*
4,1,4,$2,$3,$4,$5,$6,$7,$8,$9,$2,$3,0*
0 Add four circle primitives for the rounded corners*
1,1,$1+$1,$2,$3*
1,1,$1+$1,$4,$5*
1,1,$1+$1,$6,$7*
1,1,$1+$1,$8,$9*
0 Add four rect primitives between the rounded corners*
20,1,$1+$1,$2,$3,$4,$5,0*
20,1,$1+$1,$4,$5,$6,$7,0*
20,1,$1+$1,$6,$7,$8,$9,0*
20,1,$1+$1,$8,$9,$2,$3,0*%
G04 Aperture macros list end*
%TA.AperFunction,SMDPad,CuDef*%
%ADD10R,0.600000X0.900000*%
%TD*%
%TA.AperFunction,SMDPad,CuDef*%
%ADD11R,0.700000X0.800000*%
%TD*%
%TA.AperFunction,ComponentPad*%
%ADD12C,2.000000*%
%TD*%
%TA.AperFunction,SMDPad,CuDef*%
%ADD13RoundRect,0.250000X0.350000X0.450000X-0.350000X0.450000X-0.350000X-0.450000X0.350000X-0.450000X0*%
%TD*%
%TA.AperFunction,SMDPad,CuDef*%
%ADD14RoundRect,0.250000X-0.350000X-0.450000X0.350000X-0.450000X0.350000X0.450000X-0.350000X0.450000X0*%
%TD*%
%TA.AperFunction,SMDPad,CuDef*%
%ADD15RoundRect,0.250000X-0.450000X0.350000X-0.450000X-0.350000X0.450000X-0.350000X0.450000X0.350000X0*%
%TD*%
%TA.AperFunction,SMDPad,CuDef*%
%ADD16R,1.900000X0.800000*%
%TD*%
%TA.AperFunction,ComponentPad*%
%ADD17R,1.700000X1.700000*%
%TD*%
%TA.AperFunction,ComponentPad*%
%ADD18O,1.700000X1.700000*%
%TD*%
%TA.AperFunction,ViaPad*%
%ADD19C,0.600000*%
%TD*%
%TA.AperFunction,Conductor*%
%ADD20C,0.250000*%
%TD*%
%TA.AperFunction,Profile*%
%ADD21C,0.100000*%
%TD*%
G04 APERTURE END LIST*
D10*
%TO.P,D1,*%
%TO.N,*%
X198499999Y-119999999D03*
D11*
%TO.P,D1,1,K*%
%TO.N,Net-(D1-K)*%
X198749999Y-118499999D03*
%TO.P,D1,2,A*%
%TO.N,Net-(D1-A)*%
X198749999Y-121499999D03*
%TD*%
D12*
%TO.P,SW2,1,1*%
%TO.N,GND*%
X171000000Y-116750000D03*
X171000000Y-123250000D03*
%TO.P,SW2,2,2*%
%TO.N,/BLINK_nON*%
X175500000Y-116750000D03*
X175500000Y-123250000D03*
%TD*%
%TO.P,SW1,1,1*%
%TO.N,+9V*%
X167750000Y-123250000D03*
X167750000Y-116750000D03*
%TO.P,SW1,2,2*%
%TO.N,Net-(R6-Pad1)*%
X163250000Y-123250000D03*
X163250000Y-116750000D03*
%TD*%
D13*
%TO.P,R8,1*%
%TO.N,+5V*%
X181500000Y-119750000D03*
%TO.P,R8,2*%
%TO.N,/BLINK_nON*%
X179500000Y-119750000D03*
%TD*%
D14*
%TO.P,R7,1*%
%TO.N,Net-(U1-OUT)*%
X184500000Y-117000000D03*
%TO.P,R7,2*%
%TO.N,/LED_ON*%
X186500000Y-117000000D03*
%TD*%
%TO.P,R6,2*%
%TO.N,/LED_ON*%
X186500000Y-119250000D03*
%TO.P,R6,1*%
%TO.N,Net-(R6-Pad1)*%
X184500000Y-119250000D03*
%TD*%
D15*
%TO.P,R2,1*%
%TO.N,/LED_ON*%
X190250000Y-117500000D03*
%TO.P,R2,2*%
%TO.N,GND*%
X190250000Y-119500000D03*
%TD*%
D14*
%TO.P,R1,1*%
%TO.N,+9V*%
X194250000Y-122000000D03*
%TO.P,R1,2*%
%TO.N,Net-(D1-A)*%
X196250000Y-122000000D03*
%TD*%
D16*
%TO.P,Q1,1,G*%
%TO.N,/LED_ON*%
X192999999Y-117549999D03*
%TO.P,Q1,2,S*%
%TO.N,GND*%
X192999999Y-119449999D03*
%TO.P,Q1,3,D*%
%TO.N,Net-(D1-K)*%
X195999999Y-118499999D03*
%TD*%
D17*
%TO.P,BT1,1,+*%
%TO.N,+9V*%
X152499999Y-121289999D03*
D18*
%TO.P,BT1,2,-*%
%TO.N,GND*%
X152499999Y-118749999D03*
%TD*%
D19*
%TO.N,GND*%
X188800000Y-116000000D03*
X188000000Y-122200000D03*
%TO.N,+5V*%
X183000000Y-119750000D03*
%TO.N,GND*%
X177800000Y-116600000D03*
X174000000Y-120000000D03*
X177800000Y-123400000D03*
%TO.N,Net-(U1-OUT)*%
X183200000Y-116600000D03*
%TO.N,/BLINK_nON*%
X177750000Y-120500000D03*
%TD*%
D20*
%TO.N,+5V*%
X181500000Y-119750000D02*
X183000000Y-119750000D01*
%TO.N,+9V*%
X155958000Y-124748000D02*
X152500000Y-121290000D01*
X166252000Y-124748000D02*
X155958000Y-124748000D01*
X167750000Y-123250000D02*
X166252000Y-124748000D01*
X169248000Y-124748000D02*
X167750000Y-123250000D01*
X193500000Y-122000000D02*
X190752000Y-124748000D01*
X190752000Y-124748000D02*
X169248000Y-124748000D01*
X194250000Y-122000000D02*
X193500000Y-122000000D01*
%TO.N,Net-(U1-OUT)*%
X183600000Y-117000000D02*
X184500000Y-117000000D01*
X183200000Y-116600000D02*
X183600000Y-117000000D01*
%TO.N,Net-(R6-Pad1)*%
X183750000Y-118500000D02*
X184500000Y-119250000D01*
X165000000Y-118500000D02*
X183750000Y-118500000D01*
X163250000Y-116750000D02*
X165000000Y-118500000D01*
X163250000Y-116750000D02*
X163250000Y-123250000D01*
%TO.N,Net-(D1-A)*%
X196750000Y-121500000D02*
X196250000Y-122000000D01*
X198750000Y-121500000D02*
X196750000Y-121500000D01*
%TO.N,Net-(D1-K)*%
X196000000Y-118500000D02*
X198750000Y-118500000D01*
%TO.N,/LED_ON*%
X190300000Y-117550000D02*
X193000000Y-117550000D01*
X190250000Y-117500000D02*
X190300000Y-117550000D01*
X188250000Y-117500000D02*
X190250000Y-117500000D01*
X187750000Y-117000000D02*
X188250000Y-117500000D01*
X186500000Y-117000000D02*
X187750000Y-117000000D01*
X186500000Y-117000000D02*
X186500000Y-119250000D01*
%TO.N,/BLINK_nON*%
X178500000Y-119750000D02*
X177750000Y-120500000D01*
X179500000Y-119750000D02*
X178500000Y-119750000D01*
%TD*%
%TA.AperFunction,Conductor*%
%TO.N,GND*%
G36*
X199810500Y-115144113D02*
G01*
X199855887Y-115189500D01*
X199872500Y-115251500D01*
X199872500Y-124748500D01*
X199855887Y-124810500D01*
X199810500Y-124855887D01*
X199748500Y-124872500D01*
X191811452Y-124872500D01*
X191755157Y-124858985D01*
X191711134Y-124821385D01*
X191688979Y-124767898D01*
X191693521Y-124710182D01*
X191723771Y-124660819D01*
X192442125Y-123942465D01*
X193306681Y-123077908D01*
X193353081Y-123048664D01*
X193407560Y-123042296D01*
X193459456Y-123060052D01*
X193488409Y-123077910D01*
X193580666Y-123134814D01*
X193747203Y-123189999D01*
X193849991Y-123200500D01*
X194650008Y-123200499D01*
X194752797Y-123189999D01*
X194919334Y-123134814D01*
X195068656Y-123042712D01*
X195162318Y-122949049D01*
X195217906Y-122916955D01*
X195282094Y-122916955D01*
X195337681Y-122949049D01*
X195431344Y-123042712D01*
X195437485Y-123046500D01*
X195437488Y-123046502D01*
X195488409Y-123077910D01*
X195580666Y-123134814D01*
X195747203Y-123189999D01*
X195849991Y-123200500D01*
X196650008Y-123200499D01*
X196752797Y-123189999D01*
X196919334Y-123134814D01*
X197068656Y-123042712D01*
X197192712Y-122918656D01*
X197284814Y-122769334D01*
X197339999Y-122602797D01*
X197350500Y-122500009D01*
X197350500Y-122249500D01*
X197367113Y-122187500D01*
X197412500Y-122142113D01*
X197474500Y-122125500D01*
X197881535Y-122125500D01*
X197937039Y-122138616D01*
X197980800Y-122175187D01*
X198042454Y-122257546D01*
X198157669Y-122343796D01*
X198292517Y-122394091D01*
X198352127Y-122400500D01*
X199147872Y-122400499D01*
X199207483Y-122394091D01*
X199342331Y-122343796D01*
X199457546Y-122257546D01*
X199543796Y-122142331D01*
X199594091Y-122007483D01*
X199600500Y-121947873D01*
X199600499Y-121052128D01*
X199594091Y-120992517D01*
X199543796Y-120857669D01*
X199457546Y-120742454D01*
X199399564Y-120699049D01*
X199344387Y-120657743D01*
X199305002Y-120607965D01*
X199295409Y-120545221D01*
X199300500Y-120497873D01*
X199300499Y-119502128D01*
X199295409Y-119454777D01*
X199305002Y-119392033D01*
X199344385Y-119342258D01*
X199457546Y-119257546D01*
X199543796Y-119142331D01*
X199594091Y-119007483D01*
X199600500Y-118947873D01*
X199600499Y-118052128D01*
X199594091Y-117992517D01*
X199543796Y-117857669D01*
X199457546Y-117742454D01*
X199421835Y-117715721D01*
X199349431Y-117661519D01*
X199349430Y-117661518D01*
X199342331Y-117656204D01*
X199271965Y-117629959D01*
X199214752Y-117608620D01*
X199214750Y-117608619D01*
X199207483Y-117605909D01*
X199199770Y-117605079D01*
X199199767Y-117605079D01*
X199151180Y-117599855D01*
X199151169Y-117599854D01*
X199147873Y-117599500D01*
X199144550Y-117599500D01*
X198355439Y-117599500D01*
X198355420Y-117599500D01*
X198352128Y-117599501D01*
X198348850Y-117599853D01*
X198348838Y-117599854D01*
X198300231Y-117605079D01*
X198300225Y-117605080D01*
X198292517Y-117605909D01*
X198285252Y-117608618D01*
X198285246Y-117608620D01*
X198165980Y-117653104D01*
X198165978Y-117653104D01*
X198157669Y-117656204D01*
X198150572Y-117661516D01*
X198150568Y-117661519D01*
X198049550Y-117737141D01*
X198049546Y-117737144D01*
X198042454Y-117742454D01*
X198037144Y-117749546D01*
X198037141Y-117749550D01*
X198007630Y-117788973D01*
X197985588Y-117818418D01*
X197980802Y-117824811D01*
X197937039Y-117861384D01*
X197881535Y-117874500D01*
X197468465Y-117874500D01*
X197412961Y-117861384D01*
X197369198Y-117824811D01*
X197364412Y-117818418D01*
X197307546Y-117742454D01*
X197271835Y-117715721D01*
X197199431Y-117661519D01*
X197199430Y-117661518D01*
X197192331Y-117656204D01*
X197121965Y-117629959D01*
X197064752Y-117608620D01*
X197064750Y-117608619D01*
X197057483Y-117605909D01*
X197049770Y-117605079D01*
X197049767Y-117605079D01*
X197001180Y-117599855D01*
X197001169Y-117599854D01*
X196997873Y-117599500D01*
X196994550Y-117599500D01*
X195005439Y-117599500D01*
X195005420Y-117599500D01*
X195002128Y-117599501D01*
X194998850Y-117599853D01*
X194998838Y-117599854D01*
X194950231Y-117605079D01*
X194950225Y-117605080D01*
X194942517Y-117605909D01*
X194935252Y-117608618D01*
X194935246Y-117608620D01*
X194815980Y-117653104D01*
X194815978Y-117653104D01*
X194807669Y-117656204D01*
X194800572Y-117661516D01*
X194800568Y-117661519D01*
X194699550Y-117737141D01*
X194699546Y-117737144D01*
X194692454Y-117742454D01*
X194687144Y-117749546D01*
X194687138Y-117749553D01*
X194673764Y-117767419D01*
X194626008Y-117805901D01*
X194565651Y-117816790D01*
X194507459Y-117797421D01*
X194465667Y-117752532D01*
X194450499Y-117693108D01*
X194450499Y-117102128D01*
X194444091Y-117042517D01*
X194393796Y-116907669D01*
X194307546Y-116792454D01*
X194298689Y-116785824D01*
X194199431Y-116711519D01*
X194199430Y-116711518D01*
X194192331Y-116706204D01*
X194057483Y-116655909D01*
X194049770Y-116655079D01*
X194049767Y-116655079D01*
X194001180Y-116649855D01*
X194001169Y-116649854D01*
X193997873Y-116649500D01*
X193994550Y-116649500D01*
X192005439Y-116649500D01*
X192005420Y-116649500D01*
X192002128Y-116649501D01*
X191998850Y-116649853D01*
X191998838Y-116649854D01*
X191950231Y-116655079D01*
X191950225Y-116655080D01*
X191942517Y-116655909D01*
X191935252Y-116658618D01*
X191935246Y-116658620D01*
X191815980Y-116703104D01*
X191815978Y-116703104D01*
X191807669Y-116706204D01*
X191800572Y-116711516D01*
X191800568Y-116711519D01*
X191699550Y-116787141D01*
X191699546Y-116787144D01*
X191692454Y-116792454D01*
X191687144Y-116799546D01*
X191687141Y-116799550D01*
X191653891Y-116843968D01*
X191631035Y-116874500D01*
X191630802Y-116874811D01*
X191587039Y-116911384D01*
X191531535Y-116924500D01*
X191505449Y-116924500D01*
X191455235Y-116913878D01*
X191413624Y-116883832D01*
X191390349Y-116843968D01*
X191390138Y-116844067D01*
X191389071Y-116841780D01*
X191387745Y-116839508D01*
X191387088Y-116837528D01*
X191387087Y-116837527D01*
X191384814Y-116830666D01*
X191306134Y-116703104D01*
X191296502Y-116687488D01*
X191296500Y-116687485D01*
X191292712Y-116681344D01*
X191168656Y-116557288D01*
X191162515Y-116553500D01*
X191162511Y-116553497D01*
X191046804Y-116482130D01*
X191019334Y-116465186D01*
X191010033Y-116462104D01*
X190859225Y-116412131D01*
X190859224Y-116412130D01*
X190852797Y-116410001D01*
X190846064Y-116409313D01*
X190846059Y-116409312D01*
X190753140Y-116399819D01*
X190753123Y-116399818D01*
X190750009Y-116399500D01*
X190746860Y-116399500D01*
X189753140Y-116399500D01*
X189753120Y-116399500D01*
X189749992Y-116399501D01*
X189746860Y-116399820D01*
X189746858Y-116399821D01*
X189653938Y-116409312D01*
X189653928Y-116409313D01*
X189647203Y-116410001D01*
X189640781Y-116412128D01*
X189640776Y-116412130D01*
X189487521Y-116462914D01*
X189487517Y-116462915D01*
X189480666Y-116465186D01*
X189474522Y-116468975D01*
X189474519Y-116468977D01*
X189337488Y-116553497D01*
X189337480Y-116553503D01*
X189331344Y-116557288D01*
X189326242Y-116562389D01*
X189326238Y-116562393D01*
X189212393Y-116676238D01*
X189212389Y-116676242D01*
X189207288Y-116681344D01*
X189134379Y-116799550D01*
X189124481Y-116815597D01*
X189079374Y-116858777D01*
X189018942Y-116874500D01*
X188560452Y-116874500D01*
X188512999Y-116865061D01*
X188472771Y-116838181D01*
X188247291Y-116612701D01*
X188239841Y-116604514D01*
X188235786Y-116598123D01*
X188186775Y-116552098D01*
X188183978Y-116549387D01*
X188167227Y-116532636D01*
X188164471Y-116529880D01*
X188161290Y-116527412D01*
X188152414Y-116519830D01*
X188126269Y-116495278D01*
X188126267Y-116495276D01*
X188120582Y-116489938D01*
X188113749Y-116486182D01*
X188113743Y-116486177D01*
X188103025Y-116480285D01*
X188086766Y-116469606D01*
X188077095Y-116462104D01*
X188077092Y-116462102D01*
X188070936Y-116457327D01*
X188063779Y-116454229D01*
X188063776Y-116454228D01*
X188030849Y-116439978D01*
X188020363Y-116434841D01*
X187988932Y-116417562D01*
X187988923Y-116417558D01*
X187982092Y-116413803D01*
X187974535Y-116411862D01*
X187974531Y-116411861D01*
X187962688Y-116408820D01*
X187944284Y-116402519D01*
X187933057Y-116397660D01*
X187933050Y-116397658D01*
X187925896Y-116394562D01*
X187918192Y-116393341D01*
X187918190Y-116393341D01*
X187882759Y-116387729D01*
X187871324Y-116385361D01*
X187836571Y-116376438D01*
X187836563Y-116376437D01*
X187829019Y-116374500D01*
X187821223Y-116374500D01*
X187808983Y-116374500D01*
X187789597Y-116372974D01*
X187769804Y-116369840D01*
X187762038Y-116370574D01*
X187762035Y-116370574D01*
X187726324Y-116373950D01*
X187714655Y-116374500D01*
X187672017Y-116374500D01*
X187621802Y-116363877D01*
X187580190Y-116333829D01*
X187554311Y-116289504D01*
X187537085Y-116237520D01*
X187534814Y-116230666D01*
X187442712Y-116081344D01*
X187318656Y-115957288D01*
X187312515Y-115953500D01*
X187312511Y-115953497D01*
X187175480Y-115868977D01*
X187169334Y-115865186D01*
X187016772Y-115814632D01*
X187009225Y-115812131D01*
X187009224Y-115812130D01*
X187002797Y-115810001D01*
X186996064Y-115809313D01*
X186996059Y-115809312D01*
X186903140Y-115799819D01*
X186903123Y-115799818D01*
X186900009Y-115799500D01*
X186896860Y-115799500D01*
X186103141Y-115799500D01*
X186103121Y-115799500D01*
X186099992Y-115799501D01*
X186096860Y-115799820D01*
X186096858Y-115799821D01*
X186003938Y-115809312D01*
X186003928Y-115809313D01*
X185997203Y-115810001D01*
X185990781Y-115812128D01*
X185990776Y-115812130D01*
X185837521Y-115862914D01*
X185837517Y-115862915D01*
X185830666Y-115865186D01*
X185824522Y-115868975D01*
X185824519Y-115868977D01*
X185687488Y-115953497D01*
X185687480Y-115953503D01*
X185681344Y-115957288D01*
X185676242Y-115962389D01*
X185676238Y-115962393D01*
X185587681Y-116050951D01*
X185532094Y-116083045D01*
X185467906Y-116083045D01*
X185412319Y-116050951D01*
X185323761Y-115962393D01*
X185318656Y-115957288D01*
X185312515Y-115953500D01*
X185312511Y-115953497D01*
X185175480Y-115868977D01*
X185169334Y-115865186D01*
X185016772Y-115814632D01*
X185009225Y-115812131D01*
X185009224Y-115812130D01*
X185002797Y-115810001D01*
X184996064Y-115809313D01*
X184996059Y-115809312D01*
X184903140Y-115799819D01*
X184903123Y-115799818D01*
X184900009Y-115799500D01*
X184896860Y-115799500D01*
X184103141Y-115799500D01*
X184103121Y-115799500D01*
X184099992Y-115799501D01*
X184096860Y-115799820D01*
X184096858Y-115799821D01*
X184003938Y-115809312D01*
X184003928Y-115809313D01*
X183997203Y-115810001D01*
X183990781Y-115812128D01*
X183990776Y-115812130D01*
X183837521Y-115862914D01*
X183837517Y-115862915D01*
X183830666Y-115865186D01*
X183824525Y-115868973D01*
X183824520Y-115868976D01*
X183747245Y-115916639D01*
X183681634Y-115935098D01*
X183616179Y-115916093D01*
X183555417Y-115877914D01*
X183555409Y-115877910D01*
X183549522Y-115874211D01*
X183542959Y-115871914D01*
X183542956Y-115871913D01*
X183385824Y-115816930D01*
X183385819Y-115816928D01*
X183379255Y-115814632D01*
X183372335Y-115813852D01*
X183372334Y-115813852D01*
X183206923Y-115795215D01*
X183200000Y-115794435D01*
X183193077Y-115795215D01*
X183027665Y-115813852D01*
X183027662Y-115813852D01*
X183020745Y-115814632D01*
X183014182Y-115816928D01*
X183014175Y-115816930D01*
X182857043Y-115871913D01*
X182857036Y-115871915D01*
X182850478Y-115874211D01*
X182844590Y-115877910D01*
X182844587Y-115877912D01*
X182703638Y-115966476D01*
X182703633Y-115966479D01*
X182697738Y-115970184D01*
X182692813Y-115975108D01*
X182692809Y-115975112D01*
X182575112Y-116092809D01*
X182575108Y-116092813D01*
X182570184Y-116097738D01*
X182566479Y-116103633D01*
X182566476Y-116103638D01*
X182477912Y-116244587D01*
X182477910Y-116244590D01*
X182474211Y-116250478D01*
X182471915Y-116257036D01*
X182471913Y-116257043D01*
X182416930Y-116414175D01*
X182416928Y-116414182D01*
X182414632Y-116420745D01*
X182413852Y-116427662D01*
X182413852Y-116427665D01*
X182399247Y-116557288D01*
X182394435Y-116600000D01*
X182395215Y-116606923D01*
X182411335Y-116749999D01*
X182414632Y-116779255D01*
X182416928Y-116785819D01*
X182416930Y-116785824D01*
X182462474Y-116915980D01*
X182474211Y-116949522D01*
X182570184Y-117102262D01*
X182697738Y-117229816D01*
X182850478Y-117325789D01*
X183020745Y-117385368D01*
X183066028Y-117390469D01*
X183104178Y-117401136D01*
X183137024Y-117423297D01*
X183163224Y-117447901D01*
X183166020Y-117450611D01*
X183185529Y-117470120D01*
X183188709Y-117472587D01*
X183197571Y-117480155D01*
X183211020Y-117492785D01*
X183223732Y-117504723D01*
X183223734Y-117504724D01*
X183229418Y-117510062D01*
X183236251Y-117513818D01*
X183236252Y-117513819D01*
X183246973Y-117519713D01*
X183263234Y-117530394D01*
X183279064Y-117542673D01*
X183319155Y-117560021D01*
X183329633Y-117565155D01*
X183367909Y-117586198D01*
X183366960Y-117587923D01*
X183400267Y-117610478D01*
X183427840Y-117656632D01*
X183446020Y-117711496D01*
X183450871Y-117769363D01*
X183428844Y-117823093D01*
X183384769Y-117860903D01*
X183328314Y-117874500D01*
X176785829Y-117874500D01*
X176720168Y-117855688D01*
X176674429Y-117804961D01*
X176662490Y-117737709D01*
X176687509Y-117675495D01*
X176688164Y-117674785D01*
X176824173Y-117466607D01*
X176924063Y-117238881D01*
X176985108Y-116997821D01*
X177005643Y-116750000D01*
X176985108Y-116502179D01*
X176924063Y-116261119D01*
X176824173Y-116033393D01*
X176688164Y-115825215D01*
X176519744Y-115642262D01*
X176371333Y-115526749D01*
X176327559Y-115492678D01*
X176327557Y-115492676D01*
X176323509Y-115489526D01*
X176318997Y-115487084D01*
X176109316Y-115373610D01*
X176109310Y-115373607D01*
X176104810Y-115371172D01*
X176097845Y-115368781D01*
X176097078Y-115368242D01*
X176095264Y-115367447D01*
X176095424Y-115367082D01*
X176041528Y-115329271D01*
X176014938Y-115265821D01*
X176026261Y-115197963D01*
X176072012Y-115146584D01*
X176138108Y-115127500D01*
X199748500Y-115127500D01*
X199810500Y-115144113D01*
G37*
%TD.AperFunction*%
%TA.AperFunction,Conductor*%
G36*
X162677988Y-115146584D02*
G01*
X162723739Y-115197963D01*
X162735062Y-115265821D01*
X162708472Y-115329271D01*
X162654575Y-115367082D01*
X162654736Y-115367447D01*
X162652921Y-115368242D01*
X162652154Y-115368781D01*
X162651079Y-115369150D01*
X162650033Y-115369509D01*
X162650028Y-115369510D01*
X162645190Y-115371172D01*
X162640693Y-115373605D01*
X162640683Y-115373610D01*
X162431002Y-115487084D01*
X162430995Y-115487088D01*
X162426491Y-115489526D01*
X162422448Y-115492672D01*
X162422440Y-115492678D01*
X162234304Y-115639111D01*
X162230256Y-115642262D01*
X162226793Y-115646023D01*
X162226784Y-115646032D01*
X162065311Y-115821439D01*
X162065305Y-115821446D01*
X162061836Y-115825215D01*
X162059031Y-115829506D01*
X162059028Y-115829512D01*
X161928631Y-116029099D01*
X161928624Y-116029111D01*
X161925827Y-116033393D01*
X161923772Y-116038077D01*
X161923766Y-116038089D01*
X161827997Y-116256422D01*
X161825937Y-116261119D01*
X161824679Y-116266084D01*
X161824678Y-116266089D01*
X161766151Y-116497204D01*
X161766149Y-116497213D01*
X161764892Y-116502179D01*
X161764469Y-116507286D01*
X161764467Y-116507298D01*
X161744781Y-116744883D01*
X161744357Y-116750000D01*
X161744781Y-116755117D01*
X161764467Y-116992701D01*
X161764468Y-116992709D01*
X161764892Y-116997821D01*
X161766149Y-117002788D01*
X161766151Y-117002795D01*
X161792588Y-117107190D01*
X161825937Y-117238881D01*
X161827997Y-117243577D01*
X161923766Y-117461910D01*
X161923769Y-117461916D01*
X161925827Y-117466607D01*
X161928627Y-117470893D01*
X161928631Y-117470900D01*
X162012881Y-117599854D01*
X162061836Y-117674785D01*
X162065310Y-117678559D01*
X162065311Y-117678560D01*
X162226784Y-117853967D01*
X162226787Y-117853970D01*
X162230256Y-117857738D01*
X162426491Y-118010474D01*
X162485990Y-118042673D01*
X162559517Y-118082464D01*
X162607023Y-118128045D01*
X162624500Y-118191519D01*
X162624500Y-121808481D01*
X162607023Y-121871955D01*
X162559517Y-121917536D01*
X162431002Y-121987084D01*
X162430995Y-121987088D01*
X162426491Y-121989526D01*
X162422448Y-121992672D01*
X162422440Y-121992678D01*
X162234940Y-122138616D01*
X162230256Y-122142262D01*
X162226793Y-122146023D01*
X162226784Y-122146032D01*
X162065311Y-122321439D01*
X162065305Y-122321446D01*
X162061836Y-122325215D01*
X162059031Y-122329506D01*
X162059028Y-122329512D01*
X161928631Y-122529099D01*
X161928624Y-122529111D01*
X161925827Y-122533393D01*
X161923772Y-122538077D01*
X161923766Y-122538089D01*
X161827997Y-122756422D01*
X161825937Y-122761119D01*
X161824679Y-122766084D01*
X161824678Y-122766089D01*
X161766151Y-122997204D01*
X161766149Y-122997213D01*
X161764892Y-123002179D01*
X161764469Y-123007286D01*
X161764467Y-123007298D01*
X161753713Y-123137085D01*
X161744357Y-123250000D01*
X161744781Y-123255117D01*
X161764467Y-123492701D01*
X161764468Y-123492709D01*
X161764892Y-123497821D01*
X161766149Y-123502788D01*
X161766151Y-123502795D01*
X161818864Y-123710950D01*
X161825937Y-123738881D01*
X161827997Y-123743577D01*
X161917968Y-123948690D01*
X161927988Y-124008740D01*
X161908221Y-124066322D01*
X161863430Y-124107555D01*
X161804412Y-124122500D01*
X156268453Y-124122500D01*
X156221000Y-124113061D01*
X156180772Y-124086181D01*
X153886818Y-121792227D01*
X153859938Y-121751999D01*
X153850499Y-121704546D01*
X153850499Y-120395439D01*
X153850499Y-120392128D01*
X153844091Y-120332517D01*
X153793796Y-120197669D01*
X153707546Y-120082454D01*
X153698625Y-120075776D01*
X153599431Y-120001519D01*
X153599430Y-120001518D01*
X153592331Y-119996204D01*
X153542638Y-119977669D01*
X153460401Y-119946997D01*
X153410021Y-119912018D01*
X153382568Y-119857173D01*
X153384757Y-119795880D01*
X153416053Y-119743133D01*
X153534284Y-119624902D01*
X153541215Y-119616643D01*
X153670498Y-119432008D01*
X153675886Y-119422676D01*
X153771143Y-119218397D01*
X153774831Y-119208263D01*
X153826943Y-119013780D01*
X153827311Y-119002551D01*
X153816369Y-119000000D01*
X151183631Y-119000000D01*
X151172688Y-119002551D01*
X151173056Y-119013780D01*
X151225168Y-119208263D01*
X151228856Y-119218397D01*
X151324113Y-119422676D01*
X151329501Y-119432008D01*
X151458784Y-119616643D01*
X151465721Y-119624909D01*
X151583946Y-119743134D01*
X151615242Y-119795880D01*
X151617431Y-119857173D01*
X151589978Y-119912018D01*
X151539599Y-119946997D01*
X151432656Y-119986884D01*
X151407669Y-119996204D01*
X151400572Y-120001516D01*
X151400568Y-120001519D01*
X151299550Y-120077141D01*
X151299546Y-120077144D01*
X151292454Y-120082454D01*
X151287144Y-120089546D01*
X151287141Y-120089550D01*
X151211519Y-120190568D01*
X151211516Y-120190572D01*
X151206204Y-120197669D01*
X151203104Y-120205978D01*
X151203104Y-120205980D01*
X151158620Y-120325247D01*
X151158619Y-120325250D01*
X151155909Y-120332517D01*
X151155079Y-120340227D01*
X151155079Y-120340232D01*
X151149855Y-120388819D01*
X151149854Y-120388831D01*
X151149500Y-120392127D01*
X151149500Y-120395448D01*
X151149500Y-120395449D01*
X151149500Y-122184560D01*
X151149500Y-122184578D01*
X151149501Y-122187872D01*
X151149853Y-122191150D01*
X151149854Y-122191161D01*
X151155079Y-122239768D01*
X151155080Y-122239773D01*
X151155909Y-122247483D01*
X151158619Y-122254749D01*
X151158620Y-122254753D01*
X151159662Y-122257546D01*
X151206204Y-122382331D01*
X151211518Y-122389430D01*
X151211519Y-122389431D01*
X151219804Y-122400499D01*
X151292454Y-122497546D01*
X151407669Y-122583796D01*
X151542517Y-122634091D01*
X151602127Y-122640500D01*
X152914546Y-122640499D01*
X152961999Y-122649938D01*
X153002227Y-122676818D01*
X154986228Y-124660819D01*
X155016478Y-124710182D01*
X155021020Y-124767898D01*
X154998865Y-124821385D01*
X154954842Y-124858985D01*
X154898547Y-124872500D01*
X150251500Y-124872500D01*
X150189500Y-124855887D01*
X150144113Y-124810500D01*
X150127500Y-124748500D01*
X150127500Y-118497448D01*
X151172688Y-118497448D01*
X151183631Y-118500000D01*
X152233674Y-118500000D01*
X152246549Y-118496549D01*
X152250000Y-118483674D01*
X152750000Y-118483674D01*
X152753450Y-118496549D01*
X152766326Y-118500000D01*
X153816369Y-118500000D01*
X153827311Y-118497448D01*
X153826943Y-118486219D01*
X153774831Y-118291736D01*
X153771143Y-118281602D01*
X153675889Y-118077332D01*
X153670491Y-118067982D01*
X153541215Y-117883357D01*
X153534280Y-117875092D01*
X153374909Y-117715721D01*
X153366643Y-117708784D01*
X153182008Y-117579501D01*
X153172676Y-117574113D01*
X152968397Y-117478856D01*
X152958263Y-117475168D01*
X152763780Y-117423056D01*
X152752551Y-117422688D01*
X152750000Y-117433631D01*
X152750000Y-118483674D01*
X152250000Y-118483674D01*
X152250000Y-117433631D01*
X152247448Y-117422688D01*
X152236219Y-117423056D01*
X152041736Y-117475168D01*
X152031602Y-117478856D01*
X151827332Y-117574110D01*
X151817982Y-117579508D01*
X151633357Y-117708784D01*
X151625092Y-117715719D01*
X151465719Y-117875092D01*
X151458784Y-117883357D01*
X151329508Y-118067982D01*
X151324110Y-118077332D01*
X151228856Y-118281602D01*
X151225168Y-118291736D01*
X151173056Y-118486219D01*
X151172688Y-118497448D01*
X150127500Y-118497448D01*
X150127500Y-115251500D01*
X150144113Y-115189500D01*
X150189500Y-115144113D01*
X150251500Y-115127500D01*
X162611892Y-115127500D01*
X162677988Y-115146584D01*
G37*
%TD.AperFunction*%
%TA.AperFunction,Conductor*%
G36*
X187636858Y-117788973D02*
G01*
X187683828Y-117818418D01*
X187752707Y-117887297D01*
X187760156Y-117895483D01*
X187764214Y-117901877D01*
X187769899Y-117907215D01*
X187769901Y-117907218D01*
X187813239Y-117947915D01*
X187816035Y-117950625D01*
X187835530Y-117970120D01*
X187838615Y-117972513D01*
X187838701Y-117972580D01*
X187847573Y-117980158D01*
X187873732Y-118004723D01*
X187873734Y-118004724D01*
X187879418Y-118010062D01*
X187886251Y-118013818D01*
X187886252Y-118013819D01*
X187896973Y-118019713D01*
X187913234Y-118030394D01*
X187929064Y-118042673D01*
X187963289Y-118057483D01*
X187969140Y-118060015D01*
X187979636Y-118065156D01*
X188017908Y-118086197D01*
X188025458Y-118088135D01*
X188025467Y-118088139D01*
X188037312Y-118091180D01*
X188055716Y-118097480D01*
X188074105Y-118105438D01*
X188111697Y-118111391D01*
X188117239Y-118112269D01*
X188128682Y-118114639D01*
X188163425Y-118123560D01*
X188163426Y-118123560D01*
X188170981Y-118125500D01*
X188191017Y-118125500D01*
X188210402Y-118127025D01*
X188230196Y-118130160D01*
X188268276Y-118126560D01*
X188273676Y-118126050D01*
X188285345Y-118125500D01*
X189018942Y-118125500D01*
X189079374Y-118141223D01*
X189124479Y-118184402D01*
X189207288Y-118318656D01*
X189212393Y-118323761D01*
X189301304Y-118412672D01*
X189333398Y-118468259D01*
X189333398Y-118532446D01*
X189301305Y-118588034D01*
X189212790Y-118676549D01*
X189203890Y-118687805D01*
X189119432Y-118824733D01*
X189113370Y-118837732D01*
X189062624Y-118990874D01*
X189059805Y-119004041D01*
X189050319Y-119096890D01*
X189050000Y-119103168D01*
X189050000Y-119233674D01*
X189053450Y-119246549D01*
X189066326Y-119250000D01*
X190376000Y-119250000D01*
X190438000Y-119266613D01*
X190483387Y-119312000D01*
X190500000Y-119374000D01*
X190500000Y-120583673D01*
X190503450Y-120596548D01*
X190516326Y-120599999D01*
X190746829Y-120599999D01*
X190753111Y-120599678D01*
X190845959Y-120590194D01*
X190859122Y-120587376D01*
X191012267Y-120536629D01*
X191025266Y-120530567D01*
X191162194Y-120446109D01*
X191173455Y-120437205D01*
X191287205Y-120323455D01*
X191296109Y-120312194D01*
X191380567Y-120175266D01*
X191386631Y-120162263D01*
X191395573Y-120135278D01*
X191432821Y-120079926D01*
X191493362Y-120051890D01*
X191559669Y-120059284D01*
X191612546Y-120099969D01*
X191687498Y-120200092D01*
X191699907Y-120212501D01*
X191800810Y-120288037D01*
X191816222Y-120296452D01*
X191935358Y-120340888D01*
X191950332Y-120344426D01*
X191998885Y-120349646D01*
X192005482Y-120350000D01*
X192733674Y-120350000D01*
X192746549Y-120346549D01*
X192750000Y-120333674D01*
X193250000Y-120333674D01*
X193253450Y-120346549D01*
X193266326Y-120350000D01*
X193994518Y-120350000D01*
X194001114Y-120349646D01*
X194049667Y-120344426D01*
X194064641Y-120340888D01*
X194183777Y-120296452D01*
X194199189Y-120288037D01*
X194300092Y-120212501D01*
X194312501Y-120200092D01*
X194388037Y-120099189D01*
X194396452Y-120083777D01*
X194440888Y-119964641D01*
X194444426Y-119949667D01*
X194449646Y-119901114D01*
X194450000Y-119894518D01*
X194450000Y-119716326D01*
X194446549Y-119703450D01*
X194433674Y-119700000D01*
X193266326Y-119700000D01*
X193253450Y-119703450D01*
X193250000Y-119716326D01*
X193250000Y-120333674D01*
X192750000Y-120333674D01*
X192750000Y-119324000D01*
X192766613Y-119262000D01*
X192812000Y-119216613D01*
X192874000Y-119200000D01*
X194433674Y-119200000D01*
X194447812Y-119196211D01*
X194460271Y-119183753D01*
X194504618Y-119155252D01*
X194556797Y-119147749D01*
X194607378Y-119162600D01*
X194647219Y-119197121D01*
X194684773Y-119247286D01*
X194692454Y-119257546D01*
X194807669Y-119343796D01*
X194942517Y-119394091D01*
X195002127Y-119400500D01*
X196997872Y-119400499D01*
X197057483Y-119394091D01*
X197192331Y-119343796D01*
X197307546Y-119257546D01*
X197369199Y-119175187D01*
X197412961Y-119138616D01*
X197468465Y-119125500D01*
X197648123Y-119125500D01*
X197709483Y-119141746D01*
X197754765Y-119186226D01*
X197772103Y-119247286D01*
X197757781Y-119305561D01*
X197756204Y-119307669D01*
X197753107Y-119315971D01*
X197753106Y-119315974D01*
X197708620Y-119435247D01*
X197708619Y-119435250D01*
X197705909Y-119442517D01*
X197705079Y-119450227D01*
X197705079Y-119450232D01*
X197699855Y-119498819D01*
X197699855Y-119498824D01*
X197699500Y-119502127D01*
X197699500Y-119505448D01*
X197699500Y-119505449D01*
X197699500Y-120494560D01*
X197699500Y-120494578D01*
X197699501Y-120497872D01*
X197699853Y-120501150D01*
X197699854Y-120501161D01*
X197705079Y-120549768D01*
X197705080Y-120549773D01*
X197705909Y-120557483D01*
X197708619Y-120564749D01*
X197708620Y-120564753D01*
X197749278Y-120673761D01*
X197756204Y-120692331D01*
X197757781Y-120694438D01*
X197772103Y-120752714D01*
X197754765Y-120813774D01*
X197709483Y-120858254D01*
X197648123Y-120874500D01*
X196964814Y-120874500D01*
X196919571Y-120864469D01*
X196919334Y-120865186D01*
X196759225Y-120812131D01*
X196759224Y-120812130D01*
X196752797Y-120810001D01*
X196746064Y-120809313D01*
X196746059Y-120809312D01*
X196653140Y-120799819D01*
X196653123Y-120799818D01*
X196650009Y-120799500D01*
X196646860Y-120799500D01*
X195853141Y-120799500D01*
X195853121Y-120799500D01*
X195849992Y-120799501D01*
X195846860Y-120799820D01*
X195846858Y-120799821D01*
X195753938Y-120809312D01*
X195753928Y-120809313D01*
X195747203Y-120810001D01*
X195740781Y-120812128D01*
X195740776Y-120812130D01*
X195587521Y-120862914D01*
X195587517Y-120862915D01*
X195580666Y-120865186D01*
X195574522Y-120868975D01*
X195574519Y-120868977D01*
X195437488Y-120953497D01*
X195437480Y-120953503D01*
X195431344Y-120957288D01*
X195426242Y-120962389D01*
X195426238Y-120962393D01*
X195337681Y-121050951D01*
X195282094Y-121083045D01*
X195217906Y-121083045D01*
X195162319Y-121050951D01*
X195073761Y-120962393D01*
X195068656Y-120957288D01*
X195062515Y-120953500D01*
X195062511Y-120953497D01*
X194925480Y-120868977D01*
X194919334Y-120865186D01*
X194896649Y-120857669D01*
X194759225Y-120812131D01*
X194759224Y-120812130D01*
X194752797Y-120810001D01*
X194746064Y-120809313D01*
X194746059Y-120809312D01*
X194653140Y-120799819D01*
X194653123Y-120799818D01*
X194650009Y-120799500D01*
X194646860Y-120799500D01*
X193853141Y-120799500D01*
X193853121Y-120799500D01*
X193849992Y-120799501D01*
X193846860Y-120799820D01*
X193846858Y-120799821D01*
X193753938Y-120809312D01*
X193753928Y-120809313D01*
X193747203Y-120810001D01*
X193740781Y-120812128D01*
X193740776Y-120812130D01*
X193587521Y-120862914D01*
X193587517Y-120862915D01*
X193580666Y-120865186D01*
X193574522Y-120868975D01*
X193574519Y-120868977D01*
X193437488Y-120953497D01*
X193437480Y-120953503D01*
X193431344Y-120957288D01*
X193426242Y-120962389D01*
X193426238Y-120962393D01*
X193312393Y-121076238D01*
X193312389Y-121076242D01*
X193307288Y-121081344D01*
X193303503Y-121087480D01*
X193303497Y-121087488D01*
X193218977Y-121224519D01*
X193215186Y-121230666D01*
X193212915Y-121237517D01*
X193212914Y-121237521D01*
X193162129Y-121390780D01*
X193160001Y-121397203D01*
X193159314Y-121403925D01*
X193159311Y-121403940D01*
X193157645Y-121420248D01*
X193142725Y-121467785D01*
X193113554Y-121501812D01*
X193113576Y-121501834D01*
X193113301Y-121502108D01*
X193113295Y-121502114D01*
X193108071Y-121507337D01*
X193108064Y-121507344D01*
X193099410Y-121515998D01*
X193084627Y-121528624D01*
X193074726Y-121535817D01*
X193074716Y-121535826D01*
X193068413Y-121540406D01*
X193063444Y-121546411D01*
X193063441Y-121546415D01*
X193040572Y-121574059D01*
X193032711Y-121582697D01*
X190529228Y-124086181D01*
X190489000Y-124113061D01*
X190441547Y-124122500D01*
X176945588Y-124122500D01*
X176886570Y-124107555D01*
X176841779Y-124066322D01*
X176822012Y-124008740D01*
X176832032Y-123948690D01*
X176834763Y-123942465D01*
X176924063Y-123738881D01*
X176985108Y-123497821D01*
X177005643Y-123250000D01*
X176985108Y-123002179D01*
X176924063Y-122761119D01*
X176824173Y-122533393D01*
X176802362Y-122500009D01*
X176726553Y-122383974D01*
X176688164Y-122325215D01*
X176684688Y-122321439D01*
X176523215Y-122146032D01*
X176523211Y-122146029D01*
X176519744Y-122142262D01*
X176371333Y-122026749D01*
X176327559Y-121992678D01*
X176327557Y-121992676D01*
X176323509Y-121989526D01*
X176252652Y-121951180D01*
X176109316Y-121873610D01*
X176109310Y-121873607D01*
X176104810Y-121871172D01*
X176099969Y-121869510D01*
X176099962Y-121869507D01*
X175874465Y-121792094D01*
X175874461Y-121792093D01*
X175869614Y-121790429D01*
X175860768Y-121788952D01*
X175629398Y-121750344D01*
X175629387Y-121750343D01*
X175624335Y-121749500D01*
X175375665Y-121749500D01*
X175370613Y-121750343D01*
X175370601Y-121750344D01*
X175135443Y-121789585D01*
X175135441Y-121789585D01*
X175130386Y-121790429D01*
X175125541Y-121792092D01*
X175125534Y-121792094D01*
X174900037Y-121869507D01*
X174900026Y-121869511D01*
X174895190Y-121871172D01*
X174890693Y-121873605D01*
X174890683Y-121873610D01*
X174681002Y-121987084D01*
X174680995Y-121987088D01*
X174676491Y-121989526D01*
X174672448Y-121992672D01*
X174672440Y-121992678D01*
X174484940Y-122138616D01*
X174480256Y-122142262D01*
X174476793Y-122146023D01*
X174476784Y-122146032D01*
X174315311Y-122321439D01*
X174315305Y-122321446D01*
X174311836Y-122325215D01*
X174309031Y-122329506D01*
X174309028Y-122329512D01*
X174178631Y-122529099D01*
X174178624Y-122529111D01*
X174175827Y-122533393D01*
X174173772Y-122538077D01*
X174173766Y-122538089D01*
X174077997Y-122756422D01*
X174075937Y-122761119D01*
X174074679Y-122766084D01*
X174074678Y-122766089D01*
X174016151Y-122997204D01*
X174016149Y-122997213D01*
X174014892Y-123002179D01*
X174014469Y-123007286D01*
X174014467Y-123007298D01*
X174003713Y-123137085D01*
X173994357Y-123250000D01*
X173994781Y-123255117D01*
X174014467Y-123492701D01*
X174014468Y-123492709D01*
X174014892Y-123497821D01*
X174016149Y-123502788D01*
X174016151Y-123502795D01*
X174068864Y-123710950D01*
X174075937Y-123738881D01*
X174077997Y-123743577D01*
X174167968Y-123948690D01*
X174177988Y-124008740D01*
X174158221Y-124066322D01*
X174113430Y-124107555D01*
X174054412Y-124122500D01*
X172445042Y-124122500D01*
X172386025Y-124107555D01*
X172341233Y-124066322D01*
X172321466Y-124008740D01*
X172331486Y-123948690D01*
X172421527Y-123743414D01*
X172424846Y-123733747D01*
X172483353Y-123502712D01*
X172485037Y-123492618D01*
X172504717Y-123255117D01*
X172504717Y-123244883D01*
X172485037Y-123007381D01*
X172483353Y-122997287D01*
X172424846Y-122766252D01*
X172421527Y-122756585D01*
X172325792Y-122538330D01*
X172320924Y-122529335D01*
X172231002Y-122391699D01*
X172223034Y-122383974D01*
X172213653Y-122389898D01*
X171087680Y-123515871D01*
X171032093Y-123547965D01*
X170967905Y-123547965D01*
X170912318Y-123515871D01*
X169786345Y-122389898D01*
X169776964Y-122383974D01*
X169768997Y-122391699D01*
X169679072Y-122529338D01*
X169674207Y-122538328D01*
X169578472Y-122756585D01*
X169575153Y-122766252D01*
X169516646Y-122997287D01*
X169514962Y-123007381D01*
X169498826Y-123202113D01*
X169482386Y-123249999D01*
X169498826Y-123297886D01*
X169514962Y-123492618D01*
X169516646Y-123502712D01*
X169575153Y-123733747D01*
X169578472Y-123743414D01*
X169665783Y-123942465D01*
X169675004Y-124009646D01*
X169647509Y-124071631D01*
X169591519Y-124109885D01*
X169523778Y-124112967D01*
X169464546Y-124079956D01*
X169213661Y-123829071D01*
X169181791Y-123774308D01*
X169181136Y-123710950D01*
X169181136Y-123710949D01*
X169235108Y-123497821D01*
X169251675Y-123297879D01*
X169268112Y-123249999D01*
X169251675Y-123202119D01*
X169235108Y-123002179D01*
X169174063Y-122761119D01*
X169074173Y-122533393D01*
X169052362Y-122500009D01*
X168976553Y-122383974D01*
X168938164Y-122325215D01*
X168934688Y-122321439D01*
X168773215Y-122146032D01*
X168773211Y-122146029D01*
X168769744Y-122142262D01*
X168621333Y-122026749D01*
X170135748Y-122026749D01*
X170142408Y-122038855D01*
X170988457Y-122884904D01*
X170999999Y-122891568D01*
X171011542Y-122884904D01*
X171857590Y-122038855D01*
X171864250Y-122026749D01*
X171856143Y-122015559D01*
X171827286Y-121993099D01*
X171818719Y-121987503D01*
X171609114Y-121874070D01*
X171599760Y-121869967D01*
X171374343Y-121792582D01*
X171364431Y-121790071D01*
X171129356Y-121750844D01*
X171119161Y-121750000D01*
X170880839Y-121750000D01*
X170870643Y-121750844D01*
X170635568Y-121790071D01*
X170625656Y-121792582D01*
X170400239Y-121869967D01*
X170390885Y-121874070D01*
X170181276Y-121987504D01*
X170172717Y-121993096D01*
X170143854Y-122015560D01*
X170135748Y-122026749D01*
X168621333Y-122026749D01*
X168577559Y-121992678D01*
X168577557Y-121992676D01*
X168573509Y-121989526D01*
X168502652Y-121951180D01*
X168359316Y-121873610D01*
X168359310Y-121873607D01*
X168354810Y-121871172D01*
X168349969Y-121869510D01*
X168349962Y-121869507D01*
X168124465Y-121792094D01*
X168124461Y-121792093D01*
X168119614Y-121790429D01*
X168110768Y-121788952D01*
X167879398Y-121750344D01*
X167879387Y-121750343D01*
X167874335Y-121749500D01*
X167625665Y-121749500D01*
X167620613Y-121750343D01*
X167620601Y-121750344D01*
X167385443Y-121789585D01*
X167385441Y-121789585D01*
X167380386Y-121790429D01*
X167375541Y-121792092D01*
X167375534Y-121792094D01*
X167150037Y-121869507D01*
X167150026Y-121869511D01*
X167145190Y-121871172D01*
X167140693Y-121873605D01*
X167140683Y-121873610D01*
X166931002Y-121987084D01*
X166930995Y-121987088D01*
X166926491Y-121989526D01*
X166922448Y-121992672D01*
X166922440Y-121992678D01*
X166734940Y-122138616D01*
X166730256Y-122142262D01*
X166726793Y-122146023D01*
X166726784Y-122146032D01*
X166565311Y-122321439D01*
X166565305Y-122321446D01*
X166561836Y-122325215D01*
X166559031Y-122329506D01*
X166559028Y-122329512D01*
X166428631Y-122529099D01*
X166428624Y-122529111D01*
X166425827Y-122533393D01*
X166423772Y-122538077D01*
X166423766Y-122538089D01*
X166327997Y-122756422D01*
X166325937Y-122761119D01*
X166324679Y-122766084D01*
X166324678Y-122766089D01*
X166266151Y-122997204D01*
X166266149Y-122997213D01*
X166264892Y-123002179D01*
X166264469Y-123007286D01*
X166264467Y-123007298D01*
X166253713Y-123137085D01*
X166244357Y-123250000D01*
X166244781Y-123255117D01*
X166264467Y-123492701D01*
X166264468Y-123492709D01*
X166264892Y-123497821D01*
X166266149Y-123502788D01*
X166266151Y-123502795D01*
X166318863Y-123710949D01*
X166318208Y-123774307D01*
X166286338Y-123829070D01*
X166029228Y-124086181D01*
X165989000Y-124113061D01*
X165941547Y-124122500D01*
X164695588Y-124122500D01*
X164636570Y-124107555D01*
X164591779Y-124066322D01*
X164572012Y-124008740D01*
X164582032Y-123948690D01*
X164584763Y-123942465D01*
X164674063Y-123738881D01*
X164735108Y-123497821D01*
X164755643Y-123250000D01*
X164735108Y-123002179D01*
X164674063Y-122761119D01*
X164574173Y-122533393D01*
X164552362Y-122500009D01*
X164476553Y-122383974D01*
X164438164Y-122325215D01*
X164434688Y-122321439D01*
X164273215Y-122146032D01*
X164273211Y-122146029D01*
X164269744Y-122142262D01*
X164121333Y-122026749D01*
X164077559Y-121992678D01*
X164077557Y-121992676D01*
X164073509Y-121989526D01*
X163940483Y-121917536D01*
X163892977Y-121871955D01*
X163875500Y-121808481D01*
X163875500Y-118559452D01*
X163889015Y-118503157D01*
X163926615Y-118459134D01*
X163980102Y-118436979D01*
X164037818Y-118441521D01*
X164087181Y-118471771D01*
X164502707Y-118887297D01*
X164510156Y-118895483D01*
X164514214Y-118901877D01*
X164519899Y-118907215D01*
X164519901Y-118907218D01*
X164563239Y-118947915D01*
X164566035Y-118950625D01*
X164585530Y-118970120D01*
X164588615Y-118972513D01*
X164588701Y-118972580D01*
X164597573Y-118980158D01*
X164629418Y-119010062D01*
X164636248Y-119013817D01*
X164636251Y-119013819D01*
X164646971Y-119019712D01*
X164663222Y-119030386D01*
X164679064Y-119042674D01*
X164686221Y-119045771D01*
X164686223Y-119045772D01*
X164719155Y-119060022D01*
X164729650Y-119065164D01*
X164767908Y-119086197D01*
X164787312Y-119091179D01*
X164805714Y-119097480D01*
X164816941Y-119102338D01*
X164824105Y-119105438D01*
X164861697Y-119111391D01*
X164867239Y-119112269D01*
X164878682Y-119114639D01*
X164913425Y-119123560D01*
X164913426Y-119123560D01*
X164920981Y-119125500D01*
X164941017Y-119125500D01*
X164960402Y-119127025D01*
X164980196Y-119130160D01*
X165018276Y-119126560D01*
X165023676Y-119126050D01*
X165035345Y-119125500D01*
X177940546Y-119125500D01*
X177996841Y-119139015D01*
X178040864Y-119176615D01*
X178063019Y-119230102D01*
X178058477Y-119287818D01*
X178028227Y-119337181D01*
X177691619Y-119673788D01*
X177657740Y-119697827D01*
X177617823Y-119709327D01*
X177577666Y-119713852D01*
X177577664Y-119713852D01*
X177570745Y-119714632D01*
X177564176Y-119716930D01*
X177564174Y-119716931D01*
X177407043Y-119771913D01*
X177407036Y-119771915D01*
X177400478Y-119774211D01*
X177394590Y-119777910D01*
X177394587Y-119777912D01*
X177253638Y-119866476D01*
X177253633Y-119866479D01*
X177247738Y-119870184D01*
X177242813Y-119875108D01*
X177242809Y-119875112D01*
X177125112Y-119992809D01*
X177125108Y-119992813D01*
X177120184Y-119997738D01*
X177116479Y-120003633D01*
X177116476Y-120003638D01*
X177027912Y-120144587D01*
X177027910Y-120144590D01*
X177024211Y-120150478D01*
X177021915Y-120157036D01*
X177021913Y-120157043D01*
X176966930Y-120314175D01*
X176966928Y-120314182D01*
X176964632Y-120320745D01*
X176963852Y-120327662D01*
X176963852Y-120327665D01*
X176950048Y-120450180D01*
X176944435Y-120500000D01*
X176945215Y-120506923D01*
X176960236Y-120640244D01*
X176964632Y-120679255D01*
X176966928Y-120685819D01*
X176966930Y-120685824D01*
X177021911Y-120842949D01*
X177024211Y-120849522D01*
X177027912Y-120855412D01*
X177081061Y-120939999D01*
X177120184Y-121002262D01*
X177247738Y-121129816D01*
X177400478Y-121225789D01*
X177570745Y-121285368D01*
X177750000Y-121305565D01*
X177929255Y-121285368D01*
X178099522Y-121225789D01*
X178252262Y-121129816D01*
X178379816Y-121002262D01*
X178475789Y-120849522D01*
X178478089Y-120842949D01*
X178478733Y-120841111D01*
X178479678Y-120839649D01*
X178481112Y-120836674D01*
X178481487Y-120836855D01*
X178510493Y-120792047D01*
X178561199Y-120762981D01*
X178619587Y-120760371D01*
X178672684Y-120784796D01*
X178676238Y-120787606D01*
X178681344Y-120792712D01*
X178830666Y-120884814D01*
X178997203Y-120939999D01*
X179099991Y-120950500D01*
X179900008Y-120950499D01*
X180002797Y-120939999D01*
X180169334Y-120884814D01*
X180318656Y-120792712D01*
X180412319Y-120699048D01*
X180467906Y-120666955D01*
X180532094Y-120666955D01*
X180587681Y-120699049D01*
X180681344Y-120792712D01*
X180687485Y-120796500D01*
X180687488Y-120796502D01*
X180712827Y-120812131D01*
X180830666Y-120884814D01*
X180997203Y-120939999D01*
X181099991Y-120950500D01*
X181900008Y-120950499D01*
X182002797Y-120939999D01*
X182169334Y-120884814D01*
X182318656Y-120792712D01*
X182442712Y-120668656D01*
X182525080Y-120535114D01*
X182564065Y-120495586D01*
X182616393Y-120477031D01*
X182671573Y-120483171D01*
X182814167Y-120533067D01*
X182814173Y-120533068D01*
X182820745Y-120535368D01*
X183000000Y-120555565D01*
X183179255Y-120535368D01*
X183349522Y-120475789D01*
X183502262Y-120379816D01*
X183555127Y-120326950D01*
X183601527Y-120297705D01*
X183656007Y-120291337D01*
X183707899Y-120309091D01*
X183830666Y-120384814D01*
X183997203Y-120439999D01*
X184099991Y-120450500D01*
X184900008Y-120450499D01*
X185002797Y-120439999D01*
X185169334Y-120384814D01*
X185318656Y-120292712D01*
X185412319Y-120199048D01*
X185467906Y-120166955D01*
X185532094Y-120166955D01*
X185587681Y-120199049D01*
X185681344Y-120292712D01*
X185687485Y-120296500D01*
X185687488Y-120296502D01*
X185734090Y-120325246D01*
X185830666Y-120384814D01*
X185997203Y-120439999D01*
X186099991Y-120450500D01*
X186900008Y-120450499D01*
X187002797Y-120439999D01*
X187169334Y-120384814D01*
X187318656Y-120292712D01*
X187442712Y-120168656D01*
X187534814Y-120019334D01*
X187575408Y-119896829D01*
X189050001Y-119896829D01*
X189050321Y-119903111D01*
X189059805Y-119995959D01*
X189062623Y-120009122D01*
X189113370Y-120162267D01*
X189119432Y-120175266D01*
X189203890Y-120312194D01*
X189212794Y-120323455D01*
X189326544Y-120437205D01*
X189337805Y-120446109D01*
X189474733Y-120530567D01*
X189487732Y-120536629D01*
X189640874Y-120587375D01*
X189654041Y-120590194D01*
X189746890Y-120599680D01*
X189753168Y-120600000D01*
X189983674Y-120600000D01*
X189996549Y-120596549D01*
X190000000Y-120583674D01*
X190000000Y-119766326D01*
X189996549Y-119753450D01*
X189983674Y-119750000D01*
X189066327Y-119750000D01*
X189053451Y-119753450D01*
X189050001Y-119766326D01*
X189050001Y-119896829D01*
X187575408Y-119896829D01*
X187589999Y-119852797D01*
X187600500Y-119750009D01*
X187600499Y-118749992D01*
X187589999Y-118647203D01*
X187534814Y-118480666D01*
X187442712Y-118331344D01*
X187324049Y-118212681D01*
X187291955Y-118157094D01*
X187291955Y-118092906D01*
X187324049Y-118037319D01*
X187376122Y-117985246D01*
X187442712Y-117918656D01*
X187490609Y-117841001D01*
X187529521Y-117801519D01*
X187581751Y-117782938D01*
X187636858Y-117788973D01*
G37*
%TD.AperFunction*%
%TA.AperFunction,Conductor*%
G36*
X170429530Y-115146584D02*
G01*
X170475281Y-115197963D01*
X170486604Y-115265821D01*
X170460014Y-115329271D01*
X170403695Y-115368782D01*
X170400235Y-115369969D01*
X170390885Y-115374070D01*
X170181276Y-115487504D01*
X170172717Y-115493096D01*
X170143854Y-115515560D01*
X170135748Y-115526749D01*
X170142408Y-115538855D01*
X170988457Y-116384904D01*
X171000000Y-116391568D01*
X171011542Y-116384904D01*
X171857590Y-115538855D01*
X171864250Y-115526749D01*
X171856143Y-115515559D01*
X171827286Y-115493099D01*
X171818719Y-115487503D01*
X171609114Y-115374070D01*
X171599764Y-115369969D01*
X171596305Y-115368782D01*
X171539986Y-115329271D01*
X171513396Y-115265821D01*
X171524719Y-115197963D01*
X171570470Y-115146584D01*
X171636566Y-115127500D01*
X174861892Y-115127500D01*
X174927988Y-115146584D01*
X174973739Y-115197963D01*
X174985062Y-115265821D01*
X174958472Y-115329271D01*
X174904575Y-115367082D01*
X174904736Y-115367447D01*
X174902921Y-115368242D01*
X174902154Y-115368781D01*
X174901079Y-115369150D01*
X174900033Y-115369509D01*
X174900028Y-115369510D01*
X174895190Y-115371172D01*
X174890693Y-115373605D01*
X174890683Y-115373610D01*
X174681002Y-115487084D01*
X174680995Y-115487088D01*
X174676491Y-115489526D01*
X174672448Y-115492672D01*
X174672440Y-115492678D01*
X174484304Y-115639111D01*
X174480256Y-115642262D01*
X174476793Y-115646023D01*
X174476784Y-115646032D01*
X174315311Y-115821439D01*
X174315305Y-115821446D01*
X174311836Y-115825215D01*
X174309031Y-115829506D01*
X174309028Y-115829512D01*
X174178631Y-116029099D01*
X174178624Y-116029111D01*
X174175827Y-116033393D01*
X174173772Y-116038077D01*
X174173766Y-116038089D01*
X174077997Y-116256422D01*
X174075937Y-116261119D01*
X174074679Y-116266084D01*
X174074678Y-116266089D01*
X174016151Y-116497204D01*
X174016149Y-116497213D01*
X174014892Y-116502179D01*
X174014469Y-116507286D01*
X174014467Y-116507298D01*
X173994781Y-116744883D01*
X173994357Y-116750000D01*
X173994781Y-116755117D01*
X174014467Y-116992701D01*
X174014468Y-116992709D01*
X174014892Y-116997821D01*
X174016149Y-117002788D01*
X174016151Y-117002795D01*
X174042588Y-117107190D01*
X174075937Y-117238881D01*
X174077997Y-117243577D01*
X174173766Y-117461910D01*
X174173769Y-117461916D01*
X174175827Y-117466607D01*
X174178627Y-117470893D01*
X174178631Y-117470900D01*
X174262881Y-117599854D01*
X174311836Y-117674785D01*
X174312490Y-117675495D01*
X174337510Y-117737709D01*
X174325571Y-117804961D01*
X174279832Y-117855688D01*
X174214171Y-117874500D01*
X172285193Y-117874500D01*
X172219531Y-117855688D01*
X172173792Y-117804960D01*
X172161855Y-117737708D01*
X172187340Y-117674337D01*
X172190574Y-117670181D01*
X172320927Y-117470661D01*
X172325792Y-117461671D01*
X172421527Y-117243414D01*
X172424846Y-117233747D01*
X172483353Y-117002712D01*
X172485037Y-116992618D01*
X172504717Y-116755117D01*
X172504717Y-116744883D01*
X172485037Y-116507381D01*
X172483353Y-116497287D01*
X172424846Y-116266252D01*
X172421527Y-116256585D01*
X172325792Y-116038330D01*
X172320924Y-116029335D01*
X172231002Y-115891699D01*
X172223034Y-115883974D01*
X172213653Y-115889898D01*
X171087680Y-117015871D01*
X171032093Y-117047965D01*
X170967905Y-117047965D01*
X170912318Y-117015871D01*
X169786345Y-115889898D01*
X169776964Y-115883974D01*
X169768997Y-115891699D01*
X169679072Y-116029338D01*
X169674207Y-116038328D01*
X169578472Y-116256585D01*
X169575153Y-116266252D01*
X169516646Y-116497287D01*
X169514962Y-116507381D01*
X169498826Y-116702113D01*
X169482386Y-116749999D01*
X169498826Y-116797886D01*
X169514962Y-116992618D01*
X169516646Y-117002712D01*
X169575153Y-117233747D01*
X169578472Y-117243414D01*
X169674207Y-117461671D01*
X169679072Y-117470661D01*
X169809425Y-117670181D01*
X169812660Y-117674337D01*
X169838145Y-117737708D01*
X169826208Y-117804960D01*
X169780469Y-117855688D01*
X169714807Y-117874500D01*
X169035829Y-117874500D01*
X168970168Y-117855688D01*
X168924429Y-117804961D01*
X168912490Y-117737709D01*
X168937509Y-117675495D01*
X168938164Y-117674785D01*
X169074173Y-117466607D01*
X169174063Y-117238881D01*
X169235108Y-116997821D01*
X169251675Y-116797879D01*
X169268112Y-116749999D01*
X169251675Y-116702119D01*
X169235108Y-116502179D01*
X169174063Y-116261119D01*
X169074173Y-116033393D01*
X168938164Y-115825215D01*
X168769744Y-115642262D01*
X168621333Y-115526749D01*
X168577559Y-115492678D01*
X168577557Y-115492676D01*
X168573509Y-115489526D01*
X168568997Y-115487084D01*
X168359316Y-115373610D01*
X168359310Y-115373607D01*
X168354810Y-115371172D01*
X168347845Y-115368781D01*
X168347078Y-115368242D01*
X168345264Y-115367447D01*
X168345424Y-115367082D01*
X168291528Y-115329271D01*
X168264938Y-115265821D01*
X168276261Y-115197963D01*
X168322012Y-115146584D01*
X168388108Y-115127500D01*
X170363434Y-115127500D01*
X170429530Y-115146584D01*
G37*
%TD.AperFunction*%
%TD*%
D21*
X150000000Y-115000000D02*
X150000000Y-125000000D01*
X200000000Y-115000000D02*
X150000000Y-115000000D01*
X200000000Y-125000000D02*
X200000000Y-115000000D01*
X150000000Y-125000000D02*
X200000000Y-125000000D01*
M02*
