%TF.GenerationSoftware,KiCad,Pcbnew,(7.0.0)*%
%TF.CreationDate,2023-10-09T18:08:34-02:30*%
%TF.ProjectId,PCB_Flashlight,5043425f-466c-4617-9368-6c696768742e,0*%
%TF.SameCoordinates,Original*%
%TF.FileFunction,Copper,L2,Bot*%
%TF.FilePolarity,Positive*%
%FSLAX46Y46*%
G04 Gerber Fmt 4.6, Leading zero omitted, Abs format (unit mm)*
G04 Created by KiCad (PCBNEW (7.0.0)) date 2023-10-09 18:08:34*
%MOMM*%
%LPD*%
G01*
G04 APERTURE LIST*
G04 Aperture macros list*
%AMRoundRect*
0 Rectangle with rounded corners*
0 $1 Rounding radius*
0 $2 $3 $4 $5 $6 $7 $8 $9 X,Y pos of 4 corners*
0 Add a 4 corners polygon primitive as box body*
4,1,4,$2,$3,$4,$5,$6,$7,$8,$9,$2,$3,0*
0 Add four circle primitives for the rounded corners*
1,1,$1+$1,$2,$3*
1,1,$1+$1,$4,$5*
1,1,$1+$1,$6,$7*
1,1,$1+$1,$8,$9*
0 Add four rect primitives between the rounded corners*
20,1,$1+$1,$2,$3,$4,$5,0*
20,1,$1+$1,$4,$5,$6,$7,0*
20,1,$1+$1,$6,$7,$8,$9,0*
20,1,$1+$1,$8,$9,$2,$3,0*%
G04 Aperture macros list end*
%TA.AperFunction,SMDPad,CuDef*%
%ADD10RoundRect,0.150000X-0.150000X0.587500X-0.150000X-0.587500X0.150000X-0.587500X0.150000X0.587500X0*%
%TD*%
%TA.AperFunction,SMDPad,CuDef*%
%ADD11R,1.560000X0.650000*%
%TD*%
%TA.AperFunction,ComponentPad*%
%ADD12C,2.000000*%
%TD*%
%TA.AperFunction,SMDPad,CuDef*%
%ADD13RoundRect,0.250000X-0.450000X0.350000X-0.450000X-0.350000X0.450000X-0.350000X0.450000X0.350000X0*%
%TD*%
%TA.AperFunction,SMDPad,CuDef*%
%ADD14RoundRect,0.250000X0.350000X0.450000X-0.350000X0.450000X-0.350000X-0.450000X0.350000X-0.450000X0*%
%TD*%
%TA.AperFunction,SMDPad,CuDef*%
%ADD15RoundRect,0.250000X0.450000X-0.350000X0.450000X0.350000X-0.450000X0.350000X-0.450000X-0.350000X0*%
%TD*%
%TA.AperFunction,SMDPad,CuDef*%
%ADD16RoundRect,0.250000X0.475000X-0.337500X0.475000X0.337500X-0.475000X0.337500X-0.475000X-0.337500X0*%
%TD*%
%TA.AperFunction,SMDPad,CuDef*%
%ADD17RoundRect,0.250000X0.337500X0.475000X-0.337500X0.475000X-0.337500X-0.475000X0.337500X-0.475000X0*%
%TD*%
%TA.AperFunction,ComponentPad*%
%ADD18R,1.700000X1.700000*%
%TD*%
%TA.AperFunction,ComponentPad*%
%ADD19O,1.700000X1.700000*%
%TD*%
%TA.AperFunction,ViaPad*%
%ADD20C,0.600000*%
%TD*%
%TA.AperFunction,Conductor*%
%ADD21C,0.250000*%
%TD*%
%TA.AperFunction,Profile*%
%ADD22C,0.100000*%
%TD*%
G04 APERTURE END LIST*
D10*
%TO.P,U2,1,GND*%
%TO.N,GND*%
X158087500Y-119625000D03*
%TO.P,U2,2,VO*%
%TO.N,+5V*%
X159987500Y-119625000D03*
%TO.P,U2,3,VI*%
%TO.N,+9V*%
X159037500Y-121500000D03*
%TD*%
D11*
%TO.P,U1,1,RST*%
%TO.N,/BLINK_nON*%
X179149999Y-120699999D03*
%TO.P,U1,2,GND*%
%TO.N,GND*%
X179149999Y-119749999D03*
%TO.P,U1,3,SET*%
%TO.N,Net-(U1-SET)*%
X179149999Y-118799999D03*
%TO.P,U1,4,DIV*%
%TO.N,Net-(U1-DIV)*%
X181849999Y-118799999D03*
%TO.P,U1,5,V+*%
%TO.N,+5V*%
X181849999Y-119749999D03*
%TO.P,U1,6,OUT*%
%TO.N,Net-(U1-OUT)*%
X181849999Y-120699999D03*
%TD*%
D12*
%TO.P,SW2,1,1*%
%TO.N,GND*%
X171000000Y-116750000D03*
X171000000Y-123250000D03*
%TO.P,SW2,2,2*%
%TO.N,/BLINK_nON*%
X175500000Y-116750000D03*
X175500000Y-123250000D03*
%TD*%
%TO.P,SW1,1,1*%
%TO.N,+9V*%
X167750000Y-123250000D03*
X167750000Y-116750000D03*
%TO.P,SW1,2,2*%
%TO.N,Net-(R6-Pad1)*%
X163250000Y-123250000D03*
X163250000Y-116750000D03*
%TD*%
D13*
%TO.P,R5,1*%
%TO.N,GND*%
X176500000Y-119000000D03*
%TO.P,R5,2*%
%TO.N,Net-(U1-SET)*%
X176500000Y-121000000D03*
%TD*%
D14*
%TO.P,R4,1*%
%TO.N,Net-(U1-DIV)*%
X181500000Y-116500000D03*
%TO.P,R4,2*%
%TO.N,GND*%
X179500000Y-116500000D03*
%TD*%
D15*
%TO.P,R3,1*%
%TO.N,+5V*%
X184500000Y-119500000D03*
%TO.P,R3,2*%
%TO.N,Net-(U1-DIV)*%
X184500000Y-117500000D03*
%TD*%
D16*
%TO.P,C3,1*%
%TO.N,+9V*%
X156000000Y-121537500D03*
%TO.P,C3,2*%
%TO.N,GND*%
X156000000Y-119462500D03*
%TD*%
D17*
%TO.P,C2,1*%
%TO.N,+5V*%
X160037500Y-117250000D03*
%TO.P,C2,2*%
%TO.N,GND*%
X157962500Y-117250000D03*
%TD*%
%TO.P,C1,1*%
%TO.N,+5V*%
X181537500Y-122750000D03*
%TO.P,C1,2*%
%TO.N,GND*%
X179462500Y-122750000D03*
%TD*%
D18*
%TO.P,BT1,1,+*%
%TO.N,+9V*%
X152499999Y-121289999D03*
D19*
%TO.P,BT1,2,-*%
%TO.N,GND*%
X152499999Y-118749999D03*
%TD*%
D20*
%TO.N,GND*%
X188800000Y-116000000D03*
X188000000Y-122200000D03*
%TO.N,+5V*%
X183000000Y-119750000D03*
%TO.N,GND*%
X177800000Y-116600000D03*
X174000000Y-120000000D03*
X177800000Y-123400000D03*
%TO.N,Net-(U1-OUT)*%
X183200000Y-116600000D03*
%TO.N,/BLINK_nON*%
X177750000Y-120500000D03*
%TD*%
D21*
%TO.N,+5V*%
X184250000Y-119750000D02*
X183000000Y-119750000D01*
X183000000Y-119750000D02*
X181850000Y-119750000D01*
X179687500Y-124600000D02*
X181537500Y-122750000D01*
X173000000Y-124600000D02*
X179687500Y-124600000D01*
X172325000Y-123925000D02*
X173000000Y-124600000D01*
X172325000Y-121125000D02*
X172325000Y-123925000D01*
X159987500Y-119625000D02*
X170825000Y-119625000D01*
X170825000Y-119625000D02*
X172325000Y-121125000D01*
%TO.N,Net-(U1-OUT)*%
X185213173Y-120700000D02*
X181850000Y-120700000D01*
X183225000Y-116575000D02*
X185188173Y-116575000D01*
X185188173Y-116575000D02*
X185600000Y-116986827D01*
X183200000Y-116600000D02*
X183225000Y-116575000D01*
X185600000Y-116986827D02*
X185600000Y-120313173D01*
X185600000Y-120313173D02*
X185213173Y-120700000D01*
%TO.N,GND*%
X179950000Y-119750000D02*
X179150000Y-119750000D01*
X180255000Y-121957500D02*
X180255000Y-120055000D01*
X179462500Y-122750000D02*
X180255000Y-121957500D01*
X180255000Y-120055000D02*
X179950000Y-119750000D01*
%TO.N,/BLINK_nON*%
X177950000Y-120700000D02*
X179150000Y-120700000D01*
X177750000Y-120500000D02*
X177950000Y-120700000D01*
X179150000Y-120700000D02*
X176600000Y-123250000D01*
X176600000Y-123250000D02*
X175500000Y-123250000D01*
%TO.N,Net-(U1-SET)*%
X178345000Y-118800000D02*
X179150000Y-118800000D01*
X176500000Y-120645000D02*
X178345000Y-118800000D01*
X176500000Y-121000000D02*
X176500000Y-120645000D01*
%TO.N,+5V*%
X180745000Y-120050000D02*
X180745000Y-121957500D01*
X180745000Y-121957500D02*
X181537500Y-122750000D01*
X181045000Y-119750000D02*
X180745000Y-120050000D01*
X181850000Y-119750000D02*
X181045000Y-119750000D01*
X184500000Y-119500000D02*
X184250000Y-119750000D01*
%TO.N,Net-(U1-DIV)*%
X181850000Y-117850000D02*
X181850000Y-118800000D01*
X181500000Y-117500000D02*
X181850000Y-117850000D01*
X181500000Y-116500000D02*
X181500000Y-117500000D01*
X184500000Y-117500000D02*
X183200000Y-118800000D01*
X183200000Y-118800000D02*
X181850000Y-118800000D01*
%TO.N,+5V*%
X159987500Y-117300000D02*
X160037500Y-117250000D01*
X159987500Y-119625000D02*
X159987500Y-117300000D01*
%TO.N,+9V*%
X159000000Y-121537500D02*
X159037500Y-121500000D01*
X156000000Y-121537500D02*
X159000000Y-121537500D01*
X154290000Y-121290000D02*
X154500000Y-121500000D01*
X152500000Y-121290000D02*
X154290000Y-121290000D01*
X154500000Y-121500000D02*
X155962500Y-121500000D01*
X155962500Y-121500000D02*
X156000000Y-121537500D01*
%TD*%
%TA.AperFunction,Conductor*%
%TO.N,GND*%
G36*
X199810500Y-115144113D02*
G01*
X199855887Y-115189500D01*
X199872500Y-115251500D01*
X199872500Y-124748500D01*
X199855887Y-124810500D01*
X199810500Y-124855887D01*
X199748500Y-124872500D01*
X180598952Y-124872500D01*
X180542657Y-124858985D01*
X180498634Y-124821385D01*
X180476479Y-124767898D01*
X180481021Y-124710182D01*
X180511271Y-124660819D01*
X181160271Y-124011818D01*
X181200499Y-123984938D01*
X181247952Y-123975499D01*
X181921859Y-123975499D01*
X181925008Y-123975499D01*
X182027797Y-123964999D01*
X182194334Y-123909814D01*
X182343656Y-123817712D01*
X182467712Y-123693656D01*
X182559814Y-123544334D01*
X182614999Y-123377797D01*
X182625500Y-123275009D01*
X182625499Y-122224992D01*
X182614999Y-122122203D01*
X182559814Y-121955666D01*
X182493293Y-121847817D01*
X182471502Y-121812488D01*
X182471500Y-121812485D01*
X182467712Y-121806344D01*
X182398548Y-121737180D01*
X182368298Y-121687817D01*
X182363756Y-121630101D01*
X182385911Y-121576614D01*
X182429934Y-121539014D01*
X182486229Y-121525499D01*
X182674561Y-121525499D01*
X182677872Y-121525499D01*
X182737483Y-121519091D01*
X182872331Y-121468796D01*
X182987546Y-121382546D01*
X182993053Y-121375189D01*
X182993446Y-121374861D01*
X182999129Y-121369178D01*
X182999637Y-121369686D01*
X183036813Y-121338617D01*
X183092319Y-121325500D01*
X185135398Y-121325500D01*
X185146453Y-121326021D01*
X185153840Y-121327673D01*
X185221045Y-121325561D01*
X185224941Y-121325500D01*
X185248621Y-121325500D01*
X185252523Y-121325500D01*
X185256486Y-121324999D01*
X185268136Y-121324080D01*
X185311800Y-121322709D01*
X185331034Y-121317119D01*
X185350090Y-121313174D01*
X185369965Y-121310664D01*
X185410568Y-121294587D01*
X185421623Y-121290802D01*
X185463563Y-121278618D01*
X185480802Y-121268422D01*
X185498276Y-121259862D01*
X185509647Y-121255360D01*
X185509649Y-121255358D01*
X185516905Y-121252486D01*
X185552242Y-121226811D01*
X185561997Y-121220403D01*
X185599593Y-121198170D01*
X185613757Y-121184005D01*
X185628552Y-121171368D01*
X185644760Y-121159594D01*
X185672609Y-121125929D01*
X185680452Y-121117310D01*
X185987314Y-120810447D01*
X185995480Y-120803017D01*
X186001877Y-120798959D01*
X186047918Y-120749929D01*
X186050535Y-120747227D01*
X186070120Y-120727644D01*
X186072585Y-120724465D01*
X186080167Y-120715589D01*
X186110062Y-120683755D01*
X186119713Y-120666196D01*
X186130390Y-120649943D01*
X186142673Y-120634109D01*
X186160026Y-120594005D01*
X186165158Y-120583534D01*
X186182435Y-120552108D01*
X186182435Y-120552107D01*
X186186197Y-120545265D01*
X186191177Y-120525864D01*
X186197481Y-120507454D01*
X186199002Y-120503940D01*
X186205438Y-120489069D01*
X186212272Y-120445914D01*
X186214638Y-120434494D01*
X186222952Y-120402117D01*
X186225500Y-120392192D01*
X186225500Y-120372156D01*
X186227025Y-120352770D01*
X186230160Y-120332977D01*
X186226050Y-120289497D01*
X186225500Y-120277828D01*
X186225500Y-117064598D01*
X186226020Y-117053545D01*
X186227672Y-117046159D01*
X186225561Y-116978971D01*
X186225500Y-116975077D01*
X186225500Y-116951372D01*
X186225500Y-116947477D01*
X186224998Y-116943508D01*
X186224080Y-116931851D01*
X186222709Y-116888200D01*
X186217119Y-116868962D01*
X186213175Y-116849918D01*
X186210664Y-116830035D01*
X186194582Y-116789418D01*
X186190798Y-116778366D01*
X186184044Y-116755117D01*
X186178617Y-116736437D01*
X186174645Y-116729721D01*
X186174643Y-116729716D01*
X186168422Y-116719197D01*
X186159860Y-116701719D01*
X186155360Y-116690354D01*
X186155359Y-116690353D01*
X186152486Y-116683095D01*
X186126812Y-116647758D01*
X186120409Y-116638011D01*
X186098170Y-116600406D01*
X186084006Y-116586242D01*
X186071368Y-116571445D01*
X186064184Y-116561556D01*
X186064178Y-116561550D01*
X186059594Y-116555240D01*
X186025946Y-116527404D01*
X186017305Y-116519541D01*
X185685459Y-116187695D01*
X185678015Y-116179514D01*
X185673959Y-116173123D01*
X185624948Y-116127098D01*
X185622151Y-116124387D01*
X185605400Y-116107636D01*
X185605399Y-116107635D01*
X185602644Y-116104880D01*
X185599463Y-116102412D01*
X185590587Y-116094830D01*
X185564442Y-116070278D01*
X185564440Y-116070276D01*
X185558755Y-116064938D01*
X185551922Y-116061182D01*
X185551916Y-116061177D01*
X185541198Y-116055285D01*
X185524939Y-116044606D01*
X185515268Y-116037104D01*
X185515265Y-116037102D01*
X185509109Y-116032327D01*
X185501952Y-116029229D01*
X185501949Y-116029228D01*
X185469022Y-116014978D01*
X185458536Y-116009841D01*
X185427105Y-115992562D01*
X185427096Y-115992558D01*
X185420265Y-115988803D01*
X185412708Y-115986862D01*
X185412704Y-115986861D01*
X185400861Y-115983820D01*
X185382457Y-115977519D01*
X185371230Y-115972660D01*
X185371223Y-115972658D01*
X185364069Y-115969562D01*
X185356365Y-115968341D01*
X185356363Y-115968341D01*
X185320932Y-115962729D01*
X185309497Y-115960361D01*
X185274744Y-115951438D01*
X185274736Y-115951437D01*
X185267192Y-115949500D01*
X185259396Y-115949500D01*
X185247156Y-115949500D01*
X185227770Y-115947974D01*
X185207977Y-115944840D01*
X185200211Y-115945574D01*
X185200208Y-115945574D01*
X185164497Y-115948950D01*
X185152828Y-115949500D01*
X183705068Y-115949500D01*
X183639096Y-115930494D01*
X183555413Y-115877912D01*
X183555409Y-115877910D01*
X183549522Y-115874211D01*
X183542959Y-115871914D01*
X183542956Y-115871913D01*
X183385824Y-115816930D01*
X183385819Y-115816928D01*
X183379255Y-115814632D01*
X183372335Y-115813852D01*
X183372334Y-115813852D01*
X183206923Y-115795215D01*
X183200000Y-115794435D01*
X183193077Y-115795215D01*
X183027665Y-115813852D01*
X183027662Y-115813852D01*
X183020745Y-115814632D01*
X183014182Y-115816928D01*
X183014175Y-115816930D01*
X182857043Y-115871913D01*
X182857036Y-115871915D01*
X182850478Y-115874211D01*
X182844593Y-115877908D01*
X182844582Y-115877914D01*
X182762506Y-115929486D01*
X182709906Y-115947769D01*
X182654609Y-115941189D01*
X182607767Y-115911073D01*
X182578829Y-115863495D01*
X182562637Y-115814632D01*
X182534814Y-115730666D01*
X182478343Y-115639111D01*
X182446502Y-115587488D01*
X182446500Y-115587485D01*
X182442712Y-115581344D01*
X182318656Y-115457288D01*
X182312515Y-115453500D01*
X182312511Y-115453497D01*
X182183737Y-115374070D01*
X182169334Y-115365186D01*
X182164018Y-115363424D01*
X182114158Y-115320839D01*
X182093129Y-115257989D01*
X182107474Y-115193285D01*
X182153094Y-115145211D01*
X182216959Y-115127500D01*
X199748500Y-115127500D01*
X199810500Y-115144113D01*
G37*
%TD.AperFunction*%
%TA.AperFunction,Conductor*%
G36*
X162677988Y-115146584D02*
G01*
X162723739Y-115197963D01*
X162735062Y-115265821D01*
X162708472Y-115329271D01*
X162654575Y-115367082D01*
X162654736Y-115367447D01*
X162652921Y-115368242D01*
X162652154Y-115368781D01*
X162651584Y-115368977D01*
X162650033Y-115369509D01*
X162650028Y-115369510D01*
X162645190Y-115371172D01*
X162640693Y-115373605D01*
X162640683Y-115373610D01*
X162431002Y-115487084D01*
X162430995Y-115487088D01*
X162426491Y-115489526D01*
X162422448Y-115492672D01*
X162422440Y-115492678D01*
X162300222Y-115587805D01*
X162230256Y-115642262D01*
X162226793Y-115646023D01*
X162226784Y-115646032D01*
X162065311Y-115821439D01*
X162065305Y-115821446D01*
X162061836Y-115825215D01*
X162059031Y-115829506D01*
X162059028Y-115829512D01*
X161928631Y-116029099D01*
X161928624Y-116029111D01*
X161925827Y-116033393D01*
X161923772Y-116038077D01*
X161923766Y-116038089D01*
X161832328Y-116246549D01*
X161825937Y-116261119D01*
X161824679Y-116266084D01*
X161824678Y-116266089D01*
X161766151Y-116497204D01*
X161766149Y-116497213D01*
X161764892Y-116502179D01*
X161764469Y-116507286D01*
X161764467Y-116507298D01*
X161752829Y-116647759D01*
X161744357Y-116750000D01*
X161744781Y-116755117D01*
X161764467Y-116992701D01*
X161764468Y-116992709D01*
X161764892Y-116997821D01*
X161766149Y-117002788D01*
X161766151Y-117002795D01*
X161819805Y-117214666D01*
X161825937Y-117238881D01*
X161827997Y-117243577D01*
X161923766Y-117461910D01*
X161923769Y-117461916D01*
X161925827Y-117466607D01*
X161928627Y-117470893D01*
X161928631Y-117470900D01*
X162039199Y-117640137D01*
X162061836Y-117674785D01*
X162065310Y-117678559D01*
X162065311Y-117678560D01*
X162226784Y-117853967D01*
X162226787Y-117853970D01*
X162230256Y-117857738D01*
X162426491Y-118010474D01*
X162645190Y-118128828D01*
X162880386Y-118209571D01*
X163125665Y-118250500D01*
X163369201Y-118250500D01*
X163374335Y-118250500D01*
X163619614Y-118209571D01*
X163854810Y-118128828D01*
X164073509Y-118010474D01*
X164269744Y-117857738D01*
X164438164Y-117674785D01*
X164574173Y-117466607D01*
X164674063Y-117238881D01*
X164735108Y-116997821D01*
X164755643Y-116750000D01*
X164735108Y-116502179D01*
X164674063Y-116261119D01*
X164581714Y-116050585D01*
X164576233Y-116038089D01*
X164576232Y-116038087D01*
X164574173Y-116033393D01*
X164570944Y-116028451D01*
X164472594Y-115877914D01*
X164438164Y-115825215D01*
X164409829Y-115794435D01*
X164273215Y-115646032D01*
X164273211Y-115646029D01*
X164269744Y-115642262D01*
X164121333Y-115526749D01*
X164077559Y-115492678D01*
X164077557Y-115492676D01*
X164073509Y-115489526D01*
X164023372Y-115462393D01*
X163859316Y-115373610D01*
X163859310Y-115373607D01*
X163854810Y-115371172D01*
X163847845Y-115368781D01*
X163847078Y-115368242D01*
X163845264Y-115367447D01*
X163845424Y-115367082D01*
X163791528Y-115329271D01*
X163764938Y-115265821D01*
X163776261Y-115197963D01*
X163822012Y-115146584D01*
X163888108Y-115127500D01*
X167111892Y-115127500D01*
X167177988Y-115146584D01*
X167223739Y-115197963D01*
X167235062Y-115265821D01*
X167208472Y-115329271D01*
X167154575Y-115367082D01*
X167154736Y-115367447D01*
X167152921Y-115368242D01*
X167152154Y-115368781D01*
X167151584Y-115368977D01*
X167150033Y-115369509D01*
X167150028Y-115369510D01*
X167145190Y-115371172D01*
X167140693Y-115373605D01*
X167140683Y-115373610D01*
X166931002Y-115487084D01*
X166930995Y-115487088D01*
X166926491Y-115489526D01*
X166922448Y-115492672D01*
X166922440Y-115492678D01*
X166800222Y-115587805D01*
X166730256Y-115642262D01*
X166726793Y-115646023D01*
X166726784Y-115646032D01*
X166565311Y-115821439D01*
X166565305Y-115821446D01*
X166561836Y-115825215D01*
X166559031Y-115829506D01*
X166559028Y-115829512D01*
X166428631Y-116029099D01*
X166428624Y-116029111D01*
X166425827Y-116033393D01*
X166423772Y-116038077D01*
X166423766Y-116038089D01*
X166332328Y-116246549D01*
X166325937Y-116261119D01*
X166324679Y-116266084D01*
X166324678Y-116266089D01*
X166266151Y-116497204D01*
X166266149Y-116497213D01*
X166264892Y-116502179D01*
X166264469Y-116507286D01*
X166264467Y-116507298D01*
X166252829Y-116647759D01*
X166244357Y-116750000D01*
X166244781Y-116755117D01*
X166264467Y-116992701D01*
X166264468Y-116992709D01*
X166264892Y-116997821D01*
X166266149Y-117002788D01*
X166266151Y-117002795D01*
X166319805Y-117214666D01*
X166325937Y-117238881D01*
X166327997Y-117243577D01*
X166423766Y-117461910D01*
X166423769Y-117461916D01*
X166425827Y-117466607D01*
X166428627Y-117470893D01*
X166428631Y-117470900D01*
X166539199Y-117640137D01*
X166561836Y-117674785D01*
X166565310Y-117678559D01*
X166565311Y-117678560D01*
X166726784Y-117853967D01*
X166726787Y-117853970D01*
X166730256Y-117857738D01*
X166926491Y-118010474D01*
X167145190Y-118128828D01*
X167380386Y-118209571D01*
X167625665Y-118250500D01*
X167869201Y-118250500D01*
X167874335Y-118250500D01*
X168119614Y-118209571D01*
X168354810Y-118128828D01*
X168573509Y-118010474D01*
X168621337Y-117973248D01*
X170135749Y-117973248D01*
X170143855Y-117984439D01*
X170172717Y-118006903D01*
X170181279Y-118012496D01*
X170390885Y-118125929D01*
X170400239Y-118130032D01*
X170625656Y-118207417D01*
X170635568Y-118209928D01*
X170870643Y-118249155D01*
X170880839Y-118250000D01*
X171119161Y-118250000D01*
X171129356Y-118249155D01*
X171364431Y-118209928D01*
X171374343Y-118207417D01*
X171599760Y-118130032D01*
X171609114Y-118125929D01*
X171818723Y-118012495D01*
X171827281Y-118006903D01*
X171856146Y-117984437D01*
X171864250Y-117973250D01*
X171857589Y-117961142D01*
X171011542Y-117115095D01*
X170999999Y-117108431D01*
X170988457Y-117115095D01*
X170142408Y-117961143D01*
X170135749Y-117973248D01*
X168621337Y-117973248D01*
X168769744Y-117857738D01*
X168938164Y-117674785D01*
X169074173Y-117466607D01*
X169174063Y-117238881D01*
X169235108Y-116997821D01*
X169251675Y-116797879D01*
X169268112Y-116749999D01*
X169482386Y-116749999D01*
X169498826Y-116797886D01*
X169514962Y-116992618D01*
X169516646Y-117002712D01*
X169575153Y-117233747D01*
X169578472Y-117243414D01*
X169674208Y-117461673D01*
X169679070Y-117470656D01*
X169768999Y-117608304D01*
X169776963Y-117616024D01*
X169786345Y-117610100D01*
X170634904Y-116761542D01*
X170641568Y-116749999D01*
X171358431Y-116749999D01*
X171365095Y-116761542D01*
X172213653Y-117610100D01*
X172223034Y-117616024D01*
X172231002Y-117608299D01*
X172320924Y-117470664D01*
X172325792Y-117461669D01*
X172421527Y-117243414D01*
X172424846Y-117233747D01*
X172483353Y-117002712D01*
X172485037Y-116992618D01*
X172504717Y-116755117D01*
X172504717Y-116744883D01*
X172485037Y-116507381D01*
X172483353Y-116497287D01*
X172424846Y-116266252D01*
X172421527Y-116256585D01*
X172325792Y-116038330D01*
X172320924Y-116029335D01*
X172231002Y-115891699D01*
X172223034Y-115883974D01*
X172213653Y-115889898D01*
X171365095Y-116738457D01*
X171358431Y-116749999D01*
X170641568Y-116749999D01*
X170634904Y-116738457D01*
X169786345Y-115889898D01*
X169776964Y-115883974D01*
X169768997Y-115891699D01*
X169679072Y-116029338D01*
X169674207Y-116038328D01*
X169578472Y-116256585D01*
X169575153Y-116266252D01*
X169516646Y-116497287D01*
X169514962Y-116507381D01*
X169498826Y-116702113D01*
X169482386Y-116749999D01*
X169268112Y-116749999D01*
X169251675Y-116702119D01*
X169235108Y-116502179D01*
X169174063Y-116261119D01*
X169081714Y-116050585D01*
X169076233Y-116038089D01*
X169076232Y-116038087D01*
X169074173Y-116033393D01*
X169070944Y-116028451D01*
X168972594Y-115877914D01*
X168938164Y-115825215D01*
X168909829Y-115794435D01*
X168773215Y-115646032D01*
X168773211Y-115646029D01*
X168769744Y-115642262D01*
X168621333Y-115526749D01*
X168577559Y-115492678D01*
X168577557Y-115492676D01*
X168573509Y-115489526D01*
X168523372Y-115462393D01*
X168359316Y-115373610D01*
X168359310Y-115373607D01*
X168354810Y-115371172D01*
X168347845Y-115368781D01*
X168347078Y-115368242D01*
X168345264Y-115367447D01*
X168345424Y-115367082D01*
X168291528Y-115329271D01*
X168264938Y-115265821D01*
X168276261Y-115197963D01*
X168322012Y-115146584D01*
X168388108Y-115127500D01*
X170363434Y-115127500D01*
X170429530Y-115146584D01*
X170475281Y-115197963D01*
X170486604Y-115265821D01*
X170460014Y-115329271D01*
X170403695Y-115368782D01*
X170400235Y-115369969D01*
X170390885Y-115374070D01*
X170181276Y-115487504D01*
X170172717Y-115493096D01*
X170143854Y-115515560D01*
X170135748Y-115526749D01*
X170142408Y-115538855D01*
X170988457Y-116384904D01*
X171000000Y-116391568D01*
X171011542Y-116384904D01*
X171857590Y-115538855D01*
X171864250Y-115526749D01*
X171856143Y-115515559D01*
X171827286Y-115493099D01*
X171818719Y-115487503D01*
X171609114Y-115374070D01*
X171599764Y-115369969D01*
X171596305Y-115368782D01*
X171539986Y-115329271D01*
X171513396Y-115265821D01*
X171524719Y-115197963D01*
X171570470Y-115146584D01*
X171636566Y-115127500D01*
X174861892Y-115127500D01*
X174927988Y-115146584D01*
X174973739Y-115197963D01*
X174985062Y-115265821D01*
X174958472Y-115329271D01*
X174904575Y-115367082D01*
X174904736Y-115367447D01*
X174902921Y-115368242D01*
X174902154Y-115368781D01*
X174901584Y-115368977D01*
X174900033Y-115369509D01*
X174900028Y-115369510D01*
X174895190Y-115371172D01*
X174890693Y-115373605D01*
X174890683Y-115373610D01*
X174681002Y-115487084D01*
X174680995Y-115487088D01*
X174676491Y-115489526D01*
X174672448Y-115492672D01*
X174672440Y-115492678D01*
X174550222Y-115587805D01*
X174480256Y-115642262D01*
X174476793Y-115646023D01*
X174476784Y-115646032D01*
X174315311Y-115821439D01*
X174315305Y-115821446D01*
X174311836Y-115825215D01*
X174309031Y-115829506D01*
X174309028Y-115829512D01*
X174178631Y-116029099D01*
X174178624Y-116029111D01*
X174175827Y-116033393D01*
X174173772Y-116038077D01*
X174173766Y-116038089D01*
X174082328Y-116246549D01*
X174075937Y-116261119D01*
X174074679Y-116266084D01*
X174074678Y-116266089D01*
X174016151Y-116497204D01*
X174016149Y-116497213D01*
X174014892Y-116502179D01*
X174014469Y-116507286D01*
X174014467Y-116507298D01*
X174002829Y-116647759D01*
X173994357Y-116750000D01*
X173994781Y-116755117D01*
X174014467Y-116992701D01*
X174014468Y-116992709D01*
X174014892Y-116997821D01*
X174016149Y-117002788D01*
X174016151Y-117002795D01*
X174069805Y-117214666D01*
X174075937Y-117238881D01*
X174077997Y-117243577D01*
X174173766Y-117461910D01*
X174173769Y-117461916D01*
X174175827Y-117466607D01*
X174178627Y-117470893D01*
X174178631Y-117470900D01*
X174289199Y-117640137D01*
X174311836Y-117674785D01*
X174315310Y-117678559D01*
X174315311Y-117678560D01*
X174476784Y-117853967D01*
X174476787Y-117853970D01*
X174480256Y-117857738D01*
X174676491Y-118010474D01*
X174895190Y-118128828D01*
X175130386Y-118209571D01*
X175248555Y-118229289D01*
X175297822Y-118249026D01*
X175334326Y-118287554D01*
X175351377Y-118337815D01*
X175345851Y-118390601D01*
X175312625Y-118490871D01*
X175309805Y-118504041D01*
X175300319Y-118596890D01*
X175300000Y-118603168D01*
X175300000Y-118733674D01*
X175303450Y-118746549D01*
X175316326Y-118750000D01*
X176626000Y-118750000D01*
X176688000Y-118766613D01*
X176733387Y-118812000D01*
X176750000Y-118874000D01*
X176750000Y-119126000D01*
X176733387Y-119188000D01*
X176688000Y-119233387D01*
X176626000Y-119250000D01*
X175316327Y-119250000D01*
X175303451Y-119253450D01*
X175300001Y-119266326D01*
X175300001Y-119396829D01*
X175300321Y-119403111D01*
X175309805Y-119495959D01*
X175312623Y-119509122D01*
X175363370Y-119662267D01*
X175369432Y-119675266D01*
X175453890Y-119812194D01*
X175462794Y-119823455D01*
X175551304Y-119911965D01*
X175583398Y-119967552D01*
X175583398Y-120031739D01*
X175551305Y-120087326D01*
X175457288Y-120181344D01*
X175453503Y-120187480D01*
X175453497Y-120187488D01*
X175368977Y-120324519D01*
X175365186Y-120330666D01*
X175362915Y-120337517D01*
X175362914Y-120337521D01*
X175315249Y-120481366D01*
X175310001Y-120497203D01*
X175309313Y-120503933D01*
X175309312Y-120503940D01*
X175299819Y-120596859D01*
X175299818Y-120596877D01*
X175299500Y-120599991D01*
X175299500Y-120603138D01*
X175299500Y-120603139D01*
X175299500Y-121396858D01*
X175299500Y-121396877D01*
X175299501Y-121400008D01*
X175299820Y-121403140D01*
X175299821Y-121403141D01*
X175309312Y-121496061D01*
X175309313Y-121496069D01*
X175310001Y-121502797D01*
X175312129Y-121509219D01*
X175312130Y-121509223D01*
X175345352Y-121609480D01*
X175350878Y-121662266D01*
X175333827Y-121712527D01*
X175297324Y-121751056D01*
X175248056Y-121770793D01*
X175135441Y-121789585D01*
X175135435Y-121789586D01*
X175130386Y-121790429D01*
X175125541Y-121792092D01*
X175125534Y-121792094D01*
X174900037Y-121869507D01*
X174900026Y-121869511D01*
X174895190Y-121871172D01*
X174890693Y-121873605D01*
X174890683Y-121873610D01*
X174681002Y-121987084D01*
X174680995Y-121987088D01*
X174676491Y-121989526D01*
X174672448Y-121992672D01*
X174672440Y-121992678D01*
X174484304Y-122139111D01*
X174480256Y-122142262D01*
X174476793Y-122146023D01*
X174476784Y-122146032D01*
X174315311Y-122321439D01*
X174315305Y-122321446D01*
X174311836Y-122325215D01*
X174309031Y-122329506D01*
X174309028Y-122329512D01*
X174178631Y-122529099D01*
X174178624Y-122529111D01*
X174175827Y-122533393D01*
X174173772Y-122538077D01*
X174173766Y-122538089D01*
X174086162Y-122737808D01*
X174075937Y-122761119D01*
X174074679Y-122766084D01*
X174074678Y-122766089D01*
X174016151Y-122997204D01*
X174016149Y-122997213D01*
X174014892Y-123002179D01*
X174014469Y-123007286D01*
X174014467Y-123007298D01*
X173998325Y-123202112D01*
X173994357Y-123250000D01*
X173994781Y-123255117D01*
X174014467Y-123492701D01*
X174014468Y-123492709D01*
X174014892Y-123497821D01*
X174016149Y-123502788D01*
X174016151Y-123502795D01*
X174068520Y-123709594D01*
X174075937Y-123738881D01*
X174077997Y-123743577D01*
X174103049Y-123800690D01*
X174113069Y-123860740D01*
X174093302Y-123918322D01*
X174048510Y-123959555D01*
X173989493Y-123974500D01*
X173310453Y-123974500D01*
X173263000Y-123965061D01*
X173222772Y-123938181D01*
X172986819Y-123702228D01*
X172959939Y-123662000D01*
X172950500Y-123614547D01*
X172950500Y-121202771D01*
X172951020Y-121191718D01*
X172952672Y-121184332D01*
X172950561Y-121117144D01*
X172950500Y-121113250D01*
X172950500Y-121089545D01*
X172950500Y-121085650D01*
X172949998Y-121081681D01*
X172949080Y-121070024D01*
X172947709Y-121026373D01*
X172942119Y-121007135D01*
X172938175Y-120988091D01*
X172935664Y-120968208D01*
X172919582Y-120927591D01*
X172915798Y-120916539D01*
X172910553Y-120898485D01*
X172903617Y-120874610D01*
X172899645Y-120867894D01*
X172899643Y-120867889D01*
X172893422Y-120857370D01*
X172884860Y-120839892D01*
X172880360Y-120828527D01*
X172880359Y-120828526D01*
X172877486Y-120821268D01*
X172851812Y-120785931D01*
X172845405Y-120776177D01*
X172823170Y-120738579D01*
X172809006Y-120724414D01*
X172796368Y-120709618D01*
X172789184Y-120699729D01*
X172789178Y-120699723D01*
X172784594Y-120693413D01*
X172772919Y-120683755D01*
X172750946Y-120665577D01*
X172742305Y-120657714D01*
X171322286Y-119237695D01*
X171314842Y-119229514D01*
X171310786Y-119223123D01*
X171261775Y-119177098D01*
X171258978Y-119174387D01*
X171242227Y-119157636D01*
X171242226Y-119157635D01*
X171239471Y-119154880D01*
X171236290Y-119152412D01*
X171227414Y-119144830D01*
X171201269Y-119120278D01*
X171201267Y-119120276D01*
X171195582Y-119114938D01*
X171188749Y-119111182D01*
X171188743Y-119111177D01*
X171178025Y-119105285D01*
X171161766Y-119094606D01*
X171152095Y-119087104D01*
X171152092Y-119087102D01*
X171145936Y-119082327D01*
X171138779Y-119079229D01*
X171138776Y-119079228D01*
X171105849Y-119064978D01*
X171095363Y-119059841D01*
X171063932Y-119042562D01*
X171063923Y-119042558D01*
X171057092Y-119038803D01*
X171049535Y-119036862D01*
X171049531Y-119036861D01*
X171037688Y-119033820D01*
X171019284Y-119027519D01*
X171008057Y-119022660D01*
X171008050Y-119022658D01*
X171000896Y-119019562D01*
X170993192Y-119018341D01*
X170993190Y-119018341D01*
X170957759Y-119012729D01*
X170946324Y-119010361D01*
X170911571Y-119001438D01*
X170911563Y-119001437D01*
X170904019Y-118999500D01*
X170896223Y-118999500D01*
X170883983Y-118999500D01*
X170864597Y-118997974D01*
X170844804Y-118994840D01*
X170837038Y-118995574D01*
X170837035Y-118995574D01*
X170801324Y-118998950D01*
X170789655Y-118999500D01*
X160896958Y-118999500D01*
X160845339Y-118988245D01*
X160803091Y-118956524D01*
X160777882Y-118910095D01*
X160739244Y-118777102D01*
X160655581Y-118635635D01*
X160649319Y-118629373D01*
X160648282Y-118627822D01*
X160645283Y-118623955D01*
X160645556Y-118623742D01*
X160622439Y-118589145D01*
X160613000Y-118541692D01*
X160613000Y-118525812D01*
X160632420Y-118459186D01*
X160684596Y-118413429D01*
X160687471Y-118412087D01*
X160694334Y-118409814D01*
X160843656Y-118317712D01*
X160967712Y-118193656D01*
X161059814Y-118044334D01*
X161114999Y-117877797D01*
X161125500Y-117775009D01*
X161125499Y-116724992D01*
X161114999Y-116622203D01*
X161059814Y-116455666D01*
X160975192Y-116318471D01*
X160971502Y-116312488D01*
X160971500Y-116312485D01*
X160967712Y-116306344D01*
X160843656Y-116182288D01*
X160837515Y-116178500D01*
X160837511Y-116178497D01*
X160700480Y-116093977D01*
X160694334Y-116090186D01*
X160527797Y-116035001D01*
X160521064Y-116034313D01*
X160521059Y-116034312D01*
X160428140Y-116024819D01*
X160428123Y-116024818D01*
X160425009Y-116024500D01*
X160421860Y-116024500D01*
X159653141Y-116024500D01*
X159653121Y-116024500D01*
X159649992Y-116024501D01*
X159646860Y-116024820D01*
X159646858Y-116024821D01*
X159553938Y-116034312D01*
X159553928Y-116034313D01*
X159547203Y-116035001D01*
X159540781Y-116037128D01*
X159540776Y-116037130D01*
X159387521Y-116087914D01*
X159387517Y-116087915D01*
X159380666Y-116090186D01*
X159374522Y-116093975D01*
X159374519Y-116093977D01*
X159237488Y-116178497D01*
X159237480Y-116178503D01*
X159231344Y-116182288D01*
X159226242Y-116187389D01*
X159226238Y-116187393D01*
X159112393Y-116301238D01*
X159112389Y-116301242D01*
X159107288Y-116306344D01*
X159103499Y-116312486D01*
X159099016Y-116318157D01*
X159097566Y-116317010D01*
X159060122Y-116352845D01*
X158999689Y-116368559D01*
X158939262Y-116352829D01*
X158902117Y-116317263D01*
X158900590Y-116318471D01*
X158887205Y-116301544D01*
X158773455Y-116187794D01*
X158762194Y-116178890D01*
X158625266Y-116094432D01*
X158612267Y-116088370D01*
X158459125Y-116037624D01*
X158445958Y-116034805D01*
X158353109Y-116025319D01*
X158346832Y-116025000D01*
X158228826Y-116025000D01*
X158215950Y-116028450D01*
X158212500Y-116041326D01*
X158212500Y-118331174D01*
X158215950Y-118344049D01*
X158244594Y-118351725D01*
X158243567Y-118355556D01*
X158275500Y-118364113D01*
X158320887Y-118409500D01*
X158337500Y-118471500D01*
X158337500Y-119358674D01*
X158340950Y-119371549D01*
X158353826Y-119375000D01*
X158871174Y-119375000D01*
X158884049Y-119371549D01*
X158887500Y-119358674D01*
X158887500Y-118974303D01*
X158887308Y-118969423D01*
X158885097Y-118941326D01*
X158882831Y-118928920D01*
X158840958Y-118784794D01*
X158834810Y-118770587D01*
X158759155Y-118642661D01*
X158749664Y-118630425D01*
X158674023Y-118554784D01*
X158644578Y-118507814D01*
X158638543Y-118452707D01*
X158657124Y-118400477D01*
X158696608Y-118361564D01*
X158762191Y-118321112D01*
X158773455Y-118312205D01*
X158887205Y-118198455D01*
X158900590Y-118181529D01*
X158902119Y-118182738D01*
X158939253Y-118147174D01*
X158999689Y-118131440D01*
X159060129Y-118147157D01*
X159097564Y-118182990D01*
X159099016Y-118181843D01*
X159103498Y-118187511D01*
X159107288Y-118193656D01*
X159231344Y-118317712D01*
X159237493Y-118321505D01*
X159237496Y-118321507D01*
X159303096Y-118361969D01*
X159346277Y-118407076D01*
X159362000Y-118467508D01*
X159362000Y-118541692D01*
X159352561Y-118589145D01*
X159329443Y-118623742D01*
X159329717Y-118623955D01*
X159326717Y-118627822D01*
X159325681Y-118629373D01*
X159324937Y-118630116D01*
X159324933Y-118630120D01*
X159319419Y-118635635D01*
X159315450Y-118642344D01*
X159315446Y-118642351D01*
X159239727Y-118770386D01*
X159239724Y-118770391D01*
X159235756Y-118777102D01*
X159233580Y-118784591D01*
X159233579Y-118784594D01*
X159191670Y-118928842D01*
X159191668Y-118928851D01*
X159189902Y-118934931D01*
X159189405Y-118941239D01*
X159189404Y-118941248D01*
X159187191Y-118969371D01*
X159187190Y-118969386D01*
X159187000Y-118971806D01*
X159187000Y-118974251D01*
X159187000Y-120138000D01*
X159170387Y-120200000D01*
X159125000Y-120245387D01*
X159063000Y-120262000D01*
X159011500Y-120262000D01*
X158949500Y-120245387D01*
X158904113Y-120200000D01*
X158887500Y-120138000D01*
X158887500Y-119891326D01*
X158884049Y-119878450D01*
X158871174Y-119875000D01*
X157349000Y-119875000D01*
X157287000Y-119858387D01*
X157241613Y-119813000D01*
X157225000Y-119751000D01*
X157225000Y-119728826D01*
X157221549Y-119715950D01*
X157208674Y-119712500D01*
X154791327Y-119712500D01*
X154778451Y-119715950D01*
X154775001Y-119728826D01*
X154775001Y-119846829D01*
X154775321Y-119853111D01*
X154784805Y-119945959D01*
X154787623Y-119959122D01*
X154838370Y-120112267D01*
X154844432Y-120125266D01*
X154928890Y-120262194D01*
X154937794Y-120273455D01*
X155051544Y-120387205D01*
X155068471Y-120400590D01*
X155067263Y-120402117D01*
X155102829Y-120439262D01*
X155118559Y-120499689D01*
X155102845Y-120560122D01*
X155067010Y-120597566D01*
X155068157Y-120599016D01*
X155062486Y-120603499D01*
X155056344Y-120607288D01*
X155051242Y-120612389D01*
X155051238Y-120612393D01*
X154937399Y-120726232D01*
X154937395Y-120726236D01*
X154932288Y-120731344D01*
X154928497Y-120737489D01*
X154928490Y-120737499D01*
X154893750Y-120793822D01*
X154856470Y-120832247D01*
X154806466Y-120851374D01*
X154753059Y-120847638D01*
X154706475Y-120821884D01*
X154704471Y-120819880D01*
X154701290Y-120817412D01*
X154692414Y-120809830D01*
X154666269Y-120785278D01*
X154666267Y-120785276D01*
X154660582Y-120779938D01*
X154653749Y-120776182D01*
X154653743Y-120776177D01*
X154643025Y-120770285D01*
X154626766Y-120759606D01*
X154617095Y-120752104D01*
X154617092Y-120752102D01*
X154610936Y-120747327D01*
X154603779Y-120744229D01*
X154603776Y-120744228D01*
X154570849Y-120729978D01*
X154560363Y-120724841D01*
X154528932Y-120707562D01*
X154528923Y-120707558D01*
X154522092Y-120703803D01*
X154514535Y-120701862D01*
X154514531Y-120701861D01*
X154502688Y-120698820D01*
X154484284Y-120692519D01*
X154473057Y-120687660D01*
X154473050Y-120687658D01*
X154465896Y-120684562D01*
X154458192Y-120683341D01*
X154458190Y-120683341D01*
X154422759Y-120677729D01*
X154411324Y-120675361D01*
X154376571Y-120666438D01*
X154376563Y-120666437D01*
X154369019Y-120664500D01*
X154361223Y-120664500D01*
X154348983Y-120664500D01*
X154329597Y-120662974D01*
X154309804Y-120659840D01*
X154302038Y-120660574D01*
X154302035Y-120660574D01*
X154266324Y-120663950D01*
X154254655Y-120664500D01*
X153974499Y-120664500D01*
X153912499Y-120647887D01*
X153867112Y-120602500D01*
X153850499Y-120540500D01*
X153850499Y-120395439D01*
X153850499Y-120392128D01*
X153844091Y-120332517D01*
X153793796Y-120197669D01*
X153707546Y-120082454D01*
X153592331Y-119996204D01*
X153515511Y-119967552D01*
X153460401Y-119946997D01*
X153410021Y-119912018D01*
X153382568Y-119857173D01*
X153384757Y-119795880D01*
X153416053Y-119743133D01*
X153534284Y-119624902D01*
X153541215Y-119616643D01*
X153670498Y-119432008D01*
X153675886Y-119422676D01*
X153771143Y-119218397D01*
X153774831Y-119208263D01*
X153778070Y-119196174D01*
X154775000Y-119196174D01*
X154778450Y-119209049D01*
X154791326Y-119212500D01*
X155733674Y-119212500D01*
X155746549Y-119209049D01*
X155750000Y-119196174D01*
X156250000Y-119196174D01*
X156253450Y-119209049D01*
X156266326Y-119212500D01*
X157163500Y-119212500D01*
X157225500Y-119229113D01*
X157270887Y-119274500D01*
X157287500Y-119336500D01*
X157287500Y-119358674D01*
X157290950Y-119371549D01*
X157303826Y-119375000D01*
X157821174Y-119375000D01*
X157834049Y-119371549D01*
X157837500Y-119358674D01*
X157837500Y-118531326D01*
X157834049Y-118518450D01*
X157805406Y-118510775D01*
X157806432Y-118506943D01*
X157774500Y-118498387D01*
X157729113Y-118453000D01*
X157712500Y-118391000D01*
X157712500Y-117516326D01*
X157709049Y-117503450D01*
X157696174Y-117500000D01*
X156891327Y-117500000D01*
X156878451Y-117503450D01*
X156875001Y-117516326D01*
X156875001Y-117771829D01*
X156875321Y-117778111D01*
X156884805Y-117870959D01*
X156887623Y-117884122D01*
X156938370Y-118037267D01*
X156944432Y-118050266D01*
X157028890Y-118187194D01*
X157037794Y-118198455D01*
X157151544Y-118312205D01*
X157162805Y-118321109D01*
X157299733Y-118405567D01*
X157312732Y-118411629D01*
X157370876Y-118430896D01*
X157420617Y-118461998D01*
X157450496Y-118512485D01*
X157453822Y-118571056D01*
X157429853Y-118624601D01*
X157415846Y-118642659D01*
X157345520Y-118761573D01*
X157300725Y-118805874D01*
X157239942Y-118822446D01*
X157178861Y-118807009D01*
X157133250Y-118763548D01*
X157071114Y-118662811D01*
X157062205Y-118651544D01*
X156948455Y-118537794D01*
X156937194Y-118528890D01*
X156800266Y-118444432D01*
X156787267Y-118438370D01*
X156634125Y-118387624D01*
X156620958Y-118384805D01*
X156528109Y-118375319D01*
X156521832Y-118375000D01*
X156266326Y-118375000D01*
X156253450Y-118378450D01*
X156250000Y-118391326D01*
X156250000Y-119196174D01*
X155750000Y-119196174D01*
X155750000Y-118391327D01*
X155746549Y-118378451D01*
X155733674Y-118375001D01*
X155478171Y-118375001D01*
X155471888Y-118375321D01*
X155379040Y-118384805D01*
X155365877Y-118387623D01*
X155212732Y-118438370D01*
X155199733Y-118444432D01*
X155062805Y-118528890D01*
X155051544Y-118537794D01*
X154937794Y-118651544D01*
X154928890Y-118662805D01*
X154844432Y-118799733D01*
X154838370Y-118812732D01*
X154787624Y-118965874D01*
X154784805Y-118979041D01*
X154775319Y-119071890D01*
X154775000Y-119078168D01*
X154775000Y-119196174D01*
X153778070Y-119196174D01*
X153826943Y-119013780D01*
X153827311Y-119002551D01*
X153816369Y-119000000D01*
X151183631Y-119000000D01*
X151172688Y-119002551D01*
X151173056Y-119013780D01*
X151225168Y-119208263D01*
X151228856Y-119218397D01*
X151324113Y-119422676D01*
X151329501Y-119432008D01*
X151458784Y-119616643D01*
X151465721Y-119624909D01*
X151583946Y-119743134D01*
X151615242Y-119795880D01*
X151617431Y-119857173D01*
X151589978Y-119912018D01*
X151539599Y-119946997D01*
X151484489Y-119967552D01*
X151407669Y-119996204D01*
X151400572Y-120001516D01*
X151400568Y-120001519D01*
X151299550Y-120077141D01*
X151299546Y-120077144D01*
X151292454Y-120082454D01*
X151287144Y-120089546D01*
X151287141Y-120089550D01*
X151211519Y-120190568D01*
X151211516Y-120190572D01*
X151206204Y-120197669D01*
X151203104Y-120205978D01*
X151203104Y-120205980D01*
X151158620Y-120325247D01*
X151158619Y-120325250D01*
X151155909Y-120332517D01*
X151155079Y-120340227D01*
X151155079Y-120340232D01*
X151149855Y-120388819D01*
X151149854Y-120388831D01*
X151149500Y-120392127D01*
X151149500Y-120395448D01*
X151149500Y-120395449D01*
X151149500Y-122184560D01*
X151149500Y-122184578D01*
X151149501Y-122187872D01*
X151149853Y-122191150D01*
X151149854Y-122191161D01*
X151155079Y-122239768D01*
X151155080Y-122239773D01*
X151155909Y-122247483D01*
X151158619Y-122254749D01*
X151158620Y-122254753D01*
X151161037Y-122261232D01*
X151206204Y-122382331D01*
X151292454Y-122497546D01*
X151407669Y-122583796D01*
X151542517Y-122634091D01*
X151602127Y-122640500D01*
X153397872Y-122640499D01*
X153457483Y-122634091D01*
X153592331Y-122583796D01*
X153707546Y-122497546D01*
X153793796Y-122382331D01*
X153844091Y-122247483D01*
X153850500Y-122187873D01*
X153850500Y-122039500D01*
X153867113Y-121977500D01*
X153912500Y-121932113D01*
X153974500Y-121915500D01*
X153979547Y-121915500D01*
X154027000Y-121924939D01*
X154067228Y-121951819D01*
X154085529Y-121970120D01*
X154088709Y-121972587D01*
X154097571Y-121980155D01*
X154104949Y-121987084D01*
X154123732Y-122004723D01*
X154123734Y-122004724D01*
X154129418Y-122010062D01*
X154136251Y-122013818D01*
X154136252Y-122013819D01*
X154146973Y-122019713D01*
X154163234Y-122030394D01*
X154179064Y-122042673D01*
X154219154Y-122060021D01*
X154229631Y-122065154D01*
X154267908Y-122086197D01*
X154284957Y-122090574D01*
X154287305Y-122091177D01*
X154305719Y-122097481D01*
X154324104Y-122105438D01*
X154367265Y-122112273D01*
X154378664Y-122114634D01*
X154420981Y-122125500D01*
X154441017Y-122125500D01*
X154460402Y-122127025D01*
X154480196Y-122130160D01*
X154518276Y-122126560D01*
X154523676Y-122126050D01*
X154535345Y-122125500D01*
X154730017Y-122125500D01*
X154796644Y-122144921D01*
X154840049Y-122194417D01*
X154840186Y-122194334D01*
X154857163Y-122221858D01*
X154928497Y-122337511D01*
X154928500Y-122337515D01*
X154932288Y-122343656D01*
X155056344Y-122467712D01*
X155062485Y-122471500D01*
X155062488Y-122471502D01*
X155100395Y-122494883D01*
X155205666Y-122559814D01*
X155372203Y-122614999D01*
X155474991Y-122625500D01*
X156525008Y-122625499D01*
X156627797Y-122614999D01*
X156794334Y-122559814D01*
X156943656Y-122467712D01*
X157067712Y-122343656D01*
X157142809Y-122221902D01*
X157187916Y-122178723D01*
X157248348Y-122163000D01*
X158138936Y-122163000D01*
X158190555Y-122174255D01*
X158232803Y-122205975D01*
X158258012Y-122252404D01*
X158272216Y-122301296D01*
X158285756Y-122347898D01*
X158289726Y-122354611D01*
X158289727Y-122354613D01*
X158365446Y-122482648D01*
X158365448Y-122482651D01*
X158369419Y-122489365D01*
X158485635Y-122605581D01*
X158492349Y-122609552D01*
X158492351Y-122609553D01*
X158519316Y-122625500D01*
X158627102Y-122689244D01*
X158784931Y-122735098D01*
X158821806Y-122738000D01*
X159250749Y-122738000D01*
X159253194Y-122738000D01*
X159290069Y-122735098D01*
X159447898Y-122689244D01*
X159589365Y-122605581D01*
X159705581Y-122489365D01*
X159789244Y-122347898D01*
X159835098Y-122190069D01*
X159838000Y-122153194D01*
X159838000Y-120987000D01*
X159854613Y-120925000D01*
X159900000Y-120879613D01*
X159962000Y-120863000D01*
X160200749Y-120863000D01*
X160203194Y-120863000D01*
X160240069Y-120860098D01*
X160397898Y-120814244D01*
X160539365Y-120730581D01*
X160655581Y-120614365D01*
X160739244Y-120472898D01*
X160777882Y-120339903D01*
X160803091Y-120293476D01*
X160845339Y-120261755D01*
X160896958Y-120250500D01*
X170514548Y-120250500D01*
X170562001Y-120259939D01*
X170602229Y-120286819D01*
X171663181Y-121347772D01*
X171690061Y-121388000D01*
X171699500Y-121435453D01*
X171699500Y-121730536D01*
X171685751Y-121787287D01*
X171647554Y-121831453D01*
X171593378Y-121853240D01*
X171535237Y-121847817D01*
X171374343Y-121792582D01*
X171364431Y-121790071D01*
X171129356Y-121750844D01*
X171119161Y-121750000D01*
X170880839Y-121750000D01*
X170870643Y-121750844D01*
X170635568Y-121790071D01*
X170625656Y-121792582D01*
X170400239Y-121869967D01*
X170390885Y-121874070D01*
X170181276Y-121987504D01*
X170172717Y-121993096D01*
X170143854Y-122015560D01*
X170135748Y-122026749D01*
X170142408Y-122038855D01*
X171265871Y-123162318D01*
X171297965Y-123217905D01*
X171297965Y-123282093D01*
X171265871Y-123337680D01*
X170142408Y-124461143D01*
X170135749Y-124473248D01*
X170143855Y-124484439D01*
X170172717Y-124506903D01*
X170181279Y-124512496D01*
X170390885Y-124625929D01*
X170400235Y-124630030D01*
X170403695Y-124631218D01*
X170460014Y-124670729D01*
X170486604Y-124734179D01*
X170475281Y-124802037D01*
X170429530Y-124853416D01*
X170363434Y-124872500D01*
X168388108Y-124872500D01*
X168322012Y-124853416D01*
X168276261Y-124802037D01*
X168264938Y-124734179D01*
X168291528Y-124670729D01*
X168345424Y-124632917D01*
X168345264Y-124632553D01*
X168347078Y-124631757D01*
X168347845Y-124631218D01*
X168354810Y-124628828D01*
X168573509Y-124510474D01*
X168769744Y-124357738D01*
X168938164Y-124174785D01*
X169074173Y-123966607D01*
X169174063Y-123738881D01*
X169235108Y-123497821D01*
X169251675Y-123297879D01*
X169268112Y-123249999D01*
X169482386Y-123249999D01*
X169498826Y-123297886D01*
X169514962Y-123492618D01*
X169516646Y-123502712D01*
X169575153Y-123733747D01*
X169578472Y-123743414D01*
X169674208Y-123961673D01*
X169679070Y-123970656D01*
X169768999Y-124108304D01*
X169776963Y-124116024D01*
X169786345Y-124110100D01*
X170634904Y-123261542D01*
X170641568Y-123249999D01*
X170634904Y-123238457D01*
X169786345Y-122389898D01*
X169776964Y-122383974D01*
X169768997Y-122391699D01*
X169679072Y-122529338D01*
X169674207Y-122538328D01*
X169578472Y-122756585D01*
X169575153Y-122766252D01*
X169516646Y-122997287D01*
X169514962Y-123007381D01*
X169498826Y-123202113D01*
X169482386Y-123249999D01*
X169268112Y-123249999D01*
X169251675Y-123202119D01*
X169235108Y-123002179D01*
X169174063Y-122761119D01*
X169092248Y-122574599D01*
X169076233Y-122538089D01*
X169076232Y-122538087D01*
X169074173Y-122533393D01*
X169052356Y-122500000D01*
X168980118Y-122389431D01*
X168938164Y-122325215D01*
X168848800Y-122228140D01*
X168773215Y-122146032D01*
X168773211Y-122146029D01*
X168769744Y-122142262D01*
X168612293Y-122019713D01*
X168577559Y-121992678D01*
X168577557Y-121992676D01*
X168573509Y-121989526D01*
X168551287Y-121977500D01*
X168359316Y-121873610D01*
X168359310Y-121873607D01*
X168354810Y-121871172D01*
X168349969Y-121869510D01*
X168349962Y-121869507D01*
X168124465Y-121792094D01*
X168124461Y-121792093D01*
X168119614Y-121790429D01*
X168100785Y-121787287D01*
X167879398Y-121750344D01*
X167879387Y-121750343D01*
X167874335Y-121749500D01*
X167625665Y-121749500D01*
X167620613Y-121750343D01*
X167620601Y-121750344D01*
X167385443Y-121789585D01*
X167385441Y-121789585D01*
X167380386Y-121790429D01*
X167375541Y-121792092D01*
X167375534Y-121792094D01*
X167150037Y-121869507D01*
X167150026Y-121869511D01*
X167145190Y-121871172D01*
X167140693Y-121873605D01*
X167140683Y-121873610D01*
X166931002Y-121987084D01*
X166930995Y-121987088D01*
X166926491Y-121989526D01*
X166922448Y-121992672D01*
X166922440Y-121992678D01*
X166734304Y-122139111D01*
X166730256Y-122142262D01*
X166726793Y-122146023D01*
X166726784Y-122146032D01*
X166565311Y-122321439D01*
X166565305Y-122321446D01*
X166561836Y-122325215D01*
X166559031Y-122329506D01*
X166559028Y-122329512D01*
X166428631Y-122529099D01*
X166428624Y-122529111D01*
X166425827Y-122533393D01*
X166423772Y-122538077D01*
X166423766Y-122538089D01*
X166336162Y-122737808D01*
X166325937Y-122761119D01*
X166324679Y-122766084D01*
X166324678Y-122766089D01*
X166266151Y-122997204D01*
X166266149Y-122997213D01*
X166264892Y-123002179D01*
X166264469Y-123007286D01*
X166264467Y-123007298D01*
X166248325Y-123202112D01*
X166244357Y-123250000D01*
X166244781Y-123255117D01*
X166264467Y-123492701D01*
X166264468Y-123492709D01*
X166264892Y-123497821D01*
X166266149Y-123502788D01*
X166266151Y-123502795D01*
X166318520Y-123709594D01*
X166325937Y-123738881D01*
X166327997Y-123743577D01*
X166423766Y-123961910D01*
X166423769Y-123961916D01*
X166425827Y-123966607D01*
X166428627Y-123970893D01*
X166428631Y-123970900D01*
X166531163Y-124127837D01*
X166561836Y-124174785D01*
X166565310Y-124178559D01*
X166565311Y-124178560D01*
X166726784Y-124353967D01*
X166726787Y-124353970D01*
X166730256Y-124357738D01*
X166926491Y-124510474D01*
X167145190Y-124628828D01*
X167152154Y-124631218D01*
X167152921Y-124631757D01*
X167154736Y-124632553D01*
X167154575Y-124632917D01*
X167208472Y-124670729D01*
X167235062Y-124734179D01*
X167223739Y-124802037D01*
X167177988Y-124853416D01*
X167111892Y-124872500D01*
X163888108Y-124872500D01*
X163822012Y-124853416D01*
X163776261Y-124802037D01*
X163764938Y-124734179D01*
X163791528Y-124670729D01*
X163845424Y-124632917D01*
X163845264Y-124632553D01*
X163847078Y-124631757D01*
X163847845Y-124631218D01*
X163854810Y-124628828D01*
X164073509Y-124510474D01*
X164269744Y-124357738D01*
X164438164Y-124174785D01*
X164574173Y-123966607D01*
X164674063Y-123738881D01*
X164735108Y-123497821D01*
X164755643Y-123250000D01*
X164735108Y-123002179D01*
X164674063Y-122761119D01*
X164592248Y-122574599D01*
X164576233Y-122538089D01*
X164576232Y-122538087D01*
X164574173Y-122533393D01*
X164552356Y-122500000D01*
X164480118Y-122389431D01*
X164438164Y-122325215D01*
X164348800Y-122228140D01*
X164273215Y-122146032D01*
X164273211Y-122146029D01*
X164269744Y-122142262D01*
X164112293Y-122019713D01*
X164077559Y-121992678D01*
X164077557Y-121992676D01*
X164073509Y-121989526D01*
X164051287Y-121977500D01*
X163859316Y-121873610D01*
X163859310Y-121873607D01*
X163854810Y-121871172D01*
X163849969Y-121869510D01*
X163849962Y-121869507D01*
X163624465Y-121792094D01*
X163624461Y-121792093D01*
X163619614Y-121790429D01*
X163600785Y-121787287D01*
X163379398Y-121750344D01*
X163379387Y-121750343D01*
X163374335Y-121749500D01*
X163125665Y-121749500D01*
X163120613Y-121750343D01*
X163120601Y-121750344D01*
X162885443Y-121789585D01*
X162885441Y-121789585D01*
X162880386Y-121790429D01*
X162875541Y-121792092D01*
X162875534Y-121792094D01*
X162650037Y-121869507D01*
X162650026Y-121869511D01*
X162645190Y-121871172D01*
X162640693Y-121873605D01*
X162640683Y-121873610D01*
X162431002Y-121987084D01*
X162430995Y-121987088D01*
X162426491Y-121989526D01*
X162422448Y-121992672D01*
X162422440Y-121992678D01*
X162234304Y-122139111D01*
X162230256Y-122142262D01*
X162226793Y-122146023D01*
X162226784Y-122146032D01*
X162065311Y-122321439D01*
X162065305Y-122321446D01*
X162061836Y-122325215D01*
X162059031Y-122329506D01*
X162059028Y-122329512D01*
X161928631Y-122529099D01*
X161928624Y-122529111D01*
X161925827Y-122533393D01*
X161923772Y-122538077D01*
X161923766Y-122538089D01*
X161836162Y-122737808D01*
X161825937Y-122761119D01*
X161824679Y-122766084D01*
X161824678Y-122766089D01*
X161766151Y-122997204D01*
X161766149Y-122997213D01*
X161764892Y-123002179D01*
X161764469Y-123007286D01*
X161764467Y-123007298D01*
X161748325Y-123202112D01*
X161744357Y-123250000D01*
X161744781Y-123255117D01*
X161764467Y-123492701D01*
X161764468Y-123492709D01*
X161764892Y-123497821D01*
X161766149Y-123502788D01*
X161766151Y-123502795D01*
X161818520Y-123709594D01*
X161825937Y-123738881D01*
X161827997Y-123743577D01*
X161923766Y-123961910D01*
X161923769Y-123961916D01*
X161925827Y-123966607D01*
X161928627Y-123970893D01*
X161928631Y-123970900D01*
X162031163Y-124127837D01*
X162061836Y-124174785D01*
X162065310Y-124178559D01*
X162065311Y-124178560D01*
X162226784Y-124353967D01*
X162226787Y-124353970D01*
X162230256Y-124357738D01*
X162426491Y-124510474D01*
X162645190Y-124628828D01*
X162652154Y-124631218D01*
X162652921Y-124631757D01*
X162654736Y-124632553D01*
X162654575Y-124632917D01*
X162708472Y-124670729D01*
X162735062Y-124734179D01*
X162723739Y-124802037D01*
X162677988Y-124853416D01*
X162611892Y-124872500D01*
X150251500Y-124872500D01*
X150189500Y-124855887D01*
X150144113Y-124810500D01*
X150127500Y-124748500D01*
X150127500Y-118497448D01*
X151172688Y-118497448D01*
X151183631Y-118500000D01*
X152233674Y-118500000D01*
X152246549Y-118496549D01*
X152250000Y-118483674D01*
X152750000Y-118483674D01*
X152753450Y-118496549D01*
X152766326Y-118500000D01*
X153816369Y-118500000D01*
X153827311Y-118497448D01*
X153826943Y-118486219D01*
X153774831Y-118291736D01*
X153771143Y-118281602D01*
X153675889Y-118077332D01*
X153670491Y-118067982D01*
X153541215Y-117883357D01*
X153534280Y-117875092D01*
X153374909Y-117715721D01*
X153366643Y-117708784D01*
X153182008Y-117579501D01*
X153172676Y-117574113D01*
X152968397Y-117478856D01*
X152958263Y-117475168D01*
X152763780Y-117423056D01*
X152752551Y-117422688D01*
X152750000Y-117433631D01*
X152750000Y-118483674D01*
X152250000Y-118483674D01*
X152250000Y-117433631D01*
X152247448Y-117422688D01*
X152236219Y-117423056D01*
X152041736Y-117475168D01*
X152031602Y-117478856D01*
X151827332Y-117574110D01*
X151817982Y-117579508D01*
X151633357Y-117708784D01*
X151625092Y-117715719D01*
X151465719Y-117875092D01*
X151458784Y-117883357D01*
X151329508Y-118067982D01*
X151324110Y-118077332D01*
X151228856Y-118281602D01*
X151225168Y-118291736D01*
X151173056Y-118486219D01*
X151172688Y-118497448D01*
X150127500Y-118497448D01*
X150127500Y-116983674D01*
X156875000Y-116983674D01*
X156878450Y-116996549D01*
X156891326Y-117000000D01*
X157696174Y-117000000D01*
X157709049Y-116996549D01*
X157712500Y-116983674D01*
X157712500Y-116041327D01*
X157709049Y-116028451D01*
X157696174Y-116025001D01*
X157578171Y-116025001D01*
X157571888Y-116025321D01*
X157479040Y-116034805D01*
X157465877Y-116037623D01*
X157312732Y-116088370D01*
X157299733Y-116094432D01*
X157162805Y-116178890D01*
X157151544Y-116187794D01*
X157037794Y-116301544D01*
X157028890Y-116312805D01*
X156944432Y-116449733D01*
X156938370Y-116462732D01*
X156887624Y-116615874D01*
X156884805Y-116629041D01*
X156875319Y-116721890D01*
X156875000Y-116728168D01*
X156875000Y-116983674D01*
X150127500Y-116983674D01*
X150127500Y-115251500D01*
X150144113Y-115189500D01*
X150189500Y-115144113D01*
X150251500Y-115127500D01*
X162611892Y-115127500D01*
X162677988Y-115146584D01*
G37*
%TD.AperFunction*%
%TA.AperFunction,Conductor*%
G36*
X178352222Y-122489522D02*
G01*
X178391326Y-122500000D01*
X179588500Y-122500000D01*
X179650500Y-122516613D01*
X179695887Y-122562000D01*
X179712500Y-122624000D01*
X179712500Y-122876000D01*
X179695887Y-122938000D01*
X179650500Y-122983387D01*
X179588500Y-123000000D01*
X178391327Y-123000000D01*
X178378451Y-123003450D01*
X178375001Y-123016326D01*
X178375001Y-123271829D01*
X178375321Y-123278111D01*
X178384805Y-123370959D01*
X178387623Y-123384122D01*
X178438370Y-123537267D01*
X178444432Y-123550266D01*
X178528890Y-123687194D01*
X178537794Y-123698455D01*
X178602158Y-123762819D01*
X178632408Y-123812182D01*
X178636950Y-123869898D01*
X178614795Y-123923385D01*
X178570772Y-123960985D01*
X178514477Y-123974500D01*
X177055216Y-123974500D01*
X176996163Y-123959536D01*
X176951363Y-123918254D01*
X176931630Y-123860619D01*
X176941725Y-123800542D01*
X176979213Y-123752523D01*
X176979706Y-123752140D01*
X176986420Y-123748170D01*
X177000584Y-123734005D01*
X177015379Y-123721368D01*
X177031587Y-123709594D01*
X177059428Y-123675938D01*
X177067279Y-123667309D01*
X178220104Y-122514484D01*
X178275687Y-122482393D01*
X178339875Y-122482393D01*
X178352222Y-122489522D01*
G37*
%TD.AperFunction*%
%TA.AperFunction,Conductor*%
G36*
X178848096Y-115145211D02*
G01*
X178893717Y-115193286D01*
X178908061Y-115257991D01*
X178887031Y-115320841D01*
X178836634Y-115363883D01*
X178824732Y-115369432D01*
X178687805Y-115453890D01*
X178676544Y-115462794D01*
X178562794Y-115576544D01*
X178553890Y-115587805D01*
X178469432Y-115724733D01*
X178463370Y-115737732D01*
X178412624Y-115890874D01*
X178409805Y-115904041D01*
X178400319Y-115996890D01*
X178400000Y-116003168D01*
X178400000Y-116233674D01*
X178403450Y-116246549D01*
X178416326Y-116250000D01*
X179626000Y-116250000D01*
X179688000Y-116266613D01*
X179733387Y-116312000D01*
X179750000Y-116374000D01*
X179750000Y-117683673D01*
X179753450Y-117696548D01*
X179766326Y-117699999D01*
X179896829Y-117699999D01*
X179903111Y-117699678D01*
X179995959Y-117690194D01*
X180009122Y-117687376D01*
X180162267Y-117636629D01*
X180175266Y-117630567D01*
X180312194Y-117546109D01*
X180323450Y-117537209D01*
X180411964Y-117448695D01*
X180467552Y-117416601D01*
X180531739Y-117416601D01*
X180587327Y-117448695D01*
X180681344Y-117542712D01*
X180687485Y-117546500D01*
X180687488Y-117546502D01*
X180732253Y-117574113D01*
X180830666Y-117634814D01*
X180837524Y-117637086D01*
X180844066Y-117640137D01*
X180843083Y-117642244D01*
X180882280Y-117666908D01*
X180912078Y-117718367D01*
X180919204Y-117742896D01*
X180919206Y-117742900D01*
X180921382Y-117750390D01*
X180925353Y-117757105D01*
X180925354Y-117757107D01*
X180931581Y-117767637D01*
X180940136Y-117785099D01*
X180944642Y-117796480D01*
X180944643Y-117796483D01*
X180947514Y-117803732D01*
X180955368Y-117814542D01*
X180956067Y-117815504D01*
X180978006Y-117867681D01*
X180974471Y-117924172D01*
X180946199Y-117973207D01*
X180899080Y-118004569D01*
X180827669Y-118031204D01*
X180820572Y-118036516D01*
X180820568Y-118036519D01*
X180719550Y-118112141D01*
X180719546Y-118112144D01*
X180712454Y-118117454D01*
X180707144Y-118124546D01*
X180707141Y-118124550D01*
X180631519Y-118225568D01*
X180631516Y-118225572D01*
X180626204Y-118232669D01*
X180619554Y-118250500D01*
X180616182Y-118259540D01*
X180582533Y-118308750D01*
X180529807Y-118336570D01*
X180470193Y-118336570D01*
X180417467Y-118308750D01*
X180383818Y-118259540D01*
X180373796Y-118232669D01*
X180287546Y-118117454D01*
X180172331Y-118031204D01*
X180100919Y-118004569D01*
X180044752Y-117983620D01*
X180044750Y-117983619D01*
X180037483Y-117980909D01*
X180029770Y-117980079D01*
X180029767Y-117980079D01*
X179981180Y-117974855D01*
X179981169Y-117974854D01*
X179977873Y-117974500D01*
X179974550Y-117974500D01*
X178325439Y-117974500D01*
X178325420Y-117974500D01*
X178322128Y-117974501D01*
X178318850Y-117974853D01*
X178318838Y-117974854D01*
X178270231Y-117980079D01*
X178270225Y-117980080D01*
X178262517Y-117980909D01*
X178255252Y-117983618D01*
X178255246Y-117983620D01*
X178135980Y-118028104D01*
X178135978Y-118028104D01*
X178127669Y-118031204D01*
X178120572Y-118036516D01*
X178120568Y-118036519D01*
X178019550Y-118112141D01*
X178019546Y-118112144D01*
X178012454Y-118117454D01*
X178007144Y-118124546D01*
X178007141Y-118124550D01*
X177931519Y-118225568D01*
X177931516Y-118225572D01*
X177926204Y-118232669D01*
X177916182Y-118259540D01*
X177877520Y-118363197D01*
X177843183Y-118413016D01*
X177789359Y-118440656D01*
X177728863Y-118439535D01*
X177676100Y-118409921D01*
X177643631Y-118358864D01*
X177636628Y-118337731D01*
X177630567Y-118324733D01*
X177546109Y-118187805D01*
X177537205Y-118176544D01*
X177423455Y-118062794D01*
X177412194Y-118053890D01*
X177275266Y-117969432D01*
X177262267Y-117963370D01*
X177109125Y-117912624D01*
X177095958Y-117909805D01*
X177003109Y-117900319D01*
X176996832Y-117900000D01*
X176763531Y-117900000D01*
X176708152Y-117886946D01*
X176664432Y-117850534D01*
X176641576Y-117798430D01*
X176644397Y-117741603D01*
X176672301Y-117692018D01*
X176684683Y-117678567D01*
X176684686Y-117678562D01*
X176688164Y-117674785D01*
X176824173Y-117466607D01*
X176924063Y-117238881D01*
X176985108Y-116997821D01*
X176985190Y-116996829D01*
X178400001Y-116996829D01*
X178400321Y-117003111D01*
X178409805Y-117095959D01*
X178412623Y-117109122D01*
X178463370Y-117262267D01*
X178469432Y-117275266D01*
X178553890Y-117412194D01*
X178562794Y-117423455D01*
X178676544Y-117537205D01*
X178687805Y-117546109D01*
X178824733Y-117630567D01*
X178837732Y-117636629D01*
X178990874Y-117687375D01*
X179004041Y-117690194D01*
X179096890Y-117699680D01*
X179103168Y-117700000D01*
X179233674Y-117700000D01*
X179246549Y-117696549D01*
X179250000Y-117683674D01*
X179250000Y-116766326D01*
X179246549Y-116753450D01*
X179233674Y-116750000D01*
X178416327Y-116750000D01*
X178403451Y-116753450D01*
X178400001Y-116766326D01*
X178400001Y-116996829D01*
X176985190Y-116996829D01*
X177005643Y-116750000D01*
X176985108Y-116502179D01*
X176924063Y-116261119D01*
X176831714Y-116050585D01*
X176826233Y-116038089D01*
X176826232Y-116038087D01*
X176824173Y-116033393D01*
X176820944Y-116028451D01*
X176722594Y-115877914D01*
X176688164Y-115825215D01*
X176659829Y-115794435D01*
X176523215Y-115646032D01*
X176523211Y-115646029D01*
X176519744Y-115642262D01*
X176371333Y-115526749D01*
X176327559Y-115492678D01*
X176327557Y-115492676D01*
X176323509Y-115489526D01*
X176273372Y-115462393D01*
X176109316Y-115373610D01*
X176109310Y-115373607D01*
X176104810Y-115371172D01*
X176097845Y-115368781D01*
X176097078Y-115368242D01*
X176095264Y-115367447D01*
X176095424Y-115367082D01*
X176041528Y-115329271D01*
X176014938Y-115265821D01*
X176026261Y-115197963D01*
X176072012Y-115146584D01*
X176138108Y-115127500D01*
X178784231Y-115127500D01*
X178848096Y-115145211D01*
G37*
%TD.AperFunction*%
%TD*%
D22*
X150000000Y-115000000D02*
X150000000Y-125000000D01*
X200000000Y-115000000D02*
X150000000Y-115000000D01*
X200000000Y-125000000D02*
X200000000Y-115000000D01*
X150000000Y-125000000D02*
X200000000Y-125000000D01*
M02*
