%TF.GenerationSoftware,KiCad,Pcbnew,(7.0.0)*%
%TF.CreationDate,2023-10-10T00:17:12-02:30*%
%TF.ProjectId,PCB_Flashlight,5043425f-466c-4617-9368-6c696768742e,0*%
%TF.SameCoordinates,Original*%
%TF.FileFunction,Copper,L2,Bot*%
%TF.FilePolarity,Positive*%
%FSLAX46Y46*%
G04 Gerber Fmt 4.6, Leading zero omitted, Abs format (unit mm)*
G04 Created by KiCad (PCBNEW (7.0.0)) date 2023-10-10 00:17:12*
%MOMM*%
%LPD*%
G01*
G04 APERTURE LIST*
G04 Aperture macros list*
%AMRoundRect*
0 Rectangle with rounded corners*
0 $1 Rounding radius*
0 $2 $3 $4 $5 $6 $7 $8 $9 X,Y pos of 4 corners*
0 Add a 4 corners polygon primitive as box body*
4,1,4,$2,$3,$4,$5,$6,$7,$8,$9,$2,$3,0*
0 Add four circle primitives for the rounded corners*
1,1,$1+$1,$2,$3*
1,1,$1+$1,$4,$5*
1,1,$1+$1,$6,$7*
1,1,$1+$1,$8,$9*
0 Add four rect primitives between the rounded corners*
20,1,$1+$1,$2,$3,$4,$5,0*
20,1,$1+$1,$4,$5,$6,$7,0*
20,1,$1+$1,$6,$7,$8,$9,0*
20,1,$1+$1,$8,$9,$2,$3,0*%
G04 Aperture macros list end*
%TA.AperFunction,ComponentPad*%
%ADD10C,2.000000*%
%TD*%
%TA.AperFunction,SMDPad,CuDef*%
%ADD11RoundRect,0.250000X0.450000X-0.350000X0.450000X0.350000X-0.450000X0.350000X-0.450000X-0.350000X0*%
%TD*%
%TA.AperFunction,SMDPad,CuDef*%
%ADD12RoundRect,0.250000X-0.450000X0.350000X-0.450000X-0.350000X0.450000X-0.350000X0.450000X0.350000X0*%
%TD*%
%TA.AperFunction,ComponentPad*%
%ADD13O,1.700000X1.700000*%
%TD*%
%TA.AperFunction,ComponentPad*%
%ADD14R,1.700000X1.700000*%
%TD*%
%TA.AperFunction,ViaPad*%
%ADD15C,0.600000*%
%TD*%
%TA.AperFunction,Conductor*%
%ADD16C,0.250000*%
%TD*%
%TA.AperFunction,Profile*%
%ADD17C,0.100000*%
%TD*%
G04 APERTURE END LIST*
D10*
%TO.P,SW2,2,2*%
%TO.N,/BLINK_nON*%
X68250000Y-142750000D03*
X61750000Y-142750000D03*
%TO.P,SW2,1,1*%
%TO.N,GND*%
X68250000Y-147250000D03*
X61750000Y-147250000D03*
%TD*%
%TO.P,SW1,2,2*%
%TO.N,Net-(R6-Pad1)*%
X71250000Y-147250000D03*
X77750000Y-147250000D03*
%TO.P,SW1,1,1*%
%TO.N,+9V*%
X71250000Y-142750000D03*
X77750000Y-142750000D03*
%TD*%
D11*
%TO.P,R4,2*%
%TO.N,GND*%
X87000000Y-142000000D03*
%TO.P,R4,1*%
%TO.N,Net-(U1-DIV)*%
X87000000Y-144000000D03*
%TD*%
D12*
%TO.P,R3,2*%
%TO.N,Net-(U1-DIV)*%
X89250000Y-144000000D03*
%TO.P,R3,1*%
%TO.N,+5V*%
X89250000Y-142000000D03*
%TD*%
D13*
%TO.P,BT1,2,-*%
%TO.N,GND*%
X52249999Y-146499999D03*
D14*
%TO.P,BT1,1,+*%
%TO.N,+9V*%
X52249999Y-143959999D03*
%TD*%
D15*
%TO.N,GND*%
X88000000Y-146750000D03*
X99000000Y-141000000D03*
X98000000Y-149250000D03*
X75500000Y-141500000D03*
X73500000Y-141500000D03*
X58500000Y-144500000D03*
%TO.N,+5V*%
X81150500Y-141750000D03*
%TO.N,GND*%
X67750000Y-140750000D03*
X54750000Y-143500000D03*
X54750000Y-147000000D03*
X73250000Y-143750000D03*
X75500000Y-143750000D03*
X79750000Y-145250000D03*
X83500000Y-146000000D03*
X93250000Y-147500000D03*
X93250000Y-145000000D03*
%TO.N,+5V*%
X88250000Y-142750000D03*
%TO.N,+9V*%
X69750000Y-146500000D03*
%TO.N,Net-(U1-DIV)*%
X88000000Y-145250000D03*
%TD*%
D16*
%TO.N,+9V*%
X69750000Y-144250000D02*
X71250000Y-142750000D01*
X69750000Y-146500000D02*
X69750000Y-144250000D01*
%TO.N,+5V*%
X82325500Y-142925000D02*
X81150500Y-141750000D01*
X88075000Y-142925000D02*
X82325500Y-142925000D01*
X88250000Y-142750000D02*
X88075000Y-142925000D01*
X89000000Y-142000000D02*
X88250000Y-142750000D01*
X89250000Y-142000000D02*
X89000000Y-142000000D01*
%TO.N,Net-(U1-DIV)*%
X87000000Y-144250000D02*
X88000000Y-145250000D01*
X87000000Y-144000000D02*
X87000000Y-144250000D01*
X87000000Y-144000000D02*
X89250000Y-144000000D01*
%TD*%
%TA.AperFunction,Conductor*%
%TO.N,GND*%
G36*
X99854194Y-140145806D02*
G01*
X99872500Y-140190000D01*
X99872500Y-149810000D01*
X99854194Y-149854194D01*
X99810000Y-149872500D01*
X50190000Y-149872500D01*
X50145806Y-149854194D01*
X50127500Y-149810000D01*
X50127500Y-148473428D01*
X60882868Y-148473428D01*
X60886953Y-148479067D01*
X60924732Y-148508471D01*
X60929034Y-148511281D01*
X61143115Y-148627135D01*
X61147837Y-148629207D01*
X61378067Y-148708245D01*
X61383058Y-148709509D01*
X61623156Y-148749574D01*
X61628293Y-148750000D01*
X61871707Y-148750000D01*
X61876843Y-148749574D01*
X62116941Y-148709509D01*
X62121932Y-148708245D01*
X62352162Y-148629207D01*
X62356884Y-148627135D01*
X62570961Y-148511284D01*
X62575275Y-148508464D01*
X62613043Y-148479068D01*
X62617129Y-148473428D01*
X67382868Y-148473428D01*
X67386953Y-148479067D01*
X67424732Y-148508471D01*
X67429034Y-148511281D01*
X67643115Y-148627135D01*
X67647837Y-148629207D01*
X67878067Y-148708245D01*
X67883058Y-148709509D01*
X68123156Y-148749574D01*
X68128293Y-148750000D01*
X68371707Y-148750000D01*
X68376843Y-148749574D01*
X68616941Y-148709509D01*
X68621932Y-148708245D01*
X68852162Y-148629207D01*
X68856884Y-148627135D01*
X69070961Y-148511284D01*
X69075275Y-148508464D01*
X69113043Y-148479068D01*
X69117129Y-148473428D01*
X69113772Y-148467325D01*
X68258790Y-147612343D01*
X68250000Y-147608702D01*
X68241209Y-147612343D01*
X67386225Y-148467326D01*
X67382868Y-148473428D01*
X62617129Y-148473428D01*
X62613772Y-148467325D01*
X61758790Y-147612343D01*
X61750000Y-147608702D01*
X61741209Y-147612343D01*
X60886225Y-148467326D01*
X60882868Y-148473428D01*
X50127500Y-148473428D01*
X50127500Y-146759293D01*
X50921854Y-146759293D01*
X50975862Y-146960854D01*
X50977721Y-146965963D01*
X51075247Y-147175107D01*
X51077963Y-147179811D01*
X51210323Y-147368840D01*
X51213823Y-147373011D01*
X51376988Y-147536176D01*
X51381159Y-147539676D01*
X51570188Y-147672036D01*
X51574892Y-147674752D01*
X51784036Y-147772278D01*
X51789145Y-147774137D01*
X51990706Y-147828145D01*
X51997850Y-147827833D01*
X52000000Y-147821018D01*
X52500000Y-147821018D01*
X52502149Y-147827833D01*
X52509293Y-147828145D01*
X52710854Y-147774137D01*
X52715963Y-147772278D01*
X52925107Y-147674752D01*
X52929811Y-147672036D01*
X53118840Y-147539676D01*
X53123011Y-147536176D01*
X53286176Y-147373011D01*
X53289676Y-147368840D01*
X53371089Y-147252571D01*
X60245072Y-147252571D01*
X60265173Y-147495159D01*
X60266023Y-147500251D01*
X60325776Y-147736207D01*
X60327450Y-147741086D01*
X60425227Y-147963996D01*
X60427685Y-147968537D01*
X60521462Y-148112074D01*
X60526902Y-148116617D01*
X60533157Y-148113288D01*
X61390626Y-147255820D01*
X61393987Y-147250000D01*
X62108702Y-147250000D01*
X62112343Y-147258790D01*
X62966841Y-148113288D01*
X62973096Y-148116617D01*
X62978535Y-148112075D01*
X63072320Y-147968527D01*
X63074769Y-147964003D01*
X63172549Y-147741086D01*
X63174223Y-147736207D01*
X63233976Y-147500251D01*
X63234826Y-147495159D01*
X63254928Y-147252571D01*
X66745072Y-147252571D01*
X66765173Y-147495159D01*
X66766023Y-147500251D01*
X66825776Y-147736207D01*
X66827450Y-147741086D01*
X66925227Y-147963996D01*
X66927685Y-147968537D01*
X67021462Y-148112074D01*
X67026902Y-148116617D01*
X67033157Y-148113288D01*
X67890626Y-147255820D01*
X67893987Y-147250000D01*
X67890626Y-147244179D01*
X67033157Y-146386710D01*
X67026902Y-146383381D01*
X67021462Y-146387924D01*
X66927685Y-146531462D01*
X66925227Y-146536003D01*
X66827450Y-146758913D01*
X66825776Y-146763792D01*
X66766023Y-146999748D01*
X66765173Y-147004840D01*
X66745072Y-147247429D01*
X66745072Y-147252571D01*
X63254928Y-147252571D01*
X63254928Y-147247429D01*
X63234826Y-147004840D01*
X63233976Y-146999748D01*
X63174223Y-146763792D01*
X63172549Y-146758913D01*
X63074772Y-146536003D01*
X63072314Y-146531462D01*
X62978536Y-146387924D01*
X62973096Y-146383381D01*
X62966841Y-146386710D01*
X62112343Y-147241209D01*
X62108702Y-147250000D01*
X61393987Y-147250000D01*
X61390626Y-147244179D01*
X60533157Y-146386710D01*
X60526902Y-146383381D01*
X60521462Y-146387924D01*
X60427685Y-146531462D01*
X60425227Y-146536003D01*
X60327450Y-146758913D01*
X60325776Y-146763792D01*
X60266023Y-146999748D01*
X60265173Y-147004840D01*
X60245072Y-147247429D01*
X60245072Y-147252571D01*
X53371089Y-147252571D01*
X53422036Y-147179811D01*
X53424752Y-147175107D01*
X53522278Y-146965963D01*
X53524137Y-146960854D01*
X53578145Y-146759293D01*
X53577833Y-146752149D01*
X53571018Y-146750000D01*
X52512431Y-146750000D01*
X52503641Y-146753641D01*
X52500000Y-146762431D01*
X52500000Y-147821018D01*
X52000000Y-147821018D01*
X52000000Y-146762431D01*
X51996358Y-146753641D01*
X51987569Y-146750000D01*
X50928982Y-146750000D01*
X50922166Y-146752149D01*
X50921854Y-146759293D01*
X50127500Y-146759293D01*
X50127500Y-144856224D01*
X50899500Y-144856224D01*
X50899501Y-144857872D01*
X50905909Y-144917483D01*
X50907274Y-144921144D01*
X50907275Y-144921146D01*
X50914358Y-144940136D01*
X50956204Y-145052331D01*
X51042454Y-145167546D01*
X51157669Y-145253796D01*
X51292517Y-145304091D01*
X51352127Y-145310500D01*
X51396906Y-145310499D01*
X51433861Y-145322595D01*
X51456512Y-145354204D01*
X51456088Y-145393088D01*
X51432754Y-145424195D01*
X51381163Y-145460320D01*
X51376990Y-145463821D01*
X51213821Y-145626990D01*
X51210322Y-145631160D01*
X51077966Y-145820184D01*
X51075246Y-145824896D01*
X50977721Y-146034036D01*
X50975862Y-146039145D01*
X50921854Y-146240706D01*
X50922166Y-146247850D01*
X50928982Y-146250000D01*
X53571018Y-146250000D01*
X53577833Y-146247850D01*
X53578145Y-146240706D01*
X53524137Y-146039145D01*
X53522278Y-146034036D01*
X53518796Y-146026570D01*
X60882868Y-146026570D01*
X60886225Y-146032672D01*
X61744179Y-146890626D01*
X61749999Y-146893987D01*
X61755820Y-146890626D01*
X62613773Y-146032672D01*
X62617130Y-146026570D01*
X62613045Y-146020931D01*
X62575267Y-145991528D01*
X62570965Y-145988718D01*
X62356884Y-145872864D01*
X62352162Y-145870792D01*
X62121932Y-145791754D01*
X62116941Y-145790490D01*
X61876843Y-145750425D01*
X61871707Y-145750000D01*
X61628293Y-145750000D01*
X61623156Y-145750425D01*
X61383058Y-145790490D01*
X61378067Y-145791754D01*
X61147837Y-145870792D01*
X61143115Y-145872864D01*
X60929035Y-145988717D01*
X60924728Y-145991531D01*
X60886954Y-146020931D01*
X60882868Y-146026570D01*
X53518796Y-146026570D01*
X53424753Y-145824896D01*
X53422033Y-145820184D01*
X53289677Y-145631160D01*
X53286178Y-145626990D01*
X53123011Y-145463823D01*
X53118840Y-145460323D01*
X53067246Y-145424196D01*
X53043912Y-145393089D01*
X53043488Y-145354205D01*
X53066138Y-145322596D01*
X53103094Y-145310499D01*
X53147872Y-145310499D01*
X53207483Y-145304091D01*
X53342331Y-145253796D01*
X53457546Y-145167546D01*
X53543796Y-145052331D01*
X53594091Y-144917483D01*
X53600500Y-144857873D01*
X53600499Y-143062128D01*
X53594091Y-143002517D01*
X53543796Y-142867669D01*
X53457546Y-142752454D01*
X53454268Y-142750000D01*
X60244357Y-142750000D01*
X60244570Y-142752571D01*
X60263348Y-142979194D01*
X60264892Y-142997821D01*
X60265527Y-143000329D01*
X60265528Y-143000334D01*
X60312151Y-143184441D01*
X60325937Y-143238881D01*
X60326972Y-143241241D01*
X60326975Y-143241249D01*
X60424786Y-143464235D01*
X60424788Y-143464240D01*
X60425827Y-143466607D01*
X60561836Y-143674785D01*
X60730256Y-143857738D01*
X60926491Y-144010474D01*
X60928758Y-144011701D01*
X60928763Y-144011704D01*
X60986891Y-144043161D01*
X61145190Y-144128828D01*
X61380386Y-144209571D01*
X61625665Y-144250500D01*
X61871748Y-144250500D01*
X61874335Y-144250500D01*
X62119614Y-144209571D01*
X62354810Y-144128828D01*
X62573509Y-144010474D01*
X62769744Y-143857738D01*
X62938164Y-143674785D01*
X63074173Y-143466607D01*
X63174063Y-143238881D01*
X63235108Y-142997821D01*
X63255643Y-142750000D01*
X66744357Y-142750000D01*
X66744570Y-142752571D01*
X66763348Y-142979194D01*
X66764892Y-142997821D01*
X66765527Y-143000329D01*
X66765528Y-143000334D01*
X66812151Y-143184441D01*
X66825937Y-143238881D01*
X66826972Y-143241241D01*
X66826975Y-143241249D01*
X66924786Y-143464235D01*
X66924788Y-143464240D01*
X66925827Y-143466607D01*
X67061836Y-143674785D01*
X67230256Y-143857738D01*
X67426491Y-144010474D01*
X67428758Y-144011701D01*
X67428763Y-144011704D01*
X67486891Y-144043161D01*
X67645190Y-144128828D01*
X67880386Y-144209571D01*
X68125665Y-144250500D01*
X68371748Y-144250500D01*
X68374335Y-144250500D01*
X68619614Y-144209571D01*
X68854810Y-144128828D01*
X69050979Y-144022666D01*
X69095898Y-144017004D01*
X69132856Y-144043161D01*
X69142454Y-144087410D01*
X69137274Y-144120111D01*
X69136083Y-144125865D01*
X69125476Y-144167176D01*
X69125475Y-144167182D01*
X69124500Y-144170981D01*
X69124500Y-144174910D01*
X69124500Y-144195851D01*
X69123731Y-144205628D01*
X69120454Y-144226316D01*
X69120453Y-144226320D01*
X69119840Y-144230196D01*
X69120209Y-144234101D01*
X69120209Y-144234106D01*
X69124223Y-144276563D01*
X69124500Y-144282445D01*
X69124500Y-145912801D01*
X69110245Y-145952534D01*
X69073982Y-145974142D01*
X69032253Y-145967768D01*
X68856884Y-145872864D01*
X68852162Y-145870792D01*
X68621932Y-145791754D01*
X68616941Y-145790490D01*
X68376843Y-145750425D01*
X68371707Y-145750000D01*
X68128293Y-145750000D01*
X68123156Y-145750425D01*
X67883058Y-145790490D01*
X67878067Y-145791754D01*
X67647837Y-145870792D01*
X67643115Y-145872864D01*
X67429035Y-145988717D01*
X67424728Y-145991531D01*
X67386954Y-146020931D01*
X67382868Y-146026570D01*
X67386225Y-146032672D01*
X69466841Y-148113288D01*
X69473096Y-148116617D01*
X69478535Y-148112075D01*
X69572320Y-147968527D01*
X69574769Y-147964003D01*
X69672549Y-147741086D01*
X69674220Y-147736215D01*
X69689153Y-147677247D01*
X69711352Y-147643268D01*
X69749740Y-147630089D01*
X69788129Y-147643267D01*
X69810328Y-147677245D01*
X69825301Y-147736372D01*
X69825303Y-147736379D01*
X69825937Y-147738881D01*
X69826972Y-147741241D01*
X69826975Y-147741249D01*
X69924786Y-147964235D01*
X69924788Y-147964240D01*
X69925827Y-147966607D01*
X70061836Y-148174785D01*
X70230256Y-148357738D01*
X70426491Y-148510474D01*
X70428758Y-148511701D01*
X70428763Y-148511704D01*
X70509677Y-148555492D01*
X70645190Y-148628828D01*
X70880386Y-148709571D01*
X71125665Y-148750500D01*
X71371748Y-148750500D01*
X71374335Y-148750500D01*
X71619614Y-148709571D01*
X71854810Y-148628828D01*
X72073509Y-148510474D01*
X72269744Y-148357738D01*
X72438164Y-148174785D01*
X72574173Y-147966607D01*
X72674063Y-147738881D01*
X72735108Y-147497821D01*
X72755643Y-147250000D01*
X76244357Y-147250000D01*
X76264892Y-147497821D01*
X76265527Y-147500329D01*
X76265528Y-147500334D01*
X76310329Y-147677247D01*
X76325937Y-147738881D01*
X76326972Y-147741241D01*
X76326975Y-147741249D01*
X76424786Y-147964235D01*
X76424788Y-147964240D01*
X76425827Y-147966607D01*
X76561836Y-148174785D01*
X76730256Y-148357738D01*
X76926491Y-148510474D01*
X76928758Y-148511701D01*
X76928763Y-148511704D01*
X77009677Y-148555492D01*
X77145190Y-148628828D01*
X77380386Y-148709571D01*
X77625665Y-148750500D01*
X77871748Y-148750500D01*
X77874335Y-148750500D01*
X78119614Y-148709571D01*
X78354810Y-148628828D01*
X78573509Y-148510474D01*
X78769744Y-148357738D01*
X78938164Y-148174785D01*
X79074173Y-147966607D01*
X79174063Y-147738881D01*
X79235108Y-147497821D01*
X79255643Y-147250000D01*
X79235108Y-147002179D01*
X79174063Y-146761119D01*
X79170128Y-146752149D01*
X79075213Y-146535764D01*
X79074173Y-146533393D01*
X78938164Y-146325215D01*
X78769744Y-146142262D01*
X78573509Y-145989526D01*
X78571244Y-145988300D01*
X78571236Y-145988295D01*
X78408704Y-145900338D01*
X78354810Y-145871172D01*
X78352366Y-145870333D01*
X78352364Y-145870332D01*
X78122056Y-145791267D01*
X78122052Y-145791266D01*
X78119614Y-145790429D01*
X78117072Y-145790004D01*
X78117065Y-145790003D01*
X77876884Y-145749925D01*
X77876879Y-145749924D01*
X77874335Y-145749500D01*
X77625665Y-145749500D01*
X77623121Y-145749924D01*
X77623115Y-145749925D01*
X77382934Y-145790003D01*
X77382924Y-145790005D01*
X77380386Y-145790429D01*
X77377950Y-145791265D01*
X77377943Y-145791267D01*
X77147635Y-145870332D01*
X77147628Y-145870334D01*
X77145190Y-145871172D01*
X77142915Y-145872402D01*
X77142913Y-145872404D01*
X76928763Y-145988295D01*
X76928750Y-145988303D01*
X76926491Y-145989526D01*
X76924451Y-145991113D01*
X76924449Y-145991115D01*
X76732300Y-146140670D01*
X76732292Y-146140677D01*
X76730256Y-146142262D01*
X76728504Y-146144164D01*
X76728503Y-146144166D01*
X76563584Y-146323315D01*
X76563578Y-146323322D01*
X76561836Y-146325215D01*
X76560426Y-146327372D01*
X76560423Y-146327377D01*
X76427244Y-146531223D01*
X76427240Y-146531229D01*
X76425827Y-146533393D01*
X76424791Y-146535754D01*
X76424786Y-146535764D01*
X76326975Y-146758750D01*
X76326970Y-146758761D01*
X76325937Y-146761119D01*
X76325302Y-146763624D01*
X76325301Y-146763629D01*
X76265528Y-146999665D01*
X76265526Y-146999672D01*
X76264892Y-147002179D01*
X76264678Y-147004752D01*
X76264678Y-147004757D01*
X76254316Y-147129816D01*
X76244357Y-147250000D01*
X72755643Y-147250000D01*
X72735108Y-147002179D01*
X72674063Y-146761119D01*
X72670128Y-146752149D01*
X72575213Y-146535764D01*
X72574173Y-146533393D01*
X72438164Y-146325215D01*
X72269744Y-146142262D01*
X72073509Y-145989526D01*
X72071244Y-145988300D01*
X72071236Y-145988295D01*
X71908704Y-145900338D01*
X71854810Y-145871172D01*
X71852366Y-145870333D01*
X71852364Y-145870332D01*
X71622056Y-145791267D01*
X71622052Y-145791266D01*
X71619614Y-145790429D01*
X71617072Y-145790004D01*
X71617065Y-145790003D01*
X71376884Y-145749925D01*
X71376879Y-145749924D01*
X71374335Y-145749500D01*
X71125665Y-145749500D01*
X71123121Y-145749924D01*
X71123115Y-145749925D01*
X70882934Y-145790003D01*
X70882924Y-145790005D01*
X70880386Y-145790429D01*
X70877950Y-145791265D01*
X70877943Y-145791267D01*
X70647635Y-145870332D01*
X70647628Y-145870334D01*
X70645190Y-145871172D01*
X70642915Y-145872402D01*
X70642913Y-145872404D01*
X70467747Y-145967199D01*
X70426018Y-145973573D01*
X70389755Y-145951965D01*
X70375500Y-145912232D01*
X70375500Y-144534978D01*
X70393806Y-144490784D01*
X70407889Y-144476700D01*
X70699917Y-144184671D01*
X70730022Y-144167975D01*
X70764403Y-144169754D01*
X70877932Y-144208729D01*
X70877937Y-144208730D01*
X70880386Y-144209571D01*
X71125665Y-144250500D01*
X71371748Y-144250500D01*
X71374335Y-144250500D01*
X71619614Y-144209571D01*
X71854810Y-144128828D01*
X72073509Y-144010474D01*
X72269744Y-143857738D01*
X72438164Y-143674785D01*
X72574173Y-143466607D01*
X72674063Y-143238881D01*
X72735108Y-142997821D01*
X72755643Y-142750000D01*
X76244357Y-142750000D01*
X76244570Y-142752571D01*
X76263348Y-142979194D01*
X76264892Y-142997821D01*
X76265527Y-143000329D01*
X76265528Y-143000334D01*
X76312151Y-143184441D01*
X76325937Y-143238881D01*
X76326972Y-143241241D01*
X76326975Y-143241249D01*
X76424786Y-143464235D01*
X76424788Y-143464240D01*
X76425827Y-143466607D01*
X76561836Y-143674785D01*
X76730256Y-143857738D01*
X76926491Y-144010474D01*
X76928758Y-144011701D01*
X76928763Y-144011704D01*
X76986891Y-144043161D01*
X77145190Y-144128828D01*
X77380386Y-144209571D01*
X77625665Y-144250500D01*
X77871748Y-144250500D01*
X77874335Y-144250500D01*
X78119614Y-144209571D01*
X78354810Y-144128828D01*
X78573509Y-144010474D01*
X78769744Y-143857738D01*
X78938164Y-143674785D01*
X79074173Y-143466607D01*
X79174063Y-143238881D01*
X79235108Y-142997821D01*
X79255643Y-142750000D01*
X79235108Y-142502179D01*
X79174063Y-142261119D01*
X79074173Y-142033393D01*
X78938164Y-141825215D01*
X78868924Y-141750000D01*
X80344935Y-141750000D01*
X80345328Y-141753488D01*
X80353195Y-141823315D01*
X80365132Y-141929255D01*
X80366289Y-141932563D01*
X80366290Y-141932565D01*
X80398358Y-142024211D01*
X80424711Y-142099522D01*
X80520684Y-142252262D01*
X80648238Y-142379816D01*
X80800978Y-142475789D01*
X80883764Y-142504757D01*
X80967935Y-142534210D01*
X80967936Y-142534210D01*
X80971245Y-142535368D01*
X81039708Y-142543081D01*
X81076904Y-142560994D01*
X81829498Y-143313589D01*
X81835073Y-143320547D01*
X81835099Y-143320526D01*
X81837607Y-143323558D01*
X81839714Y-143326877D01*
X81889412Y-143373547D01*
X81890822Y-143374913D01*
X81911029Y-143395120D01*
X81916486Y-143399353D01*
X81920960Y-143403174D01*
X81935561Y-143416885D01*
X81954918Y-143435062D01*
X81958358Y-143436953D01*
X81958362Y-143436956D01*
X81976717Y-143447046D01*
X81984914Y-143452430D01*
X82004564Y-143467673D01*
X82008171Y-143469234D01*
X82008173Y-143469235D01*
X82047312Y-143486172D01*
X82052599Y-143488763D01*
X82089958Y-143509301D01*
X82089962Y-143509302D01*
X82093408Y-143511197D01*
X82114152Y-143516522D01*
X82117495Y-143517381D01*
X82126778Y-143520559D01*
X82149604Y-143530438D01*
X82195619Y-143537725D01*
X82201370Y-143538917D01*
X82246481Y-143550500D01*
X82271351Y-143550500D01*
X82281128Y-143551269D01*
X82305696Y-143555160D01*
X82352062Y-143550777D01*
X82357945Y-143550500D01*
X85737000Y-143550500D01*
X85781194Y-143568806D01*
X85799500Y-143613000D01*
X85799500Y-144398411D01*
X85799500Y-144398430D01*
X85799501Y-144400008D01*
X85799662Y-144401587D01*
X85799663Y-144401600D01*
X85808774Y-144490784D01*
X85810001Y-144502797D01*
X85811072Y-144506030D01*
X85811073Y-144506033D01*
X85864041Y-144665881D01*
X85864043Y-144665886D01*
X85865186Y-144669334D01*
X85867093Y-144672425D01*
X85867095Y-144672430D01*
X85955377Y-144815558D01*
X85957288Y-144818656D01*
X86081344Y-144942712D01*
X86230666Y-145034814D01*
X86234117Y-145035957D01*
X86234118Y-145035958D01*
X86294323Y-145055908D01*
X86397203Y-145089999D01*
X86400598Y-145090345D01*
X86400599Y-145090346D01*
X86414371Y-145091752D01*
X86499991Y-145100500D01*
X86940021Y-145100499D01*
X86963939Y-145105257D01*
X86984215Y-145118805D01*
X87189004Y-145323594D01*
X87206917Y-145360789D01*
X87210557Y-145393089D01*
X87214632Y-145429255D01*
X87274211Y-145599522D01*
X87370184Y-145752262D01*
X87497738Y-145879816D01*
X87650478Y-145975789D01*
X87820745Y-146035368D01*
X88000000Y-146055565D01*
X88179255Y-146035368D01*
X88349522Y-145975789D01*
X88502262Y-145879816D01*
X88629816Y-145752262D01*
X88725789Y-145599522D01*
X88785368Y-145429255D01*
X88805565Y-145250000D01*
X88796551Y-145169997D01*
X88802347Y-145135881D01*
X88825406Y-145110079D01*
X88858658Y-145100499D01*
X89748412Y-145100499D01*
X89750008Y-145100499D01*
X89852797Y-145089999D01*
X90019334Y-145034814D01*
X90168656Y-144942712D01*
X90292712Y-144818656D01*
X90384814Y-144669334D01*
X90439999Y-144502797D01*
X90450500Y-144400009D01*
X90450499Y-143599992D01*
X90439999Y-143497203D01*
X90384814Y-143330666D01*
X90292712Y-143181344D01*
X90168656Y-143057288D01*
X90165558Y-143055377D01*
X90165554Y-143055374D01*
X90162021Y-143053195D01*
X90135896Y-143020806D01*
X90135896Y-142979194D01*
X90162021Y-142946805D01*
X90165554Y-142944625D01*
X90168656Y-142942712D01*
X90292712Y-142818656D01*
X90384814Y-142669334D01*
X90439999Y-142502797D01*
X90450500Y-142400009D01*
X90450499Y-141599992D01*
X90439999Y-141497203D01*
X90384814Y-141330666D01*
X90292712Y-141181344D01*
X90168656Y-141057288D01*
X90118058Y-141026079D01*
X90022430Y-140967095D01*
X90022425Y-140967093D01*
X90019334Y-140965186D01*
X90015886Y-140964043D01*
X90015881Y-140964041D01*
X89856034Y-140911073D01*
X89856028Y-140911071D01*
X89852797Y-140910001D01*
X89849408Y-140909654D01*
X89849400Y-140909653D01*
X89751600Y-140899662D01*
X89751589Y-140899661D01*
X89750009Y-140899500D01*
X89748413Y-140899500D01*
X88751588Y-140899500D01*
X88751568Y-140899500D01*
X88749992Y-140899501D01*
X88748413Y-140899662D01*
X88748399Y-140899663D01*
X88650598Y-140909654D01*
X88650596Y-140909654D01*
X88647203Y-140910001D01*
X88643971Y-140911071D01*
X88643966Y-140911073D01*
X88484118Y-140964041D01*
X88484109Y-140964044D01*
X88480666Y-140965186D01*
X88477577Y-140967091D01*
X88477569Y-140967095D01*
X88334441Y-141055377D01*
X88334436Y-141055380D01*
X88331344Y-141057288D01*
X88328772Y-141059859D01*
X88328768Y-141059863D01*
X88209863Y-141178768D01*
X88209859Y-141178772D01*
X88207288Y-141181344D01*
X88205381Y-141184435D01*
X88205376Y-141184442D01*
X88177901Y-141228987D01*
X88145512Y-141255111D01*
X88103900Y-141255111D01*
X88071511Y-141228987D01*
X88044227Y-141184754D01*
X88039741Y-141179080D01*
X87920919Y-141060258D01*
X87915245Y-141055772D01*
X87772218Y-140967551D01*
X87765669Y-140964497D01*
X87605933Y-140911566D01*
X87599299Y-140910146D01*
X87501570Y-140900162D01*
X87498383Y-140900000D01*
X87262431Y-140900000D01*
X87253641Y-140903641D01*
X87250000Y-140912431D01*
X87250000Y-142187500D01*
X87231694Y-142231694D01*
X87187500Y-142250000D01*
X85812432Y-142250000D01*
X85803642Y-142253641D01*
X85800628Y-142260918D01*
X85777609Y-142288967D01*
X85742886Y-142299500D01*
X82610478Y-142299500D01*
X82586560Y-142294742D01*
X82566284Y-142281194D01*
X82022660Y-141737569D01*
X85800000Y-141737569D01*
X85803641Y-141746358D01*
X85812431Y-141750000D01*
X86737569Y-141750000D01*
X86746358Y-141746358D01*
X86750000Y-141737569D01*
X86750000Y-140912432D01*
X86746358Y-140903642D01*
X86737569Y-140900001D01*
X86501618Y-140900001D01*
X86498430Y-140900163D01*
X86400700Y-140910147D01*
X86394066Y-140911566D01*
X86234330Y-140964497D01*
X86227781Y-140967551D01*
X86084754Y-141055772D01*
X86079080Y-141060258D01*
X85960258Y-141179080D01*
X85955772Y-141184754D01*
X85867551Y-141327781D01*
X85864497Y-141334330D01*
X85811566Y-141494066D01*
X85810146Y-141500700D01*
X85800162Y-141598429D01*
X85800000Y-141601617D01*
X85800000Y-141737569D01*
X82022660Y-141737569D01*
X81961494Y-141676403D01*
X81943581Y-141639206D01*
X81939346Y-141601617D01*
X81935868Y-141570745D01*
X81934709Y-141567434D01*
X81877448Y-141403791D01*
X81876289Y-141400478D01*
X81780316Y-141247738D01*
X81652762Y-141120184D01*
X81557390Y-141060258D01*
X81502995Y-141026079D01*
X81502994Y-141026078D01*
X81500022Y-141024211D01*
X81496710Y-141023052D01*
X81496708Y-141023051D01*
X81333065Y-140965790D01*
X81333063Y-140965789D01*
X81329755Y-140964632D01*
X81326268Y-140964239D01*
X81153988Y-140944828D01*
X81150500Y-140944435D01*
X81147012Y-140944828D01*
X80974731Y-140964239D01*
X80974729Y-140964239D01*
X80971245Y-140964632D01*
X80967938Y-140965788D01*
X80967934Y-140965790D01*
X80804291Y-141023051D01*
X80804285Y-141023053D01*
X80800978Y-141024211D01*
X80798008Y-141026076D01*
X80798004Y-141026079D01*
X80651208Y-141118317D01*
X80651203Y-141118320D01*
X80648238Y-141120184D01*
X80645761Y-141122660D01*
X80645757Y-141122664D01*
X80523164Y-141245257D01*
X80523160Y-141245261D01*
X80520684Y-141247738D01*
X80518820Y-141250703D01*
X80518817Y-141250708D01*
X80426579Y-141397504D01*
X80426576Y-141397508D01*
X80424711Y-141400478D01*
X80423553Y-141403785D01*
X80423551Y-141403791D01*
X80366290Y-141567434D01*
X80366290Y-141567435D01*
X80365132Y-141570745D01*
X80364739Y-141574229D01*
X80364739Y-141574231D01*
X80354970Y-141660939D01*
X80344935Y-141750000D01*
X78868924Y-141750000D01*
X78769744Y-141642262D01*
X78717523Y-141601617D01*
X78583372Y-141497203D01*
X78573509Y-141489526D01*
X78571244Y-141488300D01*
X78571236Y-141488295D01*
X78403467Y-141397504D01*
X78354810Y-141371172D01*
X78352366Y-141370333D01*
X78352364Y-141370332D01*
X78122056Y-141291267D01*
X78122052Y-141291266D01*
X78119614Y-141290429D01*
X78117072Y-141290004D01*
X78117065Y-141290003D01*
X77876884Y-141249925D01*
X77876879Y-141249924D01*
X77874335Y-141249500D01*
X77625665Y-141249500D01*
X77623121Y-141249924D01*
X77623115Y-141249925D01*
X77382934Y-141290003D01*
X77382924Y-141290005D01*
X77380386Y-141290429D01*
X77377950Y-141291265D01*
X77377943Y-141291267D01*
X77147635Y-141370332D01*
X77147628Y-141370334D01*
X77145190Y-141371172D01*
X77142915Y-141372402D01*
X77142913Y-141372404D01*
X76928763Y-141488295D01*
X76928750Y-141488303D01*
X76926491Y-141489526D01*
X76924451Y-141491113D01*
X76924449Y-141491115D01*
X76732300Y-141640670D01*
X76732292Y-141640677D01*
X76730256Y-141642262D01*
X76728504Y-141644164D01*
X76728503Y-141644166D01*
X76563584Y-141823315D01*
X76563578Y-141823322D01*
X76561836Y-141825215D01*
X76560426Y-141827372D01*
X76560423Y-141827377D01*
X76427244Y-142031223D01*
X76427240Y-142031229D01*
X76425827Y-142033393D01*
X76424791Y-142035754D01*
X76424786Y-142035764D01*
X76326975Y-142258750D01*
X76326970Y-142258761D01*
X76325937Y-142261119D01*
X76325302Y-142263624D01*
X76325301Y-142263629D01*
X76265528Y-142499665D01*
X76265526Y-142499672D01*
X76264892Y-142502179D01*
X76264678Y-142504752D01*
X76264678Y-142504757D01*
X76250000Y-142681899D01*
X76244357Y-142750000D01*
X72755643Y-142750000D01*
X72735108Y-142502179D01*
X72674063Y-142261119D01*
X72574173Y-142033393D01*
X72438164Y-141825215D01*
X72269744Y-141642262D01*
X72217523Y-141601617D01*
X72083372Y-141497203D01*
X72073509Y-141489526D01*
X72071244Y-141488300D01*
X72071236Y-141488295D01*
X71903467Y-141397504D01*
X71854810Y-141371172D01*
X71852366Y-141370333D01*
X71852364Y-141370332D01*
X71622056Y-141291267D01*
X71622052Y-141291266D01*
X71619614Y-141290429D01*
X71617072Y-141290004D01*
X71617065Y-141290003D01*
X71376884Y-141249925D01*
X71376879Y-141249924D01*
X71374335Y-141249500D01*
X71125665Y-141249500D01*
X71123121Y-141249924D01*
X71123115Y-141249925D01*
X70882934Y-141290003D01*
X70882924Y-141290005D01*
X70880386Y-141290429D01*
X70877950Y-141291265D01*
X70877943Y-141291267D01*
X70647635Y-141370332D01*
X70647628Y-141370334D01*
X70645190Y-141371172D01*
X70642915Y-141372402D01*
X70642913Y-141372404D01*
X70428763Y-141488295D01*
X70428750Y-141488303D01*
X70426491Y-141489526D01*
X70424451Y-141491113D01*
X70424449Y-141491115D01*
X70232300Y-141640670D01*
X70232292Y-141640677D01*
X70230256Y-141642262D01*
X70228504Y-141644164D01*
X70228503Y-141644166D01*
X70063584Y-141823315D01*
X70063578Y-141823322D01*
X70061836Y-141825215D01*
X70060426Y-141827372D01*
X70060423Y-141827377D01*
X69927244Y-142031223D01*
X69927240Y-142031229D01*
X69925827Y-142033393D01*
X69924791Y-142035754D01*
X69924786Y-142035764D01*
X69826975Y-142258750D01*
X69826970Y-142258761D01*
X69825937Y-142261119D01*
X69825302Y-142263624D01*
X69825301Y-142263629D01*
X69810587Y-142321734D01*
X69788388Y-142355712D01*
X69750000Y-142368891D01*
X69711612Y-142355712D01*
X69689413Y-142321734D01*
X69683782Y-142299500D01*
X69674063Y-142261119D01*
X69574173Y-142033393D01*
X69438164Y-141825215D01*
X69269744Y-141642262D01*
X69217523Y-141601617D01*
X69083372Y-141497203D01*
X69073509Y-141489526D01*
X69071244Y-141488300D01*
X69071236Y-141488295D01*
X68903467Y-141397504D01*
X68854810Y-141371172D01*
X68852366Y-141370333D01*
X68852364Y-141370332D01*
X68622056Y-141291267D01*
X68622052Y-141291266D01*
X68619614Y-141290429D01*
X68617072Y-141290004D01*
X68617065Y-141290003D01*
X68376884Y-141249925D01*
X68376879Y-141249924D01*
X68374335Y-141249500D01*
X68125665Y-141249500D01*
X68123121Y-141249924D01*
X68123115Y-141249925D01*
X67882934Y-141290003D01*
X67882924Y-141290005D01*
X67880386Y-141290429D01*
X67877950Y-141291265D01*
X67877943Y-141291267D01*
X67647635Y-141370332D01*
X67647628Y-141370334D01*
X67645190Y-141371172D01*
X67642915Y-141372402D01*
X67642913Y-141372404D01*
X67428763Y-141488295D01*
X67428750Y-141488303D01*
X67426491Y-141489526D01*
X67424451Y-141491113D01*
X67424449Y-141491115D01*
X67232300Y-141640670D01*
X67232292Y-141640677D01*
X67230256Y-141642262D01*
X67228504Y-141644164D01*
X67228503Y-141644166D01*
X67063584Y-141823315D01*
X67063578Y-141823322D01*
X67061836Y-141825215D01*
X67060426Y-141827372D01*
X67060423Y-141827377D01*
X66927244Y-142031223D01*
X66927240Y-142031229D01*
X66925827Y-142033393D01*
X66924791Y-142035754D01*
X66924786Y-142035764D01*
X66826975Y-142258750D01*
X66826970Y-142258761D01*
X66825937Y-142261119D01*
X66825302Y-142263624D01*
X66825301Y-142263629D01*
X66765528Y-142499665D01*
X66765526Y-142499672D01*
X66764892Y-142502179D01*
X66764678Y-142504752D01*
X66764678Y-142504757D01*
X66750000Y-142681899D01*
X66744357Y-142750000D01*
X63255643Y-142750000D01*
X63235108Y-142502179D01*
X63174063Y-142261119D01*
X63074173Y-142033393D01*
X62938164Y-141825215D01*
X62769744Y-141642262D01*
X62717523Y-141601617D01*
X62583372Y-141497203D01*
X62573509Y-141489526D01*
X62571244Y-141488300D01*
X62571236Y-141488295D01*
X62403467Y-141397504D01*
X62354810Y-141371172D01*
X62352366Y-141370333D01*
X62352364Y-141370332D01*
X62122056Y-141291267D01*
X62122052Y-141291266D01*
X62119614Y-141290429D01*
X62117072Y-141290004D01*
X62117065Y-141290003D01*
X61876884Y-141249925D01*
X61876879Y-141249924D01*
X61874335Y-141249500D01*
X61625665Y-141249500D01*
X61623121Y-141249924D01*
X61623115Y-141249925D01*
X61382934Y-141290003D01*
X61382924Y-141290005D01*
X61380386Y-141290429D01*
X61377950Y-141291265D01*
X61377943Y-141291267D01*
X61147635Y-141370332D01*
X61147628Y-141370334D01*
X61145190Y-141371172D01*
X61142915Y-141372402D01*
X61142913Y-141372404D01*
X60928763Y-141488295D01*
X60928750Y-141488303D01*
X60926491Y-141489526D01*
X60924451Y-141491113D01*
X60924449Y-141491115D01*
X60732300Y-141640670D01*
X60732292Y-141640677D01*
X60730256Y-141642262D01*
X60728504Y-141644164D01*
X60728503Y-141644166D01*
X60563584Y-141823315D01*
X60563578Y-141823322D01*
X60561836Y-141825215D01*
X60560426Y-141827372D01*
X60560423Y-141827377D01*
X60427244Y-142031223D01*
X60427240Y-142031229D01*
X60425827Y-142033393D01*
X60424791Y-142035754D01*
X60424786Y-142035764D01*
X60326975Y-142258750D01*
X60326970Y-142258761D01*
X60325937Y-142261119D01*
X60325302Y-142263624D01*
X60325301Y-142263629D01*
X60265528Y-142499665D01*
X60265526Y-142499672D01*
X60264892Y-142502179D01*
X60264678Y-142504752D01*
X60264678Y-142504757D01*
X60250000Y-142681899D01*
X60244357Y-142750000D01*
X53454268Y-142750000D01*
X53342331Y-142666204D01*
X53313478Y-142655442D01*
X53211147Y-142617275D01*
X53211142Y-142617273D01*
X53207483Y-142615909D01*
X53203596Y-142615491D01*
X53149526Y-142609677D01*
X53149512Y-142609676D01*
X53147873Y-142609500D01*
X53146208Y-142609500D01*
X51353793Y-142609500D01*
X51353774Y-142609500D01*
X51352128Y-142609501D01*
X51350473Y-142609678D01*
X51350471Y-142609679D01*
X51296402Y-142615491D01*
X51296399Y-142615491D01*
X51292517Y-142615909D01*
X51288857Y-142617273D01*
X51288853Y-142617275D01*
X51161859Y-142664641D01*
X51161857Y-142664641D01*
X51157669Y-142666204D01*
X51154093Y-142668880D01*
X51154091Y-142668882D01*
X51046029Y-142749777D01*
X51046026Y-142749779D01*
X51042454Y-142752454D01*
X51039779Y-142756026D01*
X51039777Y-142756029D01*
X50958882Y-142864091D01*
X50956204Y-142867669D01*
X50954641Y-142871857D01*
X50954641Y-142871859D01*
X50907275Y-142998852D01*
X50907273Y-142998858D01*
X50905909Y-143002517D01*
X50905491Y-143006401D01*
X50905491Y-143006403D01*
X50899677Y-143060473D01*
X50899676Y-143060488D01*
X50899500Y-143062127D01*
X50899500Y-143063790D01*
X50899500Y-143063791D01*
X50899500Y-144856206D01*
X50899500Y-144856224D01*
X50127500Y-144856224D01*
X50127500Y-140190000D01*
X50145806Y-140145806D01*
X50190000Y-140127500D01*
X99810000Y-140127500D01*
X99854194Y-140145806D01*
G37*
%TD.AperFunction*%
%TD*%
D17*
X50000000Y-140000000D02*
X50000000Y-150000000D01*
X100000000Y-140000000D02*
X50000000Y-140000000D01*
X100000000Y-150000000D02*
X100000000Y-140000000D01*
X50000000Y-150000000D02*
X100000000Y-150000000D01*
M02*
